<svg version="1.1" xmlns="http://www.w3.org/2000/svg" xmlns:xlink="http://www.w3.org/1999/xlink" width="453.27581" height="152.48549" viewBox="0,0,453.27581,152.48549"><g transform="translate(-2.86569,-3.60195)"><g data-paper-data="{&quot;isPaintingLayer&quot;:true}" fill-rule="nonzero" stroke="none" stroke-linecap="butt" stroke-linejoin="miter" stroke-miterlimit="10" stroke-dasharray="" stroke-dashoffset="0" style="mix-blend-mode: normal"><path d="M34.32556,17.09073c-4.5013,0.3659 -8.66934,1.96128 -12.85533,3.98424c-2.29231,1.1078 -3.58238,3.68598 -5.73711,5.0421c-1.57769,0.99295 -5.01282,0.90496 -5.64037,3.45571c-0.68675,2.79135 0.1807,7.40743 0.1807,10.33056c0,4.5125 0.4282,8.4229 0.86318,12.85773c0.27141,2.76721 -0.67134,5.62486 -0.07706,8.3411c0.51379,2.34834 2.23298,4.25812 3.30643,6.40903c3.37159,8.47272 7.54112,12.24027 15.37856,16.48925c0.49726,0.26958 5.08884,3.36219 6.10419,3.56392c6.42167,1.27589 13.85372,0.88568 20.39323,1.33789c5.98671,0.41398 11.94399,1.39895 17.00768,-2.47681c8.94087,-6.84336 10.20038,-17.63037 12.75717,-27.58543c0.07659,-5.39886 1.96622,-7.9976 3.66568,-12.97754c1.38821,-4.06788 1.62096,-10.85945 0.77305,-14.97668c-0.29003,-1.40829 -1.23736,-2.60773 -1.65336,-3.98408c-0.23311,-0.77126 0.3123,-1.85139 -0.27659,-2.40129c-2.17784,-2.03365 -5.68231,-2.02811 -8.11533,-3.74832c-3.28423,-2.32204 -5.75534,-5.11647 -9.72654,-6.59657c-3.39783,-1.2664 -6.81122,-0.81323 -10.1511,-1.6361c-1.27419,-0.31393 -2.26146,-1.39315 -3.52126,-1.76063c-3.19894,-0.93313 -6.98604,1.96652 -9.28753,3.34741c-2.34898,0.59874 -4.65357,1.44034 -6.81528,2.53723l-3.10218,1.07136c0,0 -2.04744,0.68248 -3.47082,-0.62407zM37.99591,10.22336c2.24761,-1.09498 4.59592,-2.02957 7.02286,-2.62354c4.22604,-2.53563 8.40225,-4.84279 13.60062,-3.6951c1.28144,0.28291 2.24936,1.43752 3.52126,1.76063c3.51407,0.89269 7.35258,0.51968 10.97643,1.88515c4.54089,1.71102 7.64862,4.77517 11.40099,7.48845c2.90458,2.10026 7.00235,2.47517 9.49095,5.05481c1.12769,1.16895 0.94159,3.11024 1.48404,4.64122c0.57537,1.62388 1.53757,3.12822 1.8679,4.81905c1.03184,5.28175 0.69878,13.32136 -0.98758,18.47524c-1.58798,4.85321 -3.4625,6.5894 -3.37683,11.67125c-2.86066,11.72105 -4.80527,24.43166 -15.41287,32.2759c-6.783,5.01598 -13.81478,4.50276 -21.82626,3.95168c-6.92598,-0.47641 -14.99703,-0.05708 -21.7617,-1.56935c-2.53321,-0.56631 -5.45976,-2.98925 -7.7072,-4.22209c-2.17235,-1.19165 -4.55859,-2.00132 -6.62991,-3.36101c-5.75976,-3.78091 -9.24244,-10.22289 -11.71708,-16.37942c-0.43586,-0.86997 -3.62337,-7.17399 -3.73608,-7.67599c-0.44035,-1.9613 0.14877,-7.05285 -0.07706,-9.26518c-0.47249,-4.62878 -0.89745,-8.84433 -0.89745,-13.55168c0,-3.32682 -0.93153,-9.59248 0.1807,-12.5576c0.75698,-2.01804 2.19061,-3.81465 3.83956,-5.20262c1.27094,-1.06978 3.19346,-1.02963 4.60508,-1.90544c2.43463,-1.5105 4.03725,-4.21539 6.58728,-5.52167c5.74795,-2.94446 11.82609,-4.65669 18.2393,-4.74335c0,0 0.60478,0 1.31307,0.25064z" fill="#ff0000" stroke-width="0.5"/><path d="M76.25429,67.39033c0,-1.38071 1.11929,-2.5 2.5,-2.5c1.38071,0 2.5,1.11929 2.5,2.5c0,1.38071 -1.11929,2.5 -2.5,2.5c-1.38071,0 -2.5,-1.11929 -2.5,-2.5z" fill="#ff0000" stroke-width="0.5"/><path d="M46.63464,65.94737c0.86549,2.11862 -0.86549,3.17793 -0.86549,3.17793l-1.36377,0.77152c-4.6294,1.41491 -8.63123,1.29436 -13.28532,0.64515c-2.66675,-0.37199 -5.87462,0.84143 -8.47241,0.01775h-1.93531c-1.06884,0 -1.93531,-1.0605 -1.93531,-2.36869c0,-0.94559 0.4527,-1.76177 1.10731,-2.14157l1.78046,-1.08959c4.95294,-4.56484 9.94891,-10.24858 11.18077,-17.95943c0.18197,-1.13903 1.14717,-4.40227 0.04543,-5.55879c-0.94043,-0.98719 -2.29407,-1.16812 -3.36763,-1.92498c-0.37961,-0.26762 -0.63718,-1.01854 -1.06981,-0.93428c-0.79813,0.15544 -1.35771,1.07757 -2.06965,1.5457c-1.72718,1.13567 -3.56966,1.98637 -5.35456,2.97937c0,0 -1.76183,0.98017 -2.56267,-1.1762c-0.80083,-2.15637 0.961,-3.13654 0.961,-3.13654c1.76328,-0.98098 7.13617,-4.78407 9.02587,-4.9497c1.00945,-0.08847 1.87851,0.92445 2.8008,1.43442c0.51839,0.28663 4.18398,2.56446 4.37358,2.8124c2.24942,2.94154 1.58677,6.38935 1.01308,9.8377c-1.2272,7.37652 -5.12766,13.1146 -9.69138,17.89076c0.66259,-0.00046 1.32517,-0.00027 1.98775,0.00206c5.08146,0.01777 9.44526,1.03602 14.52923,-0.52145l0.57153,-0.41283c0,0 1.73099,-1.05931 2.59648,1.05931z" fill="#ff0000" stroke-width="0.5"/><text transform="translate(103.8831,46.47073) scale(0.58333,0.58333)" font-size="40" xml:space="preserve" fill="#ff0000" fill-rule="nonzero" stroke="none" stroke-width="1" stroke-linecap="butt" stroke-linejoin="miter" stroke-miterlimit="10" stroke-dasharray="" stroke-dashoffset="0" font-family="Sans Serif" font-weight="normal" text-anchor="start" style="mix-blend-mode: normal"><tspan x="0" dy="0">Ok, let's discuss the elephant in</tspan><tspan x="0" dy="48px">the room. Why is there a bear?</tspan></text><g stroke-width="1"><path d="M381.13993,119.04155c0,0 0.96837,9.53032 -5.194,20.53028c-3.08118,5.47771 -3.87349,9.44126 -3.1252,10.51008c0.70427,1.06882 3.03717,1.87044 2.42093,2.53845c-0.61624,0.66801 -8.62731,1.51416 -10.47603,0.66801c-0.74829,-0.35627 -2.90512,-12.29145 -2.3329,-17.54649c0.57222,-5.25504 1.40854,-6.99187 1.01239,-10.82182c-0.39615,-3.82994 -2.77307,-10.33194 -1.40854,-13.31573c1.36452,-2.98379 5.32605,-7.88256 12.06063,-5.25504c6.73459,2.62752 7.17476,10.10927 7.04271,12.69225z" fill="#856045"/><path d="M371.72031,152.97663c-0.08803,-0.1336 -0.2641,-0.35627 -0.44017,-0.53441c-0.17607,-0.22267 -0.35214,-0.40081 -0.48419,-0.53441c-0.08803,-0.08907 -0.13205,-0.1336 -0.17607,-0.17814c-0.04402,-0.04453 -0.04402,-0.08907 -0.04402,-0.08907c0,0 0.13205,0.04453 0.30812,0.1336c0.22008,0.08907 0.44017,0.22267 0.61624,0.44534c0.17607,0.22267 0.35214,0.48988 0.39615,0.66801c0.04402,0.22267 0.04402,0.35627 0.04402,0.35627c0,0 -0.08803,-0.08907 -0.22008,-0.26721z" fill="#59402f"/><path d="M373.96517,152.62035c-0.13205,-0.17814 -0.35214,-0.35627 -0.57222,-0.57894c-0.22008,-0.22267 -0.44017,-0.40081 -0.61624,-0.53441c-0.08803,-0.08907 -0.17607,-0.1336 -0.22008,-0.17814c-0.04402,0 -0.08803,-0.04453 -0.08803,-0.04453c0,0 0,0 0.08803,0c0.04402,0.04453 0.13205,0.04453 0.2641,0.08907c0.08803,0.04453 0.22008,0.08907 0.35214,0.17814c0.13205,0.04453 0.2641,0.17814 0.39615,0.26721c0.22008,0.22267 0.44017,0.48988 0.5282,0.71255c0.08803,0.22267 0.13205,0.40081 0.13205,0.40081c0,0 -0.13205,-0.1336 -0.2641,-0.31174z" fill="#59402f"/><path d="M370.83997,153.37744c-0.2641,-0.26721 -0.61624,-0.66801 -0.17607,-0.75708c0.44017,-0.08907 0.92436,0.97975 0.96837,1.24696c0,0.1336 -0.57222,-0.22267 -0.7923,-0.48988z" fill="#665a52"/><path d="M373.04081,152.88757c-0.2641,-0.26721 -0.61624,-0.66801 -0.17607,-0.75708c0.44017,-0.08907 0.92436,0.97975 0.96837,1.24696c0,0.1336 -0.57222,-0.22267 -0.7923,-0.48988z" fill="#665a52"/><path d="M374.44936,152.62035c-0.2641,-0.26721 -0.61624,-0.66801 -0.17607,-0.75708c0.44017,-0.08907 0.92436,0.97975 0.96837,1.24696c0,0.1336 -0.61624,-0.26721 -0.7923,-0.48988z" fill="#665a52"/><g><path d="M362.96094,140.37345c-2.02478,-1.11336 -1.23247,-4.00808 -1.23247,-4.00808l-0.88034,1.51416c-0.5282,-1.6923 0.57222,-4.63156 0.57222,-4.63156l-1.10042,0.62348c0.04402,-1.91497 1.67264,-3.02833 1.67264,-3.02833c-0.57222,0.75708 -1.62863,0.22267 -1.62863,0.22267c0.96837,-0.08907 3.30127,-4.89876 3.30127,-4.89876" fill="#856045"/><path d="M360.62805,130.93219c0.08803,-0.08907 0.22008,-0.22267 0.35214,-0.40081c0.30812,-0.35627 0.66025,-0.89068 0.96837,-1.4251c0.30812,-0.53441 0.61624,-1.06882 0.88034,-1.46963c0.2641,-0.40081 0.44017,-0.66801 0.44017,-0.66801c0,0 -0.13205,0.26721 -0.30812,0.71255c-0.08803,0.17814 -0.22008,0.44534 -0.35214,0.71255c-0.13205,0.26721 -0.2641,0.53441 -0.44017,0.80162c-0.30812,0.53441 -0.70427,1.06882 -1.05641,1.38056c-0.13205,0.17814 -0.30812,0.26721 -0.44017,0.35627c-0.13205,0.08907 -0.22008,0.08907 -0.22008,0.08907c0,0 0.08803,0 0.17607,-0.08907z" fill="#59402f"/><path d="M360.31993,133.33703c0.04402,-0.1336 0.04402,-0.31174 0.08803,-0.48988c0.04402,-0.17814 0.08803,-0.35627 0.17607,-0.53441c0.08803,-0.17814 0.17607,-0.35627 0.30812,-0.48988c0.13205,-0.1336 0.22008,-0.26721 0.35214,-0.35627c0.13205,-0.08907 0.22008,-0.1336 0.30812,-0.17814c0.08803,-0.04453 0.13205,-0.04453 0.13205,-0.04453c0,0 -0.04402,0.04453 -0.08803,0.08907c-0.08803,0.04453 -0.13205,0.17814 -0.22008,0.26721c-0.08803,0.1336 -0.17607,0.26721 -0.2641,0.40081c-0.08803,0.1336 -0.13205,0.26721 -0.22008,0.44534c-0.17607,0.31174 -0.2641,0.66801 -0.35214,0.93522c-0.08803,0.26721 -0.13205,0.44534 -0.13205,0.44534c0,0 -0.04402,-0.22267 -0.08803,-0.48988z" fill="#59402f"/><path d="M360.89215,137.56778c-0.04402,-0.08907 -0.13205,-0.26721 -0.17607,-0.48988c-0.04402,-0.22267 -0.08803,-0.48988 -0.08803,-0.75708c0,-0.26721 0.04402,-0.57894 0.08803,-0.84615c0.04402,-0.31174 0.08803,-0.57894 0.17607,-0.84615c0.08803,-0.26721 0.17607,-0.53441 0.2641,-0.71255c0.08803,-0.22267 0.17607,-0.35627 0.22008,-0.48988c0.04402,-0.1336 0.08803,-0.17814 0.08803,-0.17814c0,0 0,0.04453 -0.04402,0.17814c-0.04402,0.08907 -0.08803,0.26721 -0.13205,0.48988c-0.04402,0.22267 -0.13205,0.44534 -0.17607,0.71255c-0.08803,0.26721 -0.13205,0.53441 -0.17607,0.80162c-0.04402,0.26721 -0.08803,0.53441 -0.08803,0.80162c0,0.26721 0,0.48988 0,0.71255c0,0.44534 0.08803,0.71255 0.08803,0.71255c0,0 -0.04402,-0.04453 -0.04402,-0.08907z" fill="#59402f"/><path d="M362.30069,139.83904c-0.08803,-0.04453 -0.22008,-0.17814 -0.30812,-0.31174c-0.08803,-0.17814 -0.22008,-0.35627 -0.2641,-0.57894c-0.08803,-0.17814 -0.08803,-0.44534 -0.13205,-0.66801c0,-0.1336 0,-0.22267 0,-0.35627c0,-0.1336 0,-0.26721 0,-0.35627c0.04402,-0.22267 0.04402,-0.40081 0.08803,-0.57894c0.04402,-0.35627 0.13205,-0.57894 0.13205,-0.57894c0,0 0.04402,0.22267 0.04402,0.57894c0,0.35627 0,0.80162 0.04402,1.24696c0.04402,0.44534 0.13205,0.89068 0.2641,1.20242c0.04402,0.1336 0.13205,0.26721 0.17607,0.35627c0.04402,0.08907 0.08803,0.1336 0.08803,0.1336c0,0 -0.08803,0 -0.13205,-0.08907z" fill="#59402f"/></g><path d="M362.56479,140.28438c0.08803,0.80162 0.17607,1.73683 0.30812,2.71659c0.13205,0.97975 0.2641,2.04857 0.39615,3.1174c0.13205,1.06882 0.2641,2.13764 0.44017,3.1174c0.17607,0.97975 0.35214,1.91497 0.57222,2.67205c0.08803,0.40081 0.22008,0.75708 0.35214,1.02429c0.04402,0.08907 0.08803,0.17814 0.13205,0.22267l0.04402,0.08907c0.04402,0 0.04402,0.04453 0.08803,0.04453c0.13205,0.08907 0.22008,0.08907 0.35214,0.1336c0.44017,0.08907 0.70427,0.1336 0.70427,0.1336c0,0 -0.2641,0 -0.70427,-0.08907c-0.13205,0 -0.2641,-0.04453 -0.39615,-0.08907c-0.04402,0 -0.04402,0 -0.08803,-0.04453l-0.08803,-0.08907c-0.04402,-0.08907 -0.08803,-0.1336 -0.13205,-0.22267c-0.17607,-0.26721 -0.30812,-0.62348 -0.44017,-1.02429c-0.2641,-0.75708 -0.48419,-1.6923 -0.66025,-2.67205c-0.17607,-0.97975 -0.35214,-2.04857 -0.48419,-3.1174c-0.13205,-1.06882 -0.2641,-2.13764 -0.35214,-3.1174c-0.08803,-1.02429 -0.17607,-1.95951 -0.22008,-2.76112c-0.08803,-1.60323 -0.13205,-2.67205 -0.13205,-2.67205c0,0 0.08803,1.06882 0.30812,2.62752z" fill="#59402f"/><path d="M381.27198,124.831c-0.13205,0.80162 -0.35214,1.95951 -0.66025,3.34007c-0.13205,0.71255 -0.30812,1.4251 -0.5282,2.22671c-0.22008,0.80162 -0.44017,1.60323 -0.70427,2.44938c-0.2641,0.84615 -0.57222,1.6923 -0.96837,2.53845c-0.22008,0.40081 -0.48419,0.80162 -0.70427,1.20242c-0.2641,0.40081 -0.48419,0.80162 -0.70427,1.20242c-0.92436,1.60323 -1.71666,3.29553 -2.42093,4.89876c-0.70427,1.60323 -1.32051,3.1174 -1.71666,4.45342c-0.13205,0.35627 -0.17607,0.66801 -0.22008,0.97975c-0.08803,0.31174 -0.13205,0.62348 -0.13205,0.89068c0,0.26721 0.04402,0.53441 0.13205,0.75708c0.08803,0.22267 0.22008,0.40081 0.35214,0.53441c0.2641,0.26721 0.5282,0.44534 0.70427,0.57894c0.17607,0.1336 0.2641,0.17814 0.2641,0.17814c0,0 -0.08803,-0.04453 -0.2641,-0.17814c-0.17607,-0.1336 -0.44017,-0.31174 -0.74829,-0.57894c-0.13205,-0.1336 -0.30812,-0.31174 -0.39615,-0.53441c-0.08803,-0.22267 -0.13205,-0.53441 -0.13205,-0.80162c0,-0.26721 0.04402,-0.57894 0.08803,-0.89068c0.04402,-0.31174 0.08803,-0.62348 0.17607,-0.97975c0.17607,-0.66801 0.44017,-1.38056 0.70427,-2.13764c0.30812,-0.75708 0.61624,-1.5587 0.96837,-2.36031c0.70427,-1.60323 1.49658,-3.29553 2.37691,-4.9433c0.22008,-0.40081 0.48419,-0.80162 0.70427,-1.20242c0.2641,-0.40081 0.48419,-0.80162 0.70427,-1.20242c0.39615,-0.80162 0.70427,-1.6923 0.96837,-2.49392c0.5282,-1.64777 0.92436,-3.20646 1.27649,-4.58703c0.66025,-2.71659 1.01239,-4.54249 1.01239,-4.54249c0,0 -0.08803,0.44534 -0.13205,1.20242z" fill="#59402f"/></g><g stroke-width="1"><g fill="#856045"><path d="M409.26673,120.77839c-1.32051,9.39672 -3.82947,11.80157 -4.13759,14.47362c-0.30812,2.67205 0,12.69225 0.57222,13.89468c0.57222,1.20242 2.37691,2.09311 2.64101,3.42914c0.30812,1.33603 -9.72774,0.75708 -10.91619,0c-1.18846,-0.75708 -7.52689,-17.63555 -7.08672,-27.21041c2.11281,-19.37239 20.24778,-13.98375 18.92727,-4.58703z"/><path d="M390.82365,130.75406c-1.84871,-1.38056 -0.66025,-4.14168 -0.66025,-4.14168l-1.05641,1.38056c-0.2641,-1.78137 1.18846,-4.54249 1.18846,-4.54249l-1.18846,0.48988c0.2641,-1.87044 2.02478,-2.76112 2.02478,-2.76112c-0.70427,0.66801 -1.67264,0 -1.67264,0c1.01239,0 3.91751,-4.45342 3.91751,-4.45342"/></g><path d="M389.67921,121.09013c0.13205,-0.04453 0.2641,-0.17814 0.44017,-0.35627c0.35214,-0.35627 0.74829,-0.80162 1.14444,-1.29149c0.39615,-0.48988 0.7923,-0.97975 1.10042,-1.33603c0.30812,-0.35627 0.5282,-0.57894 0.5282,-0.57894c0,0 -0.17607,0.26721 -0.39615,0.66801c-0.13205,0.17814 -0.2641,0.44534 -0.44017,0.66801c-0.17607,0.26721 -0.35214,0.53441 -0.57222,0.75708c-0.39615,0.48988 -0.83632,0.93522 -1.23247,1.20242c-0.17607,0.1336 -0.35214,0.22267 -0.48419,0.26721c-0.13205,0.04453 -0.22008,0.04453 -0.22008,0.04453c0,0 0.08803,0 0.13205,-0.04453z" fill="#59402f"/><path d="M389.10699,123.31684c0.04402,-0.17814 0.08803,-0.31174 0.13205,-0.48988c0.08803,-0.1336 0.17607,-0.31174 0.2641,-0.48988c0.08803,-0.17814 0.22008,-0.31174 0.35214,-0.44534c0.13205,-0.1336 0.2641,-0.22267 0.39615,-0.31174c0.13205,-0.04453 0.22008,-0.08907 0.30812,-0.1336c0.08803,-0.04453 0.13205,-0.04453 0.13205,-0.04453c0,0 -0.04402,0.04453 -0.08803,0.08907c-0.04402,0.04453 -0.13205,0.1336 -0.22008,0.22267c-0.08803,0.08907 -0.22008,0.22267 -0.30812,0.35627c-0.13205,0.1336 -0.22008,0.31174 -0.30812,0.44534c-0.17607,0.31174 -0.30812,0.62348 -0.44017,0.89068c-0.08803,0.26721 -0.17607,0.44534 -0.17607,0.44534c0,0 0,-0.17814 -0.04402,-0.53441z" fill="#59402f"/><path d="M389.06297,127.63666c-0.04402,-0.1336 -0.08803,-0.31174 -0.08803,-0.53441c0,-0.22267 0,-0.48988 0.04402,-0.75708c0.04402,-0.26721 0.08803,-0.57894 0.17607,-0.84615c0.08803,-0.26721 0.17607,-0.57894 0.30812,-0.80162c0.13205,-0.26721 0.2641,-0.48988 0.35214,-0.66801c0.08803,-0.17814 0.17607,-0.35627 0.2641,-0.44534c0.08803,-0.1336 0.13205,-0.17814 0.13205,-0.17814c0,0 0,0.04453 -0.04402,0.17814c-0.04402,0.1336 -0.08803,0.31174 -0.17607,0.48988c-0.08803,0.17814 -0.17607,0.40081 -0.2641,0.66801c-0.08803,0.26721 -0.17607,0.53441 -0.2641,0.80162c-0.08803,0.26721 -0.17607,0.53441 -0.22008,0.80162c-0.08803,0.26721 -0.13205,0.48988 -0.13205,0.71255c-0.04402,0.44534 0,0.71255 0,0.71255c0,0 -0.04402,-0.08907 -0.08803,-0.1336z" fill="#59402f"/><path d="M398.04242,152.84303c-0.17607,-0.08907 -0.48419,-0.1336 -0.70427,-0.44534c-0.2641,-0.31174 -0.48419,-0.66801 -0.70427,-1.11336c-0.22008,-0.44534 -0.39615,-0.97975 -0.61624,-1.5587c-0.44017,-1.15789 -0.92436,-2.49392 -1.49658,-3.91901c-0.5282,-1.4251 -1.10042,-2.98379 -1.58461,-4.54249c-0.2641,-0.80162 -0.48419,-1.5587 -0.70427,-2.36031c-0.13205,-0.40081 -0.22008,-0.75708 -0.30812,-1.15789c-0.08803,-0.40081 -0.17607,-0.80162 -0.2641,-1.15789c-0.13205,-0.75708 -0.2641,-1.46963 -0.35214,-2.18218c-0.08803,-0.71255 -0.17607,-1.33603 -0.2641,-1.95951c-0.17607,-1.20242 -0.2641,-2.22671 -0.30812,-2.93926c-0.04402,-0.71255 -0.04402,-1.11336 -0.04402,-1.11336c0,0 0,0.40081 0.08803,1.11336c0.08803,0.71255 0.22008,1.73683 0.39615,2.93926c0.08803,0.62348 0.22008,1.24696 0.30812,1.95951c0.08803,0.71255 0.22008,1.4251 0.39615,2.18218c0.08803,0.35627 0.17607,0.71255 0.2641,1.11336c0.08803,0.40081 0.22008,0.75708 0.30812,1.15789c0.22008,0.75708 0.44017,1.5587 0.70427,2.31578c0.48419,1.5587 1.01239,3.1174 1.54059,4.54249c0.48419,1.46963 1.01239,2.80566 1.40854,3.96355c0.22008,0.57894 0.35214,1.11336 0.57222,1.5587c0.17607,0.44534 0.39615,0.84615 0.61624,1.11336c0.17607,0.31174 0.48419,0.40081 0.66025,0.44534c0.17607,0.04453 0.2641,0.04453 0.2641,0.04453c0,0 -0.13205,0 -0.17607,0z" fill="#59402f"/><path d="M390.47151,130.48684c-0.08803,-0.08907 -0.22008,-0.17814 -0.35214,-0.35627c-0.04402,-0.04453 -0.13205,-0.17814 -0.17607,-0.26721c-0.04402,-0.1336 -0.08803,-0.22267 -0.13205,-0.35627c-0.08803,-0.26721 -0.13205,-0.53441 -0.13205,-0.80162c0,-0.1336 0,-0.26721 0,-0.40081c0,-0.1336 0.04402,-0.26721 0.04402,-0.40081c0,-0.26721 0.08803,-0.48988 0.13205,-0.66801c0.08803,-0.17814 0.13205,-0.35627 0.17607,-0.44534c0.04402,-0.1336 0.08803,-0.17814 0.08803,-0.17814c0,0 0,0.04453 0,0.17814c0,0.1336 -0.04402,0.31174 -0.04402,0.48988c0,0.22267 -0.04402,0.44534 -0.04402,0.66801c0,0.08907 0,0.22267 0,0.35627c0,0.1336 0,0.26721 0,0.40081c0,0.26721 0.04402,0.53441 0.08803,0.75708c0.04402,0.26721 0.13205,0.44534 0.22008,0.62348c0.17607,0.35627 0.39615,0.53441 0.39615,0.53441c0,0 -0.08803,-0.04453 -0.2641,-0.1336z" fill="#59402f"/><path d="M405.21718,152.9321c-0.13205,-0.1336 -0.2641,-0.35627 -0.39615,-0.57894c-0.13205,-0.22267 -0.2641,-0.40081 -0.39615,-0.57894c-0.04402,-0.04453 -0.08803,-0.1336 -0.13205,-0.17814c-0.04402,-0.04453 -0.04402,-0.08907 -0.04402,-0.08907c0,0 0.13205,0.04453 0.30812,0.17814c0.17607,0.08907 0.35214,0.31174 0.5282,0.53441c0.17607,0.22267 0.2641,0.48988 0.30812,0.71255c0,0.22267 0,0.35627 0,0.35627c0,0 -0.08803,-0.1336 -0.17607,-0.35627z" fill="#59402f"/><path d="M407.46204,152.7985c-0.13205,-0.17814 -0.30812,-0.44534 -0.48419,-0.66801c-0.22008,-0.26721 -0.39615,-0.44534 -0.57222,-0.62348c-0.08803,-0.04453 -0.17607,-0.1336 -0.22008,-0.17814c-0.04402,-0.04453 -0.08803,-0.08907 -0.08803,-0.08907c0,0 0,0.04453 0.08803,0.04453c0.04402,0 0.17607,0.04453 0.2641,0.08907c0.13205,0.04453 0.22008,0.1336 0.35214,0.22267c0.13205,0.08907 0.2641,0.17814 0.35214,0.31174c0.22008,0.22267 0.35214,0.53441 0.44017,0.75708c0.08803,0.22267 0.08803,0.40081 0.08803,0.40081c0,0 -0.08803,-0.1336 -0.22008,-0.26721z" fill="#59402f"/><path d="M406.8458,150.52725c-0.17607,-0.08907 -0.39615,-0.26721 -0.61624,-0.53441c-0.2641,-0.26721 -0.48419,-0.66801 -0.66025,-1.11336c-0.08803,-0.22267 -0.17607,-0.48988 -0.22008,-0.75708c-0.04402,-0.31174 -0.08803,-0.57894 -0.08803,-0.89068c-0.08803,-1.20242 -0.2641,-2.58299 -0.35214,-4.09715c-0.13205,-1.51416 -0.22008,-3.16193 -0.17607,-4.76516c0,-0.80162 0.04402,-1.60323 0.17607,-2.40485c0.08803,-0.80162 0.30812,-1.5587 0.5282,-2.27125c0.44017,-1.46963 1.01239,-2.76112 1.45256,-3.87448c0.2641,-0.53441 0.44017,-1.06882 0.61624,-1.51416c0.17607,-0.44534 0.30812,-0.84615 0.39615,-1.20242c0.08803,-0.35627 0.17607,-0.62348 0.22008,-0.80162c0.04402,-0.17814 0.08803,-0.26721 0.08803,-0.26721c0,0 0,0.08907 -0.04402,0.26721c-0.04402,0.17814 -0.08803,0.44534 -0.17607,0.80162c-0.17607,0.71255 -0.44017,1.6923 -0.88034,2.80566c-0.39615,1.11336 -0.92436,2.44938 -1.36452,3.87448c-0.22008,0.71255 -0.44017,1.46963 -0.5282,2.22671c-0.13205,0.75708 -0.13205,1.5587 -0.17607,2.36031c-0.04402,1.60323 0.04402,3.20646 0.13205,4.72063c0.08803,1.51416 0.22008,2.93926 0.2641,4.14168c0,0.62348 0.04402,1.15789 0.22008,1.60323c0.13205,0.48988 0.35214,0.84615 0.57222,1.11336c0.22008,0.26721 0.44017,0.44534 0.57222,0.57894c0.13205,0.1336 0.22008,0.17814 0.22008,0.17814c0,0 -0.08803,-0.04453 -0.17607,-0.17814z" fill="#59402f"/><path d="M404.20479,153.19931c-0.22008,-0.26721 -0.5282,-0.75708 -0.04402,-0.75708c0.48419,0 0.83632,1.11336 0.83632,1.38056c0,0.17814 -0.5282,-0.31174 -0.7923,-0.62348z" fill="#665a52"/><path d="M406.44965,153.02117c-0.22008,-0.26721 -0.5282,-0.75708 -0.04402,-0.75708c0.48419,0 0.83632,1.11336 0.83632,1.38056c0,0.17814 -0.5282,-0.31174 -0.7923,-0.62348z" fill="#665a52"/><path d="M407.85819,152.6649c-0.22008,-0.26721 -0.5282,-0.75708 -0.04402,-0.75708c0.48419,0 0.83632,1.11336 0.83632,1.38056c0,0.1336 -0.5282,-0.31174 -0.7923,-0.62348z" fill="#665a52"/></g><g stroke-width="1"><path d="M411.37955,115.34521c0,0 0,4.31982 -1.49658,5.74492l-0.08803,-1.24696c0,0 -0.44017,3.91901 -3.30127,5.0769l0.35214,-1.15789c0,0 -3.25725,2.04857 -3.21323,3.56274l-0.5282,-0.89068c0,0 -2.99315,2.58299 -4.31366,1.6923" fill="#8d674a"/><g><path d="M412.21587,110.93633c-0.5282,12.15784 -12.10465,16.70033 -12.10465,16.70033c-6.20638,12.64772 -41.19983,12.60319 -51.10363,4.58703c-8.8474,-7.17001 -11.22431,-21.82177 0.61624,-31.6193c11.84055,-9.79753 20.5559,-2.67205 27.77467,-5.38864c4.97391,-1.87044 15.40592,-6.05665 23.32896,-3.56274" fill="#8d674a"/><path d="M411.46758,116.63671c-0.04402,0.48988 -0.08803,1.20242 -0.22008,1.87044c-0.08803,0.35627 -0.17607,0.66801 -0.2641,0.97975c-0.04402,0.17814 -0.13205,0.31174 -0.17607,0.44534c-0.04402,0.1336 -0.08803,0.26721 -0.17607,0.35627c-0.08803,0.1336 -0.13205,0.22267 -0.22008,0.31174c-0.04402,0.08907 -0.13205,0.17814 -0.17607,0.22267c-0.08803,0.08907 -0.17607,0.1336 -0.17607,0.1336c0,0 0.04402,-0.04453 0.13205,-0.17814c0.04402,-0.04453 0.08803,-0.1336 0.13205,-0.22267c0.04402,-0.08907 0.08803,-0.17814 0.13205,-0.31174c0.04402,-0.1336 0.08803,-0.26721 0.13205,-0.40081c0.04402,-0.1336 0.08803,-0.31174 0.13205,-0.44534c0.08803,-0.31174 0.17607,-0.66801 0.22008,-0.97975c0.13205,-0.66801 0.22008,-1.33603 0.30812,-1.8259c0.08803,-0.48988 0.13205,-0.84615 0.13205,-0.84615c0,0 0.04402,0.35627 0.08803,0.89068z" fill="#59402f"/><path d="M409.75092,120.86746c-0.04402,0.26721 -0.13205,0.62348 -0.2641,0.97975c-0.13205,0.35627 -0.30812,0.71255 -0.48419,1.06882c-0.13205,0.1336 -0.22008,0.31174 -0.35214,0.48988c-0.13205,0.1336 -0.2641,0.31174 -0.39615,0.44534c-0.13205,0.1336 -0.2641,0.26721 -0.39615,0.35627c-0.13205,0.08907 -0.2641,0.17814 -0.39615,0.26721c-0.13205,0.08907 -0.2641,0.17814 -0.35214,0.22267c-0.13205,0.04453 -0.22008,0.08907 -0.30812,0.1336c-0.17607,0.04453 -0.2641,0.08907 -0.2641,0.08907c0,0 0.08803,-0.04453 0.22008,-0.1336c0.08803,-0.04453 0.17607,-0.1336 0.2641,-0.17814c0.08803,-0.08907 0.17607,-0.17814 0.30812,-0.26721c0.13205,-0.08907 0.22008,-0.22267 0.35214,-0.31174c0.13205,-0.1336 0.22008,-0.26721 0.35214,-0.40081c0.13205,-0.1336 0.22008,-0.31174 0.35214,-0.44534c0.13205,-0.1336 0.22008,-0.31174 0.30812,-0.48988c0.08803,-0.1336 0.17607,-0.31174 0.2641,-0.48988c0.04402,-0.17814 0.17607,-0.35627 0.22008,-0.53441c0.13205,-0.31174 0.2641,-0.66801 0.35214,-0.93522c0.17607,-0.53441 0.2641,-0.93522 0.2641,-0.93522c0,0 0,0.40081 -0.04402,1.06882z" fill="#59402f"/><path d="M406.22957,124.29659c-0.17607,0.1336 -0.39615,0.31174 -0.61624,0.48988c-0.22008,0.22267 -0.44017,0.40081 -0.66025,0.62348c-0.22008,0.22267 -0.44017,0.44534 -0.61624,0.66801c-0.08803,0.08907 -0.17607,0.22267 -0.2641,0.31174c-0.08803,0.1336 -0.17607,0.22267 -0.22008,0.31174c-0.04402,0.08907 -0.08803,0.17814 -0.13205,0.26721c-0.04402,0.08907 -0.04402,0.17814 -0.08803,0.22267c-0.04402,0.08907 -0.08803,0.17814 -0.08803,0.17814c0,0 0,-0.08907 0.04402,-0.22267c0,-0.04453 0,-0.1336 0.04402,-0.22267c0,-0.08907 0.04402,-0.17814 0.08803,-0.31174c0.08803,-0.22267 0.22008,-0.48988 0.39615,-0.71255c0.17607,-0.26721 0.39615,-0.48988 0.61624,-0.71255c0.22008,-0.22267 0.48419,-0.40081 0.70427,-0.57894c0.22008,-0.17814 0.44017,-0.31174 0.66025,-0.44534c0.39615,-0.26721 0.70427,-0.35627 0.70427,-0.35627c0,0 -0.22008,0.17814 -0.57222,0.48988z" fill="#59402f"/><path d="M402.48813,127.01318c-0.22008,0.1336 -0.39615,0.31174 -0.66025,0.48988c-0.22008,0.17814 -0.5282,0.35627 -0.7923,0.48988c-0.30812,0.1336 -0.57222,0.26721 -0.88034,0.35627c-0.2641,0.08907 -0.57222,0.1336 -0.7923,0.1336c-0.08803,0 -0.22008,0 -0.30812,0c-0.13205,0 -0.17607,-0.04453 -0.2641,-0.04453c-0.13205,-0.04453 -0.22008,-0.04453 -0.22008,-0.04453c0,0 0.08803,0 0.22008,0c0.08803,0 0.17607,0 0.2641,0c0.08803,0 0.17607,-0.04453 0.30812,-0.04453c0.08803,-0.04453 0.22008,-0.04453 0.35214,-0.08907c0.13205,-0.04453 0.2641,-0.08907 0.39615,-0.1336c0.2641,-0.08907 0.57222,-0.22267 0.83632,-0.35627c0.2641,-0.1336 0.5282,-0.31174 0.7923,-0.44534c0.22008,-0.1336 0.44017,-0.26721 0.66025,-0.40081c0.39615,-0.26721 0.66025,-0.44534 0.66025,-0.44534c0,0 -0.22008,0.22267 -0.57222,0.53441z" fill="#59402f"/><path d="M391.13177,91.2522c-0.57222,0.1336 -1.40854,0.31174 -2.42093,0.53441c-1.01239,0.22267 -2.15683,0.48988 -3.3893,0.84615c-0.61624,0.17814 -1.23247,0.35627 -1.89273,0.53441c-0.66025,0.22267 -1.32051,0.40081 -1.93674,0.62348c-1.27649,0.44534 -2.50896,1.02429 -3.74144,1.4251c-0.61624,0.22267 -1.23247,0.35627 -1.80469,0.48988c-0.57222,0.08907 -1.10042,0.17814 -1.62863,0.22267c-0.5282,0.04453 -1.01239,0.04453 -1.40854,0.04453c-0.44017,0 -0.7923,0 -1.10042,-0.04453c-0.57222,-0.04453 -0.92436,-0.08907 -0.92436,-0.08907c0,0 0.30812,0 0.92436,0.04453c0.2641,0 0.66025,0 1.05641,0c0.44017,0 0.88034,-0.04453 1.40854,-0.08907c0.5282,-0.04453 1.05641,-0.1336 1.62863,-0.26721c0.57222,-0.1336 1.14444,-0.31174 1.76068,-0.53441c1.18846,-0.40081 2.46495,-0.97975 3.74144,-1.46963c0.61624,-0.22267 1.27649,-0.44534 1.93674,-0.62348c0.61624,-0.17814 1.27649,-0.35627 1.89273,-0.53441c1.23247,-0.35627 2.42093,-0.62348 3.43332,-0.80162c2.02478,-0.40081 3.3893,-0.48988 3.3893,-0.48988c0,0 -0.30812,0.08907 -0.92436,0.17814z" fill="#59402f"/><path d="M358.1631,96.06189c-0.88034,0.31174 -2.11281,0.80162 -3.56537,1.51416c-1.40854,0.71255 -3.03717,1.64777 -4.62178,2.89472c-1.58461,1.24696 -3.1252,2.76112 -4.31366,4.54249c-0.61624,0.89068 -1.14444,1.8259 -1.58461,2.80566c-0.48419,0.93522 -0.88034,1.91497 -1.23247,2.85019c-0.35214,0.97975 -0.66025,1.91497 -0.83632,2.80566c-0.17607,0.89068 -0.2641,1.78137 -0.30812,2.58299c-0.04402,1.64777 0.17607,2.98379 0.30812,3.91901c0.13205,0.93522 0.22008,1.46963 0.22008,1.46963c0,0 -0.08803,-0.53441 -0.2641,-1.46963c-0.17607,-0.93522 -0.44017,-2.27125 -0.44017,-3.91901c0,-0.80162 0.08803,-1.6923 0.2641,-2.62752c0.17607,-0.93522 0.44017,-1.87044 0.7923,-2.85019c0.35214,-0.93522 0.7923,-1.91497 1.23247,-2.89472c0.44017,-0.97975 0.96837,-1.95951 1.58461,-2.85019c1.23247,-1.8259 2.77307,-3.34007 4.40169,-4.58703c1.58461,-1.24696 3.25725,-2.13764 4.70981,-2.85019c1.45256,-0.71255 2.72905,-1.15789 3.60939,-1.4251c0.88034,-0.26721 1.40854,-0.40081 1.40854,-0.40081c0,0 -0.5282,0.1336 -1.36452,0.48988z" fill="#59402f"/><path d="M396.06166,132.17915c-1.14444,0.75708 -2.81708,1.73683 -4.92989,2.62752c-2.11281,0.93522 -4.70981,1.73683 -7.52689,2.31578c-2.81708,0.57894 -5.89827,0.84615 -8.97945,0.89068c-1.54059,0 -3.08118,-0.04453 -4.57776,-0.17814c-1.49658,-0.08907 -2.94913,-0.22267 -4.40169,-0.35627c-0.70427,-0.08907 -1.40854,-0.17814 -2.11281,-0.26721c-0.70427,-0.08907 -1.36452,-0.22267 -2.02478,-0.31174c-1.32051,-0.22267 -2.55298,-0.44534 -3.6534,-0.71255c-1.14444,-0.26721 -2.15683,-0.53441 -3.03717,-0.84615c-0.44017,-0.1336 -0.83632,-0.31174 -1.23247,-0.44534c-0.35214,-0.17814 -0.70427,-0.31174 -1.01239,-0.44534c-0.61624,-0.26721 -1.05641,-0.57894 -1.36452,-0.75708c-0.30812,-0.22267 -0.44017,-0.35627 -0.44017,-0.35627c0,0 0.13205,0.1336 0.44017,0.31174c0.30812,0.17814 0.74829,0.44534 1.36452,0.71255c0.30812,0.1336 0.66025,0.26721 1.01239,0.40081c0.39615,0.1336 0.7923,0.26721 1.23247,0.40081c0.88034,0.26721 1.93674,0.53441 3.03717,0.80162c1.14444,0.22267 2.3329,0.48988 3.6534,0.66801c0.66025,0.08907 1.32051,0.17814 2.02478,0.26721c0.70427,0.04453 1.40854,0.1336 2.11281,0.22267c1.40854,0.1336 2.90512,0.26721 4.40169,0.35627c1.54059,0.08907 3.03717,0.1336 4.57776,0.1336c3.08118,0 6.11835,-0.26721 8.93543,-0.84615c2.81708,-0.53441 5.41408,-1.29149 7.52689,-2.18218c2.11281,-0.84615 3.78545,-1.78137 4.92989,-2.49392c1.14444,-0.71255 1.71666,-1.20242 1.71666,-1.20242c0,0 -0.57222,0.53441 -1.67264,1.29149z" fill="#59402f"/></g></g><g stroke-width="1"><g fill="#8d674a"><path d="M395.35739,123.0051c-1.32051,9.39672 -3.82947,11.80157 -4.13759,14.47362c-0.30812,2.67205 0,12.69225 0.57222,13.89468c0.57222,1.20242 2.37691,2.09311 2.64101,3.42914c0.2641,1.33603 -9.72774,0.75708 -10.91619,0c-1.18846,-0.75708 -7.52689,-17.63555 -7.08672,-27.21041c2.06879,-19.37239 20.24778,-13.98375 18.92727,-4.58703z"/><path d="M376.87029,132.98077c-1.84871,-1.38056 -0.66025,-4.14168 -0.66025,-4.14168l-1.05641,1.38056c-0.2641,-1.78137 1.18846,-4.54249 1.18846,-4.54249l-1.18846,0.48988c0.2641,-1.87044 2.02478,-2.76112 2.02478,-2.76112c-0.70427,0.66801 -1.67264,0 -1.67264,0c1.01239,0 3.91751,-4.45342 3.91751,-4.45342"/></g><path d="M375.76986,123.31684c0.13205,-0.04453 0.2641,-0.17814 0.44017,-0.35627c0.35214,-0.35627 0.74829,-0.80162 1.14444,-1.29149c0.39615,-0.48988 0.7923,-0.97975 1.10042,-1.33603c0.30812,-0.35627 0.5282,-0.57894 0.5282,-0.57894c0,0 -0.17607,0.26721 -0.39615,0.66801c-0.13205,0.17814 -0.2641,0.44534 -0.44017,0.66801c-0.17607,0.26721 -0.35214,0.53441 -0.57222,0.75708c-0.39615,0.48988 -0.83632,0.93522 -1.23247,1.20242c-0.17607,0.1336 -0.35214,0.22267 -0.48419,0.26721c-0.13205,0.04453 -0.22008,0.04453 -0.22008,0.04453c0,0 0.04402,0 0.13205,-0.04453z" fill="#59402f"/><path d="M375.19764,125.54355c0.04402,-0.17814 0.08803,-0.31174 0.13205,-0.48988c0.08803,-0.1336 0.17607,-0.31174 0.2641,-0.48988c0.08803,-0.17814 0.22008,-0.31174 0.35214,-0.44534c0.13205,-0.1336 0.2641,-0.22267 0.39615,-0.31174c0.13205,-0.04453 0.22008,-0.08907 0.30812,-0.1336c0.08803,-0.04453 0.13205,-0.04453 0.13205,-0.04453c0,0 -0.04402,0.04453 -0.08803,0.08907c-0.04402,0.04453 -0.13205,0.1336 -0.22008,0.22267c-0.08803,0.08907 -0.22008,0.22267 -0.30812,0.35627c-0.13205,0.1336 -0.22008,0.31174 -0.30812,0.44534c-0.17607,0.31174 -0.30812,0.62348 -0.44017,0.89068c-0.08803,0.26721 -0.17607,0.44534 -0.17607,0.44534c0,0 -0.04402,-0.17814 -0.04402,-0.53441z" fill="#59402f"/><path d="M375.15363,129.86336c-0.04402,-0.1336 -0.08803,-0.31174 -0.08803,-0.53441c0,-0.22267 0,-0.48988 0.04402,-0.75708c0.04402,-0.26721 0.08803,-0.57894 0.17607,-0.84615c0.08803,-0.26721 0.17607,-0.57894 0.30812,-0.80162c0.13205,-0.26721 0.2641,-0.48988 0.35214,-0.66801c0.08803,-0.17814 0.17607,-0.35627 0.2641,-0.44534c0.08803,-0.1336 0.13205,-0.17814 0.13205,-0.17814c0,0 0,0.04453 -0.04402,0.17814c-0.04402,0.1336 -0.08803,0.31174 -0.17607,0.48988c-0.08803,0.17814 -0.17607,0.40081 -0.2641,0.66801c-0.08803,0.26721 -0.17607,0.53441 -0.2641,0.80162c-0.08803,0.26721 -0.17607,0.53441 -0.22008,0.80162c-0.08803,0.26721 -0.13205,0.48988 -0.13205,0.71255c-0.04402,0.44534 0,0.71255 0,0.71255c0,0 -0.04402,-0.08907 -0.08803,-0.1336z" fill="#59402f"/><path d="M384.00103,154.98068c-0.22008,-0.04453 -0.48419,-0.1336 -0.70427,-0.44534c-0.22008,-0.26721 -0.48419,-0.62348 -0.70427,-1.06882c-0.2641,-0.44534 -0.44017,-0.97975 -0.66025,-1.5587c-0.44017,-1.15789 -0.96837,-2.49392 -1.49658,-3.91901c-0.5282,-1.4251 -1.10042,-2.98379 -1.58461,-4.54249c-0.22008,-0.80162 -0.44017,-1.5587 -0.66025,-2.36031c-0.13205,-0.40081 -0.22008,-0.75708 -0.30812,-1.15789c-0.08803,-0.40081 -0.17607,-0.75708 -0.2641,-1.15789c-0.13205,-0.75708 -0.2641,-1.46963 -0.35214,-2.18218c-0.08803,-0.66801 -0.17607,-1.33603 -0.2641,-1.95951c-0.17607,-1.24696 -0.2641,-2.27125 -0.30812,-2.98379c-0.04402,-0.71255 -0.04402,-1.11336 -0.04402,-1.11336c0,0 0,0.40081 0.08803,1.11336c0.08803,0.71255 0.22008,1.73683 0.39615,2.93926c0.08803,0.62348 0.22008,1.24696 0.30812,1.95951c0.04402,0.35627 0.08803,0.71255 0.17607,1.06882c0.08803,0.35627 0.13205,0.75708 0.22008,1.11336c0.08803,0.40081 0.17607,0.75708 0.2641,1.15789c0.08803,0.40081 0.22008,0.75708 0.30812,1.15789c0.22008,0.80162 0.44017,1.5587 0.70427,2.36031c0.48419,1.5587 1.01239,3.1174 1.54059,4.54249c0.5282,1.46963 1.01239,2.80566 1.45256,3.96355c0.17607,0.57894 0.35214,1.11336 0.57222,1.5587c0.22008,0.44534 0.44017,0.84615 0.66025,1.11336c0.17607,0.31174 0.48419,0.40081 0.66025,0.44534c0.22008,0.04453 0.30812,0.04453 0.30812,0.04453c0,0 -0.08803,0.04453 -0.30812,-0.08907z" fill="#59402f"/><path d="M376.51815,132.71356c-0.08803,-0.08907 -0.22008,-0.17814 -0.35214,-0.35627c-0.04402,-0.04453 -0.13205,-0.17814 -0.17607,-0.26721c-0.04402,-0.1336 -0.08803,-0.22267 -0.13205,-0.35627c-0.08803,-0.26721 -0.13205,-0.53441 -0.13205,-0.80162c0,-0.1336 0,-0.26721 0,-0.40081c0,-0.1336 0.04402,-0.26721 0.04402,-0.40081c0,-0.26721 0.08803,-0.48988 0.13205,-0.66801c0.08803,-0.17814 0.13205,-0.35627 0.17607,-0.44534c0.04402,-0.1336 0.08803,-0.17814 0.08803,-0.17814c0,0 0,0.04453 0,0.17814c0,0.1336 -0.04402,0.31174 -0.04402,0.48988c0,0.22267 -0.04402,0.44534 -0.04402,0.66801c0,0.08907 0,0.22267 0,0.35627c0,0.1336 0,0.26721 0,0.40081c0,0.26721 0.04402,0.53441 0.08803,0.75708c0.04402,0.26721 0.13205,0.44534 0.22008,0.62348c0.17607,0.35627 0.39615,0.53441 0.39615,0.53441c0,0 -0.04402,-0.04453 -0.2641,-0.1336z" fill="#59402f"/><path d="M391.26382,155.15881c-0.13205,-0.1336 -0.2641,-0.35627 -0.39615,-0.57894c-0.13205,-0.22267 -0.2641,-0.40081 -0.39615,-0.57894c-0.04402,-0.04453 -0.08803,-0.1336 -0.13205,-0.17814c-0.04402,-0.04453 -0.04402,-0.08907 -0.04402,-0.08907c0,0 0.13205,0.04453 0.30812,0.17814c0.17607,0.08907 0.35214,0.31174 0.5282,0.53441c0.17607,0.22267 0.2641,0.48988 0.30812,0.71255c0,0.22267 0,0.35627 0,0.35627c0,0 -0.04402,-0.1336 -0.17607,-0.35627z" fill="#59402f"/><path d="M393.5527,155.02521c-0.13205,-0.17814 -0.30812,-0.44534 -0.48419,-0.66801c-0.22008,-0.26721 -0.39615,-0.44534 -0.57222,-0.62348c-0.08803,-0.04453 -0.17607,-0.1336 -0.22008,-0.17814c-0.04402,-0.04453 -0.08803,-0.08907 -0.08803,-0.08907c0,0 0,0.04453 0.08803,0.04453c0.04402,0 0.17607,0.04453 0.2641,0.08907c0.13205,0.04453 0.22008,0.1336 0.35214,0.22267c0.13205,0.08907 0.2641,0.17814 0.35214,0.31174c0.22008,0.22267 0.35214,0.53441 0.44017,0.75708c0.08803,0.22267 0.08803,0.40081 0.08803,0.40081c0,0 -0.08803,-0.1336 -0.22008,-0.26721z" fill="#59402f"/><path d="M392.89244,152.75395c-0.17607,-0.08907 -0.39615,-0.26721 -0.61624,-0.53441c-0.2641,-0.26721 -0.48419,-0.66801 -0.66025,-1.11336c-0.08803,-0.22267 -0.17607,-0.48988 -0.22008,-0.75708c-0.04402,-0.31174 -0.08803,-0.57894 -0.08803,-0.89068c-0.08803,-1.20242 -0.2641,-2.58299 -0.35214,-4.09715c-0.13205,-1.51416 -0.22008,-3.16193 -0.17607,-4.76516c0,-0.80162 0.04402,-1.60323 0.17607,-2.40485c0.08803,-0.80162 0.30812,-1.5587 0.5282,-2.27125c0.44017,-1.46963 1.01239,-2.76112 1.45256,-3.87448c0.2641,-0.53441 0.44017,-1.06882 0.61624,-1.51416c0.17607,-0.44534 0.30812,-0.84615 0.39615,-1.20242c0.08803,-0.35627 0.17607,-0.62348 0.22008,-0.80162c0.04402,-0.17814 0.08803,-0.26721 0.08803,-0.26721c0,0 0,0.08907 -0.04402,0.26721c-0.04402,0.17814 -0.08803,0.44534 -0.17607,0.80162c-0.17607,0.71255 -0.44017,1.6923 -0.88034,2.80566c-0.39615,1.11336 -0.92436,2.44938 -1.36452,3.87448c-0.22008,0.71255 -0.44017,1.46963 -0.5282,2.22671c-0.13205,0.75708 -0.13205,1.5587 -0.17607,2.36031c-0.04402,1.60323 0.04402,3.20646 0.13205,4.72063c0.08803,1.51416 0.22008,2.93926 0.2641,4.14168c0,0.62348 0.04402,1.15789 0.22008,1.60323c0.13205,0.48988 0.35214,0.84615 0.57222,1.11336c0.22008,0.26721 0.44017,0.44534 0.57222,0.57894c0.13205,0.1336 0.22008,0.17814 0.22008,0.17814c0,0 -0.08803,-0.04453 -0.17607,-0.17814z" fill="#59402f"/><path d="M390.29544,155.42602c-0.22008,-0.26721 -0.5282,-0.75708 -0.04402,-0.75708c0.48419,0 0.83632,1.11336 0.83632,1.38056c0,0.17814 -0.57222,-0.31174 -0.7923,-0.62348z" fill="#6c5f57"/><path d="M392.54031,155.24788c-0.22008,-0.26721 -0.5282,-0.75708 -0.04402,-0.75708c0.48419,0 0.83632,1.11336 0.83632,1.38056c0,0.17814 -0.5282,-0.31174 -0.7923,-0.62348z" fill="#6c5f57"/><path d="M393.94885,154.89161c-0.22008,-0.26721 -0.5282,-0.75708 -0.04402,-0.75708c0.48419,0 0.83632,1.11336 0.83632,1.38056c0,0.1336 -0.5282,-0.31174 -0.7923,-0.62348z" fill="#6c5f57"/></g><g stroke-width="1"><path d="M364.54555,121.62454c0,0 -0.35214,10.1538 -7.70296,19.37239c-1.32051,1.64777 -2.20085,3.34007 -2.94913,4.72063c-1.49658,2.80566 -2.11281,4.72063 -1.84871,5.38864c0.48419,1.20242 2.90512,2.44938 2.24486,3.02833c-0.70427,0.57894 -8.75937,0.35627 -10.47603,-0.75708c-0.70427,-0.44534 -1.27649,-12.55865 0,-17.68009c1.27649,-5.12144 2.28888,-6.7692 2.42093,-10.59915c0.13205,-3.82994 -1.36452,-10.59915 0.35214,-13.4048c1.71666,-2.80566 6.33844,-7.08094 12.67687,-3.60727c6.33844,3.5182 5.76622,10.95542 5.28203,13.5384z" fill="#8d674a"/><path d="M350.76826,153.91185c-0.13205,-0.1336 -0.2641,-0.35627 -0.39615,-0.57894c-0.13205,-0.22267 -0.2641,-0.40081 -0.39615,-0.57894c-0.04402,-0.04453 -0.08803,-0.1336 -0.13205,-0.17814c-0.04402,-0.04453 -0.04402,-0.08907 -0.04402,-0.08907c0,0 0.13205,0.04453 0.30812,0.17814c0.17607,0.08907 0.35214,0.31174 0.5282,0.53441c0.17607,0.22267 0.2641,0.48988 0.30812,0.71255c0,0.22267 0,0.35627 0,0.35627c0,0 -0.04402,-0.08907 -0.17607,-0.35627z" fill="#59402f"/><path d="M353.05714,154.00092c-0.13205,-0.17814 -0.30812,-0.44534 -0.48419,-0.66801c-0.22008,-0.26721 -0.39615,-0.44534 -0.57222,-0.62348c-0.08803,-0.04453 -0.17607,-0.1336 -0.22008,-0.17814c-0.04402,-0.04453 -0.08803,-0.08907 -0.08803,-0.08907c0,0 0,0.04453 0.08803,0.04453c0.04402,0 0.17607,0.04453 0.2641,0.08907c0.13205,0.04453 0.22008,0.1336 0.35214,0.22267c0.13205,0.08907 0.2641,0.17814 0.35214,0.31174c0.22008,0.22267 0.35214,0.53441 0.44017,0.75708c0.08803,0.22267 0.08803,0.40081 0.08803,0.40081c0,0 -0.08803,-0.1336 -0.22008,-0.26721z" fill="#59402f"/><path d="M349.75587,154.22359c-0.22008,-0.26721 -0.5282,-0.75708 -0.04402,-0.75708c0.48419,0 0.83632,1.11336 0.83632,1.38056c0,0.17814 -0.5282,-0.31174 -0.7923,-0.62348z" fill="#6c5f57"/><path d="M352.04475,154.04546c-0.22008,-0.26721 -0.5282,-0.75708 -0.04402,-0.75708c0.48419,0 0.83632,1.11336 0.83632,1.38056c0,0.1336 -0.57222,-0.31174 -0.7923,-0.62348z" fill="#6c5f57"/><path d="M353.45329,153.95639c-0.22008,-0.26721 -0.5282,-0.75708 -0.04402,-0.75708c0.48419,0 0.83632,1.11336 0.83632,1.38056c0,0.1336 -0.5282,-0.31174 -0.7923,-0.62348z" fill="#6c5f57"/><g><path d="M343.72555,140.32891c-1.84871,-1.38056 -0.66025,-4.14168 -0.66025,-4.14168l-1.05641,1.38056c-0.2641,-1.78137 1.18846,-4.54249 1.18846,-4.54249l-1.18846,0.48988c0.2641,-1.87044 2.02478,-2.76112 2.02478,-2.76112c-0.70427,0.66801 -1.67264,0 -1.67264,0c1.01239,0 3.91751,-4.45342 3.91751,-4.45342" fill="#8d674a"/><path d="M342.62513,130.70952c0.13205,-0.04453 0.2641,-0.17814 0.44017,-0.35627c0.35214,-0.35627 0.74829,-0.80162 1.14444,-1.29149c0.39615,-0.48988 0.7923,-0.97975 1.10042,-1.33603c0.30812,-0.35627 0.5282,-0.57894 0.5282,-0.57894c0,0 -0.17607,0.26721 -0.39615,0.66801c-0.13205,0.17814 -0.2641,0.44534 -0.44017,0.66801c-0.17607,0.26721 -0.35214,0.53441 -0.57222,0.75708c-0.39615,0.48988 -0.83632,0.93522 -1.23247,1.20242c-0.17607,0.1336 -0.35214,0.22267 -0.48419,0.26721c-0.13205,0.04453 -0.22008,0.04453 -0.22008,0.04453c0,0 0.04402,-0.04453 0.13205,-0.04453z" fill="#59402f"/><path d="M342.05291,132.93623c0.04402,-0.17814 0.08803,-0.31174 0.13205,-0.48988c0.08803,-0.1336 0.17607,-0.31174 0.2641,-0.48988c0.08803,-0.17814 0.22008,-0.31174 0.35214,-0.44534c0.13205,-0.1336 0.2641,-0.22267 0.39615,-0.31174c0.13205,-0.04453 0.22008,-0.08907 0.30812,-0.1336c0.08803,-0.04453 0.13205,-0.04453 0.13205,-0.04453c0,0 -0.04402,0.04453 -0.08803,0.08907c-0.04402,0.04453 -0.13205,0.1336 -0.22008,0.22267c-0.08803,0.08907 -0.22008,0.22267 -0.30812,0.35627c-0.13205,0.1336 -0.22008,0.31174 -0.30812,0.44534c-0.17607,0.31174 -0.30812,0.62348 -0.44017,0.89068c-0.08803,0.26721 -0.17607,0.44534 -0.17607,0.44534c0,0 -0.04402,-0.17814 -0.04402,-0.53441z" fill="#59402f"/><path d="M342.00889,137.21152c-0.04402,-0.1336 -0.08803,-0.31174 -0.08803,-0.53441c0,-0.22267 0,-0.48988 0.04402,-0.75708c0.04402,-0.26721 0.08803,-0.57894 0.17607,-0.84615c0.08803,-0.26721 0.17607,-0.57894 0.30812,-0.80162c0.13205,-0.26721 0.2641,-0.48988 0.35214,-0.66801c0.08803,-0.17814 0.17607,-0.35627 0.2641,-0.44534c0.08803,-0.1336 0.13205,-0.17814 0.13205,-0.17814c0,0 0,0.04453 -0.04402,0.17814c-0.04402,0.1336 -0.08803,0.31174 -0.17607,0.48988c-0.08803,0.17814 -0.17607,0.40081 -0.2641,0.66801c-0.08803,0.26721 -0.17607,0.53441 -0.2641,0.80162c-0.08803,0.26721 -0.17607,0.53441 -0.22008,0.80162c-0.08803,0.26721 -0.13205,0.48988 -0.13205,0.71255c-0.04402,0.44534 0,0.71255 0,0.71255c0,0 -0.04402,-0.04453 -0.08803,-0.1336z" fill="#59402f"/><path d="M343.15333,139.74997c-0.08803,-0.08907 -0.17607,-0.17814 -0.2641,-0.35627c-0.08803,-0.1336 -0.13205,-0.35627 -0.17607,-0.57894c-0.04402,-0.22267 -0.04402,-0.48988 -0.04402,-0.71255c0,-0.1336 0.04402,-0.22267 0.04402,-0.35627c0,-0.1336 0.04402,-0.26721 0.04402,-0.35627c0,-0.22267 0.08803,-0.40081 0.13205,-0.57894c0.13205,-0.31174 0.22008,-0.53441 0.22008,-0.53441c0,0 0,0.22267 -0.04402,0.57894c0,0.35627 -0.08803,0.80162 -0.08803,1.24696c-0.04402,0.44534 0,0.89068 0.08803,1.20242c0.04402,0.1336 0.08803,0.26721 0.13205,0.35627c0.04402,0.08907 0.08803,0.1336 0.08803,0.1336c0,0 -0.08803,0 -0.13205,-0.04453z" fill="#59402f"/></g><path d="M343.24137,140.1953c0,0.80162 -0.04402,1.73683 -0.04402,2.76112c0,1.02429 0,2.09311 0,3.16193c0,1.06882 0,2.13764 0.04402,3.16193c0.04402,0.97975 0.08803,1.91497 0.22008,2.71659c0.04402,0.40081 0.13205,0.75708 0.22008,1.06882c0.04402,0.08907 0.04402,0.1336 0.08803,0.22267l0.04402,0.08907c0.04402,0 0.08803,0.04453 0.08803,0.04453c0.13205,0.08907 0.2641,0.1336 0.35214,0.17814c0.44017,0.17814 0.70427,0.26721 0.70427,0.26721c0,0 -0.2641,-0.04453 -0.70427,-0.17814c-0.08803,-0.04453 -0.22008,-0.08907 -0.35214,-0.17814c-0.04402,-0.04453 -0.08803,-0.04453 -0.08803,-0.08907l-0.04402,-0.08907c0,-0.08907 -0.04402,-0.1336 -0.08803,-0.22267c-0.13205,-0.31174 -0.22008,-0.66801 -0.30812,-1.06882c-0.13205,-0.80162 -0.2641,-1.73683 -0.30812,-2.76112c-0.04402,-1.02429 -0.08803,-2.09311 -0.08803,-3.16193c0,-1.06882 0,-2.13764 0.04402,-3.16193c0.04402,-1.02429 0.08803,-1.95951 0.13205,-2.76112c0.13205,-1.60323 0.22008,-2.67205 0.22008,-2.67205c0,0 0,1.06882 -0.13205,2.67205z" fill="#59402f"/><path d="M363.84128,127.32492c-0.2641,0.75708 -0.61624,1.87044 -1.10042,3.20646c-0.22008,0.66801 -0.48419,1.38056 -0.7923,2.13764c-0.30812,0.75708 -0.66025,1.51416 -1.01239,2.31578c-0.35214,0.80162 -0.74829,1.64777 -1.27649,2.40485c-0.2641,0.40081 -0.5282,0.75708 -0.83632,1.11336c-0.30812,0.35627 -0.57222,0.71255 -0.83632,1.11336c-1.10042,1.46963 -2.11281,3.07286 -3.03717,4.54249c-0.88034,1.51416 -1.71666,2.89472 -2.28888,4.18622c-0.17607,0.31174 -0.2641,0.62348 -0.35214,0.93522c-0.08803,0.31174 -0.17607,0.62348 -0.22008,0.89068c-0.04402,0.26721 -0.08803,0.53441 0,0.75708c0.08803,0.22267 0.17607,0.40081 0.30812,0.57894c0.2641,0.35627 0.48419,0.57894 0.66025,0.71255c0.17607,0.1336 0.2641,0.22267 0.2641,0.22267c0,0 -0.08803,-0.08907 -0.2641,-0.22267c-0.13205,-0.1336 -0.39615,-0.35627 -0.66025,-0.66801c-0.13205,-0.1336 -0.2641,-0.35627 -0.35214,-0.57894c-0.08803,-0.22267 -0.08803,-0.53441 -0.04402,-0.80162c0.04402,-0.26721 0.13205,-0.57894 0.22008,-0.89068c0.08803,-0.31174 0.17607,-0.66801 0.30812,-0.97975c0.2641,-0.66801 0.57222,-1.33603 0.96837,-2.04857c0.35214,-0.71255 0.7923,-1.4251 1.23247,-2.18218c0.88034,-1.51416 1.89273,-3.07286 2.99315,-4.58703c0.2641,-0.35627 0.5282,-0.75708 0.83632,-1.11336c0.30812,-0.35627 0.57222,-0.71255 0.83632,-1.06882c0.48419,-0.75708 0.88034,-1.60323 1.27649,-2.36031c0.74829,-1.60323 1.36452,-3.1174 1.89273,-4.40889c1.01239,-2.58299 1.62863,-4.36435 1.62863,-4.36435c0,0 -0.13205,0.44534 -0.35214,1.15789z" fill="#59402f"/></g><g stroke-width="1"><g><g fill="#8d674a"><path d="M397.95439,113.74198c-4.79784,-0.40081 -5.194,-2.98379 -5.194,-2.98379l-0.13205,1.38056c-2.72905,-1.95951 -2.72905,-4.85423 -2.72905,-4.85423l-0.5282,1.06882c-1.05641,-2.00404 -0.5282,-4.27529 -0.5282,-4.27529l-0.61624,1.06882c-0.74829,-3.16193 0.30812,-4.09715 0.30812,-4.09715c-0.35214,0.57894 -1.40854,0.66801 -1.40854,0.66801c1.27649,-1.38056 2.3329,-5.25504 2.3329,-5.25504"/><path d="M420.66711,96.4627c0,0 1.05641,3.87448 2.3329,5.25504c0,0 -1.05641,-0.08907 -1.40854,-0.66801c0,0 1.05641,0.93522 0.30812,4.09715l-0.61624,-1.06882c0,0 0.5282,2.27125 -0.5282,4.27529l-0.5282,-1.06882c0,0 0,2.89472 -2.72905,4.85423l-0.13205,-1.38056c0,0 -0.39615,2.58299 -5.194,2.98379"/><path d="M397.33815,113.74198c-4.88588,-1.60323 -12.28072,-8.10523 -6.91066,-20.35214c5.37006,-12.24691 16.81446,-10.68821 22.00846,-8.28337c3.91751,1.78137 7.39484,8.59511 8.49526,12.24691c1.10042,3.65181 0.48419,11.5789 -3.91751,14.60723c-5.01793,3.42914 -14.78968,3.3846 -19.67556,1.78137z"/></g><path d="M404.46889,96.68537c0.08803,-0.04453 0.17607,-0.1336 0.30812,-0.17814c0.13205,-0.04453 0.30812,-0.08907 0.48419,-0.1336c0.17607,-0.04453 0.39615,-0.04453 0.57222,-0.04453c0.39615,0 0.7923,0.08907 1.05641,0.17814c0.2641,0.08907 0.44017,0.17814 0.44017,0.17814c0,0 -0.17607,0 -0.48419,0c-0.2641,-0.04453 -0.66025,-0.04453 -1.01239,-0.04453c-0.39615,0 -0.74829,0.04453 -1.01239,0.08907c-0.13205,0.04453 -0.2641,0.04453 -0.35214,0.08907c-0.08803,0.04453 -0.13205,0.04453 -0.13205,0.04453c0,0 0.04402,-0.04453 0.13205,-0.17814z" fill="#59402f"/><path d="M406.71375,96.06189c-0.22008,0 -0.44017,0 -0.70427,0c-0.2641,0 -0.5282,0 -0.70427,0c-0.08803,0 -0.17607,0 -0.22008,0c-0.04402,0 -0.08803,0 -0.08803,0c0,0 0.13205,-0.08907 0.30812,-0.17814c0.17607,-0.08907 0.44017,-0.1336 0.70427,-0.1336c0.2641,0 0.5282,0.04453 0.70427,0.08907c0.17607,0.04453 0.30812,0.1336 0.30812,0.1336c0,0 -0.17607,0.04453 -0.30812,0.08907z" fill="#59402f"/><path d="M393.28859,103.27644c0,0.57894 0.04402,1.11336 0.08803,1.51416c0,0.17814 0.04402,0.35627 0.04402,0.48988c0,0.08907 0,0.17814 0,0.17814c0,0 -0.04402,-0.04453 -0.08803,-0.17814c-0.04402,-0.1336 -0.13205,-0.26721 -0.17607,-0.48988c-0.04402,-0.08907 -0.08803,-0.17814 -0.08803,-0.31174c0,-0.08907 -0.04402,-0.22267 -0.04402,-0.35627c0,-0.1336 -0.04402,-0.26721 -0.04402,-0.40081c0,-0.1336 0,-0.26721 0,-0.40081c0,-0.53441 0.08803,-1.11336 0.17607,-1.51416c0.08803,-0.40081 0.22008,-0.66801 0.22008,-0.66801c0,0 -0.13205,1.11336 -0.08803,2.13764z" fill="#59402f"/><g fill="#59402f"><path d="M393.94885,105.81489c0.04402,0.1336 0.13205,0.26721 0.13205,0.40081c0,0.1336 0,0.31174 0,0.40081c0,0.08907 -0.04402,0.17814 -0.04402,0.17814c0,0 -0.04402,-0.08907 -0.08803,-0.17814c-0.04402,-0.1336 -0.13205,-0.26721 -0.13205,-0.40081c0,-0.1336 0,-0.31174 0,-0.40081c0,-0.08907 0.04402,-0.17814 0.04402,-0.17814c0,0 0.04402,0.04453 0.08803,0.17814z"/><path d="M394.69714,106.75011c0.04402,0.08907 0.08803,0.22267 0.13205,0.35627c0.04402,0.1336 0.04402,0.26721 0.04402,0.35627c-0.04402,0.08907 -0.04402,0.17814 -0.04402,0.17814c0,0 -0.04402,-0.04453 -0.08803,-0.1336c-0.04402,-0.08907 -0.08803,-0.22267 -0.13205,-0.35627c-0.04402,-0.1336 -0.04402,-0.26721 -0.04402,-0.35627c0.04402,-0.08907 0.04402,-0.17814 0.04402,-0.17814c0,0 0.04402,0.08907 0.08803,0.1336z"/></g><path d="M395.53346,108.1752c0.08803,0.1336 0.17607,0.31174 0.30812,0.48988c0.13205,0.17814 0.2641,0.35627 0.39615,0.53441c0.30812,0.35627 0.61624,0.71255 0.88034,0.93522c0.13205,0.08907 0.22008,0.22267 0.30812,0.26721c0.08803,0.08907 0.13205,0.1336 0.13205,0.1336c0,0 -0.04402,0 -0.13205,-0.04453c-0.08803,-0.04453 -0.2641,-0.1336 -0.39615,-0.22267c-0.13205,-0.08907 -0.30812,-0.22267 -0.48419,-0.35627c-0.17607,-0.17814 -0.35214,-0.35627 -0.48419,-0.53441c-0.30812,-0.35627 -0.5282,-0.80162 -0.66025,-1.15789c-0.13205,-0.35627 -0.13205,-0.57894 -0.13205,-0.57894c0,0 0.08803,0.22267 0.2641,0.53441z" fill="#59402f"/><path d="M416.39747,100.82706c0.13205,0.26721 0.22008,0.62348 0.2641,0.97975c0.04402,0.17814 0.04402,0.35627 0.04402,0.53441c0,0.17814 0,0.35627 -0.04402,0.48988c-0.04402,0.26721 -0.13205,0.44534 -0.13205,0.44534c0,0 0,-0.04453 0,-0.1336c0,-0.04453 -0.04402,-0.17814 -0.04402,-0.31174c0,-0.26721 -0.04402,-0.62348 -0.08803,-0.97975c-0.04402,-0.35627 -0.08803,-0.71255 -0.13205,-0.97975c-0.04402,-0.26721 -0.04402,-0.44534 -0.04402,-0.44534c0,0 0.08803,0.17814 0.17607,0.40081z" fill="#59402f"/><path d="M416.22141,103.63271c0.04402,0.08907 0.08803,0.22267 0.13205,0.35627c0.04402,0.1336 0.04402,0.26721 0.04402,0.35627c-0.04402,0.08907 -0.04402,0.17814 -0.04402,0.17814c0,0 -0.04402,-0.04453 -0.08803,-0.1336c-0.04402,-0.08907 -0.08803,-0.22267 -0.13205,-0.35627c-0.04402,-0.1336 -0.04402,-0.26721 -0.04402,-0.35627c0.04402,-0.08907 0.04402,-0.17814 0.04402,-0.17814c0,0 0.04402,0.04453 0.08803,0.1336z" fill="#59402f"/><path d="M415.9573,105.45862c0.04402,0.17814 0.04402,0.40081 0.04402,0.66801c0,0.26721 -0.04402,0.53441 -0.08803,0.80162c-0.04402,0.26721 -0.13205,0.53441 -0.22008,0.75708c-0.04402,0.08907 -0.13205,0.22267 -0.17607,0.31174c-0.04402,0.08907 -0.13205,0.17814 -0.17607,0.26721c-0.08803,0.1336 -0.22008,0.26721 -0.30812,0.35627c-0.08803,0.08907 -0.13205,0.1336 -0.13205,0.1336c0,0 0.04402,-0.08907 0.08803,-0.17814c0.04402,-0.08907 0.13205,-0.22267 0.22008,-0.40081c0.17607,-0.35627 0.35214,-0.84615 0.44017,-1.33603c0.08803,-0.26721 0.08803,-0.53441 0.13205,-0.75708c0.04402,-0.26721 0.04402,-0.48988 0.04402,-0.66801c0,-0.40081 0,-0.66801 0,-0.66801c0,0 0.08803,0.26721 0.13205,0.71255z" fill="#59402f"/><path d="M392.54031,89.60443c-0.2641,0.31174 -0.57222,0.75708 -0.88034,1.29149c-0.13205,0.31174 -0.30812,0.62348 -0.48419,0.93522c-0.17607,0.35627 -0.30812,0.71255 -0.48419,1.06882c-0.13205,0.35627 -0.30812,0.75708 -0.44017,1.15789c-0.13205,0.40081 -0.2641,0.84615 -0.39615,1.24696c-0.08803,0.40081 -0.22008,0.84615 -0.35214,1.24696c-0.13205,0.40081 -0.2641,0.80162 -0.39615,1.20242c-0.2641,0.80162 -0.5282,1.51416 -0.7923,2.09311c-0.2641,0.57894 -0.5282,1.06882 -0.74829,1.38056c-0.13205,0.1336 -0.22008,0.26721 -0.30812,0.31174c-0.08803,0.08907 -0.13205,0.08907 -0.13205,0.08907c0,0 0.04402,0 0.13205,-0.08907c0.08803,-0.08907 0.17607,-0.17814 0.2641,-0.35627c0.22008,-0.31174 0.44017,-0.80162 0.66025,-1.4251c0.22008,-0.57894 0.44017,-1.33603 0.70427,-2.09311c0.13205,-0.40081 0.22008,-0.80162 0.35214,-1.20242c0.13205,-0.40081 0.22008,-0.84615 0.35214,-1.24696c0.08803,-0.44534 0.2641,-0.84615 0.39615,-1.24696c0.17607,-0.40081 0.30812,-0.80162 0.48419,-1.15789c0.17607,-0.40081 0.35214,-0.75708 0.5282,-1.06882c0.17607,-0.31174 0.35214,-0.62348 0.5282,-0.89068c0.35214,-0.53441 0.70427,-0.97975 0.96837,-1.24696c0.2641,-0.26721 0.44017,-0.40081 0.44017,-0.40081c0,0 -0.13205,0.1336 -0.39615,0.40081z" fill="#59402f"/><path d="M388.27067,101.94041c-0.04402,0.35627 -0.13205,0.84615 -0.13205,1.33603c0,0.22267 0,0.48988 0,0.71255c0,0.22267 0.04402,0.44534 0.04402,0.62348c0,0.17814 0.04402,0.35627 0.04402,0.44534c0,0.1336 0,0.17814 0,0.17814c0,0 0,-0.08907 -0.04402,-0.17814c0,-0.1336 -0.08803,-0.26721 -0.13205,-0.44534c-0.04402,-0.17814 -0.08803,-0.40081 -0.13205,-0.62348c-0.04402,-0.26721 -0.04402,-0.48988 -0.04402,-0.75708c0,-0.26721 0.04402,-0.53441 0.08803,-0.75708c0.04402,-0.22267 0.08803,-0.44534 0.17607,-0.62348c0.17607,-0.35627 0.30812,-0.57894 0.30812,-0.57894c0,0 -0.08803,0.22267 -0.17607,0.66801z" fill="#59402f"/><path d="M388.93092,104.74607c0,0.40081 0.04402,0.89068 0.08803,1.4251c0.04402,0.53441 0.08803,1.06882 0.17607,1.4251c0.04402,0.17814 0.08803,0.35627 0.13205,0.44534c0.04402,0.1336 0.04402,0.17814 0.04402,0.17814c0,0 -0.04402,-0.04453 -0.08803,-0.1336c-0.04402,-0.1336 -0.13205,-0.26721 -0.22008,-0.44534c-0.13205,-0.35627 -0.2641,-0.89068 -0.30812,-1.4251c-0.04402,-0.53441 -0.04402,-1.06882 0,-1.46963c0.08803,-0.40081 0.13205,-0.66801 0.13205,-0.66801c0,0 0.04402,0.26721 0.04402,0.66801z" fill="#59402f"/><path d="M390.25143,108.1752c0.08803,0.26721 0.17607,0.53441 0.30812,0.84615c0.04402,0.1336 0.13205,0.26721 0.17607,0.44534c0.08803,0.17814 0.13205,0.31174 0.22008,0.48988c0.13205,0.31174 0.30812,0.62348 0.48419,0.89068c0.08803,0.08907 0.17607,0.22267 0.2641,0.35627c0.08803,0.08907 0.17607,0.22267 0.2641,0.31174c0.08803,0.08907 0.17607,0.17814 0.2641,0.26721c0.08803,0.08907 0.17607,0.1336 0.22008,0.17814c0.08803,0.08907 0.17607,0.1336 0.17607,0.1336c0,0 -0.08803,-0.04453 -0.22008,-0.08907c-0.08803,-0.04453 -0.17607,-0.08907 -0.2641,-0.1336c-0.08803,-0.08907 -0.22008,-0.1336 -0.30812,-0.22267c-0.08803,-0.08907 -0.17607,-0.22267 -0.30812,-0.31174c-0.08803,-0.08907 -0.22008,-0.22267 -0.30812,-0.35627c-0.13205,-0.1336 -0.22008,-0.31174 -0.30812,-0.44534c-0.08803,-0.17814 -0.17607,-0.31174 -0.2641,-0.48988c-0.17607,-0.31174 -0.30812,-0.66801 -0.39615,-0.97975c-0.08803,-0.31174 -0.17607,-0.62348 -0.22008,-0.89068c-0.08803,-0.53441 -0.08803,-0.89068 -0.08803,-0.89068c0,0 0.08803,0.35627 0.30812,0.89068z" fill="#59402f"/><path d="M416.92568,89.5599c0.2641,0.26721 0.61624,0.71255 1.01239,1.24696c0.22008,0.26721 0.39615,0.57894 0.61624,0.89068c0.22008,0.31174 0.39615,0.66801 0.61624,1.02429c0.17607,0.35627 0.39615,0.75708 0.57222,1.15789c0.17607,0.40081 0.35214,0.84615 0.5282,1.24696c0.35214,0.80162 0.61624,1.64777 0.88034,2.44938c0.2641,0.75708 0.5282,1.51416 0.74829,2.13764c0.22008,0.62348 0.44017,1.11336 0.61624,1.46963c0.08803,0.17814 0.17607,0.26721 0.2641,0.35627c0.08803,0.08907 0.13205,0.08907 0.13205,0.08907c0,0 -0.04402,-0.04453 -0.13205,-0.08907c-0.08803,-0.08907 -0.22008,-0.17814 -0.30812,-0.35627c-0.17607,-0.35627 -0.44017,-0.84615 -0.70427,-1.46963c-0.2641,-0.62348 -0.57222,-1.33603 -0.83632,-2.13764c-0.2641,-0.75708 -0.57222,-1.60323 -0.88034,-2.44938c-0.17607,-0.40081 -0.35214,-0.80162 -0.5282,-1.20242c-0.13205,-0.40081 -0.35214,-0.80162 -0.5282,-1.15789c-0.35214,-0.71255 -0.74829,-1.38056 -1.10042,-1.95951c-0.35214,-0.53441 -0.66025,-0.97975 -0.92436,-1.29149c-0.2641,-0.26721 -0.39615,-0.44534 -0.39615,-0.44534c0,0 0.17607,0.1336 0.35214,0.48988z" fill="#59402f"/><path d="M421.98762,101.80681c0.04402,0.17814 0.13205,0.40081 0.17607,0.62348c0.04402,0.26721 0.08803,0.48988 0.08803,0.75708c0,0.26721 0,0.53441 -0.04402,0.75708c-0.04402,0.22267 -0.08803,0.44534 -0.13205,0.62348c-0.04402,0.17814 -0.08803,0.35627 -0.13205,0.44534c0,0.1336 -0.04402,0.17814 -0.04402,0.17814c0,0 0,-0.08907 0,-0.17814c0,-0.08907 0.04402,-0.26721 0.04402,-0.44534c0,-0.17814 0.04402,-0.40081 0.04402,-0.62348c0,-0.22267 0,-0.48988 0,-0.71255c0,-0.48988 -0.08803,-0.97975 -0.13205,-1.33603c-0.04402,-0.40081 -0.13205,-0.62348 -0.13205,-0.62348c0,0 0.17607,0.17814 0.2641,0.53441z" fill="#59402f"/><path d="M421.4154,104.74607c0.04402,0.40081 0.04402,0.93522 0,1.46963c-0.04402,0.53441 -0.13205,1.06882 -0.30812,1.4251c-0.08803,0.22267 -0.13205,0.35627 -0.22008,0.44534c-0.04402,0.08907 -0.08803,0.1336 -0.08803,0.1336c0,0 0,-0.08907 0.04402,-0.17814c0.04402,-0.08907 0.08803,-0.26721 0.13205,-0.44534c0.08803,-0.40081 0.13205,-0.89068 0.17607,-1.4251c0.04402,-0.53441 0.04402,-1.02429 0.08803,-1.4251c0.04402,-0.40081 0.04402,-0.66801 0.04402,-0.66801c0,0 0.04402,0.26721 0.13205,0.66801z" fill="#59402f"/><path d="M420.18293,108.13067c-0.04402,0.26721 -0.13205,0.57894 -0.22008,0.89068c-0.08803,0.31174 -0.2641,0.66801 -0.39615,0.97975c-0.08803,0.17814 -0.17607,0.35627 -0.2641,0.48988c-0.13205,0.17814 -0.22008,0.31174 -0.30812,0.44534c-0.08803,0.1336 -0.17607,0.26721 -0.30812,0.35627c-0.08803,0.1336 -0.22008,0.22267 -0.30812,0.31174c-0.13205,0.08907 -0.22008,0.17814 -0.30812,0.22267c-0.08803,0.04453 -0.17607,0.08907 -0.2641,0.1336c-0.13205,0.04453 -0.22008,0.08907 -0.22008,0.08907c0,0 0.04402,-0.04453 0.17607,-0.1336c0.08803,-0.04453 0.13205,-0.08907 0.22008,-0.17814c0.08803,-0.08907 0.17607,-0.17814 0.2641,-0.26721c0.08803,-0.08907 0.17607,-0.22267 0.2641,-0.31174c0.08803,-0.08907 0.17607,-0.22267 0.2641,-0.35627c0.17607,-0.26721 0.35214,-0.57894 0.48419,-0.89068c0.08803,-0.17814 0.17607,-0.31174 0.22008,-0.48988c0.04402,-0.1336 0.13205,-0.31174 0.17607,-0.44534c0.13205,-0.31174 0.22008,-0.57894 0.30812,-0.84615c0.17607,-0.48988 0.2641,-0.84615 0.2641,-0.84615c0,0 0,0.35627 -0.04402,0.84615z" fill="#59402f"/><path d="M415.6932,112.94037c-0.35214,0.22267 -0.74829,0.44534 -1.23247,0.62348c-0.48419,0.17814 -0.96837,0.40081 -1.49658,0.53441c-0.2641,0.08907 -0.5282,0.1336 -0.7923,0.17814c-0.2641,0.04453 -0.5282,0.08907 -0.7923,0.1336c-0.2641,0.04453 -0.5282,0.04453 -0.74829,0.08907c-0.22008,0.04453 -0.44017,0.04453 -0.66025,0.04453c-0.39615,0 -0.74829,-0.04453 -0.96837,-0.04453c-0.22008,-0.04453 -0.35214,-0.04453 -0.35214,-0.04453c0,0 0.13205,-0.04453 0.35214,-0.04453c0.13205,-0.04453 0.2641,-0.04453 0.44017,-0.04453c0.13205,0 0.30812,-0.04453 0.5282,-0.04453c0.22008,-0.04453 0.44017,-0.04453 0.66025,-0.08907c0.22008,-0.04453 0.44017,-0.08907 0.70427,-0.1336c0.22008,-0.04453 0.48419,-0.04453 0.74829,-0.1336c0.22008,-0.08907 0.48419,-0.1336 0.74829,-0.22267c0.5282,-0.1336 1.01239,-0.31174 1.49658,-0.48988c0.48419,-0.17814 0.92436,-0.35627 1.27649,-0.53441c0.70427,-0.35627 1.18846,-0.62348 1.18846,-0.62348c0,0 -0.39615,0.35627 -1.10042,0.84615z" fill="#59402f"/><path d="M410.89536,84.483c-0.35214,-0.1336 -0.88034,-0.26721 -1.49658,-0.40081c-0.30812,-0.04453 -0.66025,-0.1336 -1.01239,-0.17814c-0.35214,-0.08907 -0.74829,-0.1336 -1.14444,-0.17814c-0.39615,-0.04453 -0.83632,-0.08907 -1.23247,-0.1336c-0.44017,-0.04453 -0.83632,-0.04453 -1.27649,-0.04453h-0.61624c-0.17607,0 -0.39615,0.04453 -0.61624,0.04453c-0.22008,0 -0.39615,0.04453 -0.61624,0.04453c-0.22008,0.04453 -0.44017,0.04453 -0.61624,0.08907c-0.17607,0.04453 -0.39615,0.04453 -0.57222,0.08907c-0.22008,0.04453 -0.39615,0.08907 -0.57222,0.1336c-0.17607,0 -0.35214,0.04453 -0.5282,0.08907c-0.17607,0.04453 -0.35214,0.08907 -0.48419,0.1336c-0.30812,0.08907 -0.57222,0.17814 -0.83632,0.26721c-0.22008,0.08907 -0.44017,0.1336 -0.61624,0.22267c-0.35214,0.1336 -0.57222,0.22267 -0.57222,0.22267c0,0 0.17607,-0.08907 0.5282,-0.26721c0.17607,-0.08907 0.39615,-0.17814 0.61624,-0.31174c0.2641,-0.08907 0.5282,-0.22267 0.83632,-0.31174c0.17607,-0.08907 0.30812,-0.1336 0.48419,-0.17814c0.17607,-0.04453 0.35214,-0.08907 0.5282,-0.1336c0.22008,-0.04453 0.39615,-0.08907 0.57222,-0.1336c0.17607,-0.04453 0.35214,-0.04453 0.57222,-0.08907c0.22008,-0.04453 0.39615,-0.04453 0.61624,-0.08907c0.17607,0 0.39615,-0.04453 0.61624,-0.04453c0.22008,0 0.44017,-0.04453 0.66025,-0.04453h0.66025c0.44017,0 0.83632,0.04453 1.27649,0.04453c0.39615,0.04453 0.83632,0.08907 1.23247,0.1336c0.39615,0.08907 0.7923,0.1336 1.14444,0.22267c0.35214,0.08907 0.70427,0.17814 1.01239,0.26721c0.66025,0.17814 1.14444,0.35627 1.49658,0.48988c0.35214,0.1336 0.5282,0.22267 0.5282,0.22267c0,0 -0.17607,-0.08907 -0.57222,-0.17814z" fill="#59402f"/></g><path d="M399.89113,98.28861c-0.38896,0 -0.70427,-0.49847 -0.70427,-1.11336c0,-0.61489 0.31531,-1.11336 0.70427,-1.11336c0.38896,0 0.70427,0.49847 0.70427,1.11336c0,0.61489 -0.31531,1.11336 -0.70427,1.11336z" fill="#332010"/><path d="M410.54322,98.28861c-0.38896,0 -0.70427,-0.49847 -0.70427,-1.11336c0,-0.61489 0.31531,-1.11336 0.70427,-1.11336c0.38896,0 0.70427,0.49847 0.70427,1.11336c0,0.61489 -0.31531,1.11336 -0.70427,1.11336z" fill="#332010"/><g><path d="M409.61887,110.35738c0,0 -2.68503,3.3846 -5.41408,0.1336c0,0 -2.81708,-0.40081 -2.81708,-3.1174c0,-2.71659 1.40854,-10.1538 4.88588,-10.0202c2.20085,0.08907 5.41408,5.96759 5.41408,9.48579c0,3.5182 -2.06879,3.5182 -2.06879,3.5182z" fill="#9e7b5c"/><path d="M407.02187,107.55172c0,0.22267 0.04402,0.53441 0.04402,0.84615c0,0.31174 0,0.62348 -0.04402,0.84615c-0.04402,0.26721 -0.08803,0.40081 -0.08803,0.40081c0,0 -0.04402,-0.17814 -0.08803,-0.40081c0,-0.22267 -0.04402,-0.53441 -0.04402,-0.84615c0,-0.31174 0,-0.62348 0.04402,-0.84615c0.04402,-0.26721 0.08803,-0.40081 0.08803,-0.40081c0,0 0.04402,0.1336 0.08803,0.40081z" fill="#59402f"/><path d="M408.16631,109.77844c-0.35214,-0.04453 -0.83632,-0.08907 -1.32051,-0.08907c-0.48419,0 -0.96837,0.04453 -1.32051,0.08907c-0.17607,0.04453 -0.35214,0.04453 -0.44017,0.08907c-0.13205,0.04453 -0.17607,0.04453 -0.17607,0.04453c0,0 0.04402,-0.04453 0.13205,-0.08907c0.13205,-0.04453 0.2641,-0.1336 0.44017,-0.17814c0.17607,-0.04453 0.39615,-0.08907 0.61624,-0.1336c0.22008,-0.04453 0.48419,-0.04453 0.74829,-0.04453c0.2641,0.04453 0.5282,0.04453 0.74829,0.08907c0.22008,0.04453 0.44017,0.08907 0.61624,0.1336c0.35214,0.08907 0.57222,0.22267 0.57222,0.22267c0,0 -0.22008,0 -0.61624,-0.1336z" fill="#59402f"/><path d="M409.4428,105.72582c0,0.44534 -0.5282,1.02429 -0.92436,1.02429c-0.39615,0 -0.5282,1.06882 -1.23247,1.11336c-1.23247,0.04453 -1.18846,-0.75708 -1.58461,-1.06882c-0.39615,-0.31174 -1.58461,-0.04453 -1.40854,-1.11336c0.13205,-1.06882 1.58461,-1.20242 2.55298,-1.24696c1.84871,-0.1336 2.55298,0.84615 2.597,1.29149z" fill="#332721"/><path d="M407.94623,111.69341c-0.30812,0.17814 -0.74829,0.31174 -1.18846,0.31174c-0.22008,0.04453 -0.44017,0 -0.66025,-0.04453c-0.13205,0 -0.22008,-0.04453 -0.30812,-0.08907c-0.08803,-0.04453 -0.13205,-0.08907 -0.22008,-0.1336c-0.13205,-0.08907 -0.2641,-0.17814 -0.30812,-0.26721c-0.04402,-0.08907 -0.08803,-0.1336 -0.08803,-0.1336c0,0 0.04402,0.04453 0.13205,0.08907c0.08803,0.04453 0.22008,0.1336 0.35214,0.17814c0.04402,0.04453 0.13205,0.04453 0.22008,0.08907c0.08803,0 0.17607,0 0.2641,0.04453c0.17607,0.04453 0.35214,0.04453 0.57222,0.04453c0.22008,0 0.44017,0 0.61624,-0.04453c0.17607,0 0.35214,-0.04453 0.5282,-0.08907c0.30812,-0.08907 0.5282,-0.1336 0.5282,-0.1336c0,0 -0.17607,0.1336 -0.44017,0.17814z" fill="#59402f"/></g><path d="M400.15523,93.34531c0.61624,0 1.10042,0.40081 1.10042,0.84615c0,0.48988 -0.48419,0.84615 -1.10042,0.84615c-0.57222,0 -1.93674,-0.22267 -1.93674,-0.66801c0,-0.44534 1.36452,-1.02429 1.93674,-1.02429z" fill="#9e7b5c"/><path d="M411.7757,94.36959c0,0.44534 -1.36452,0.66801 -1.93674,0.66801c-0.61624,0 -1.10042,-0.35627 -1.10042,-0.84615c0,-0.44534 0.48419,-0.84615 1.10042,-0.84615c0.61624,0 1.93674,0.57894 1.93674,1.02429z" fill="#9e7b5c"/><g><path d="M392.98048,89.38176c-3.91751,-5.12144 0.48419,-7.48175 2.42093,-7.39268c1.93674,0.08907 2.99315,3.5182 2.99315,3.5182" fill="#8d674a"/><path d="M395.22534,83.77044c0,0.22267 -0.04402,0.44534 -0.04402,0.71255c-0.04402,0.26721 0,0.53441 0,0.80162c0.04402,0.26721 0.08803,0.53441 0.13205,0.75708c0.04402,0.1336 0.08803,0.26721 0.13205,0.35627c0.04402,0.1336 0.08803,0.22267 0.13205,0.31174c0.04402,0.04453 0.08803,0.1336 0.13205,0.22267c0.04402,0.08907 0.08803,0.1336 0.13205,0.17814c0.08803,0.1336 0.13205,0.17814 0.13205,0.17814c0,0 -0.04402,-0.04453 -0.13205,-0.1336c-0.08803,-0.04453 -0.22008,-0.17814 -0.35214,-0.35627c-0.04402,-0.08907 -0.13205,-0.22267 -0.17607,-0.31174c-0.08803,-0.08907 -0.13205,-0.22267 -0.17607,-0.35627c-0.08803,-0.1336 -0.08803,-0.26721 -0.13205,-0.40081c0,-0.17814 -0.04402,-0.31174 -0.04402,-0.44534c0,-0.31174 0,-0.57894 0.04402,-0.84615c0,-0.26721 0.08803,-0.48988 0.13205,-0.71255c0.13205,-0.40081 0.2641,-0.66801 0.2641,-0.66801c0,0 -0.04402,0.31174 -0.17607,0.71255z" fill="#59402f"/><g fill="#59402f"><path d="M394.91722,87.06598c0.08803,0.04453 0.17607,0.08907 0.2641,0.17814c0.08803,0.08907 0.17607,0.17814 0.22008,0.26721c0.04402,0.08907 0.04402,0.1336 0.04402,0.1336c0,0 -0.04402,0 -0.13205,-0.04453c-0.08803,-0.04453 -0.17607,-0.08907 -0.2641,-0.17814c-0.08803,-0.08907 -0.17607,-0.17814 -0.22008,-0.26721c-0.04402,-0.08907 -0.04402,-0.1336 -0.04402,-0.1336c0,0 0.08803,0.04453 0.13205,0.04453z"/><path d="M394.69714,87.77853c0.13205,0.08907 0.17607,0.31174 0.17607,0.31174c-0.04402,0 -0.22008,0 -0.35214,-0.1336c-0.13205,-0.08907 -0.17607,-0.31174 -0.17607,-0.31174c0,0 0.22008,0 0.35214,0.1336z"/></g><path d="M397.86635,84.66113c-0.13205,-0.35627 -0.30812,-0.71255 -0.57222,-1.11336c-0.2641,-0.40081 -0.57222,-0.75708 -0.96837,-1.02429c-0.17607,-0.1336 -0.39615,-0.22267 -0.61624,-0.31174c-0.22008,-0.04453 -0.44017,-0.08907 -0.66025,-0.08907c-0.22008,0 -0.39615,0.04453 -0.61624,0.08907c-0.22008,0.04453 -0.39615,0.08907 -0.57222,0.17814c-0.30812,0.1336 -0.61624,0.26721 -0.7923,0.40081c-0.22008,0.1336 -0.30812,0.17814 -0.30812,0.17814c0,0 0.08803,-0.08907 0.2641,-0.22267c0.08803,-0.04453 0.17607,-0.1336 0.30812,-0.22267c0.13205,-0.08907 0.2641,-0.17814 0.44017,-0.26721c0.17607,-0.08907 0.35214,-0.17814 0.57222,-0.22267c0.22008,-0.08907 0.44017,-0.1336 0.70427,-0.1336c0.2641,0 0.48419,0.04453 0.74829,0.08907c0.2641,0.04453 0.48419,0.17814 0.70427,0.31174c0.44017,0.31174 0.74829,0.71255 1.01239,1.11336c0.2641,0.44534 0.39615,0.84615 0.5282,1.20242c0.22008,0.75708 0.2641,1.24696 0.2641,1.24696c0,0 -0.13205,-0.48988 -0.44017,-1.20242z" fill="#59402f"/></g><g><path d="M411.11544,85.50728c0,0 1.05641,-3.42914 2.99315,-3.5182c1.93674,-0.08907 6.33844,2.27125 2.42093,7.39268" fill="#8d674a"/><path d="M414.28466,83.72591c0.04402,0.22267 0.08803,0.44534 0.13205,0.71255c0.04402,0.26721 0.04402,0.57894 0.04402,0.84615c0,0.17814 -0.04402,0.31174 -0.04402,0.44534c-0.04402,0.1336 -0.08803,0.26721 -0.13205,0.40081c-0.08803,0.1336 -0.08803,0.26721 -0.17607,0.35627c-0.04402,0.1336 -0.08803,0.22267 -0.17607,0.31174c-0.13205,0.17814 -0.2641,0.26721 -0.35214,0.35627c-0.08803,0.08907 -0.13205,0.1336 -0.13205,0.1336c0,0 0.04402,-0.08907 0.13205,-0.17814c0.04402,-0.04453 0.08803,-0.08907 0.13205,-0.17814c0.04402,-0.04453 0.08803,-0.1336 0.13205,-0.22267c0.04402,-0.08907 0.08803,-0.22267 0.13205,-0.31174c0.08803,-0.1336 0.08803,-0.22267 0.13205,-0.35627c0.08803,-0.22267 0.13205,-0.48988 0.13205,-0.75708c0,-0.26721 0,-0.53441 0,-0.80162c0,-0.26721 -0.04402,-0.48988 -0.04402,-0.71255c-0.04402,-0.44534 -0.08803,-0.71255 -0.08803,-0.71255c0,0 0.13205,0.26721 0.17607,0.66801z" fill="#59402f"/><g fill="#59402f"><path d="M414.68081,87.15505c-0.04402,0.08907 -0.13205,0.17814 -0.22008,0.26721c-0.08803,0.08907 -0.17607,0.1336 -0.2641,0.17814c-0.08803,0.04453 -0.13205,0.04453 -0.13205,0.04453c0,0 0,-0.04453 0.04402,-0.1336c0.04402,-0.08907 0.13205,-0.17814 0.22008,-0.26721c0.08803,-0.08907 0.17607,-0.1336 0.2641,-0.17814c0.08803,-0.04453 0.13205,-0.04453 0.13205,-0.04453c0,0 0,0.08907 -0.04402,0.1336z"/><path d="M414.98893,87.95666c-0.13205,0.08907 -0.35214,0.1336 -0.35214,0.1336c0,0 0.04402,-0.22267 0.17607,-0.31174c0.13205,-0.08907 0.35214,-0.1336 0.35214,-0.1336c0,0 -0.04402,0.22267 -0.17607,0.31174z"/></g><path d="M416.61756,82.83522c-0.22008,-0.1336 -0.48419,-0.26721 -0.83632,-0.40081c-0.08803,-0.04453 -0.17607,-0.04453 -0.2641,-0.08907c-0.08803,-0.04453 -0.22008,-0.04453 -0.30812,-0.08907c-0.08803,-0.04453 -0.22008,-0.04453 -0.30812,-0.04453c-0.13205,-0.04453 -0.22008,-0.04453 -0.35214,-0.04453c-0.13205,0 -0.22008,0 -0.35214,0c-0.13205,0.04453 -0.22008,0.04453 -0.35214,0.08907c-0.13205,0.04453 -0.2641,0.08907 -0.35214,0.1336c-0.08803,0.08907 -0.22008,0.08907 -0.30812,0.17814c-0.22008,0.1336 -0.44017,0.26721 -0.57222,0.44534c-0.13205,0.17814 -0.30812,0.31174 -0.44017,0.53441c-0.08803,0.22267 -0.2641,0.40081 -0.35214,0.57894c-0.08803,0.17814 -0.17607,0.35627 -0.2641,0.53441c-0.08803,0.17814 -0.17607,0.35627 -0.22008,0.48988c-0.08803,0.1336 -0.13205,0.26721 -0.17607,0.35627c-0.08803,0.17814 -0.13205,0.31174 -0.13205,0.31174c0,0 0.04402,-0.1336 0.08803,-0.35627c0,-0.1336 0.04402,-0.26721 0.08803,-0.40081c0.04402,-0.1336 0.08803,-0.31174 0.17607,-0.48988c0.08803,-0.17814 0.17607,-0.35627 0.2641,-0.57894c0.08803,-0.22267 0.22008,-0.40081 0.35214,-0.62348c0.13205,-0.22267 0.30812,-0.40081 0.48419,-0.57894c0.17607,-0.17814 0.39615,-0.31174 0.61624,-0.48988c0.08803,-0.08907 0.22008,-0.1336 0.35214,-0.17814c0.08803,-0.04453 0.22008,-0.1336 0.35214,-0.1336c0.13205,-0.04453 0.2641,-0.08907 0.39615,-0.08907c0.13205,0 0.2641,0 0.39615,0c0.13205,0 0.22008,0.04453 0.35214,0.04453c0.13205,0.04453 0.2641,0.04453 0.35214,0.08907c0.08803,0.04453 0.22008,0.04453 0.30812,0.08907c0.08803,0.04453 0.17607,0.08907 0.2641,0.1336c0.17607,0.08907 0.30812,0.17814 0.44017,0.26721c0.08803,0.08907 0.22008,0.1336 0.30812,0.22267c0.17607,0.1336 0.2641,0.22267 0.2641,0.22267c0,0 -0.13205,-0.04453 -0.2641,-0.1336z" fill="#59402f"/></g></g><path d="M64.01874,37.83607c-0.15667,-0.10672 -0.32251,-0.19983 -0.50004,-0.2756c-0.95149,-0.40608 -2.1145,1.51728 -2.35343,1.71064c-2.34544,1.898 -5.28694,1.78496 -4.02793,5.25832c0.77119,2.12757 3.71406,3.91306 5.9857,3.70356c0.49036,-0.04522 1.19494,-0.25475 1.97459,-0.4905c2.83088,-1.5869 6.74222,-2.84801 3.40237,-6.06c-0.38516,-0.37041 -0.90398,-0.56007 -1.39264,-0.79052c-0.05394,-0.02399 -0.10553,-0.04926 -0.15457,-0.07511c-0.05648,-0.02841 -0.11231,-0.05771 -0.16721,-0.08825l-1.55794,-0.7719c0,0 -1.41377,-0.70688 -1.20889,-2.12064zM58.63328,51.61611c-3.50687,-1.5803 -6.23642,-5.01626 -6.08363,-8.93298c0.04455,-1.14219 0.17131,-2.38738 0.81738,-3.33034c0.62256,-0.90863 1.82012,-1.24099 2.73498,-1.85435c2.65346,-1.77901 4.76524,-4.92847 8.49912,-4.0939c1.25424,0.28034 3.53131,2.67649 4.65071,3.80688c3.80501,2.50763 7.12744,7.24066 3.00994,11.39714c-0.28253,0.28521 -0.63633,0.46639 -1.01619,0.61005c0.14077,0.24617 0.29067,0.48234 0.46525,0.68971c0.57627,0.68451 1.4455,1.14225 1.86059,1.93493c1.51009,2.88369 1.13209,4.77193 1.14781,7.89859c0,0.54841 0.01604,5.30789 -0.05744,5.60057c-1.59749,6.36243 -10.56396,12.00618 -16.95646,9.15133c-5.30695,-2.37005 -7.95269,-7.48174 -7.70959,-13.0495c0.0549,-1.25731 -0.2965,-2.68941 0.36919,-3.75745c0.5896,-0.94595 1.97743,-1.02993 2.95193,-1.57102c1.21189,-0.6729 2.28874,-1.59107 3.26623,-2.57393c0.7143,-0.71824 1.3769,-1.3575 2.05016,-1.92573zM66.52321,51.80212c-0.3135,0.26602 -0.61663,0.54322 -0.90879,0.82866c-2.80015,0.96014 -3.93118,1.89504 -5.99456,3.94779c-1.64417,1.6357 -2.17112,2.42512 -4.39461,3.38449c-0.40115,0.17308 -1.07088,-0.23806 -1.30409,0.13139c-0.24897,0.39445 0.33385,0.88467 0.36919,1.34978c0.30043,3.95359 0.9744,7.17179 5.05847,9.08181c2.08493,0.97507 3.7038,0.02438 5.53385,-0.82621c0.66105,-0.30725 2.98757,-1.04818 3.61731,-1.68753c2.28768,-2.3226 1.92469,-5.33685 1.92469,-8.27048c0.00868,-1.47785 0.33078,-4.19269 -0.55461,-5.72068c-0.35629,-0.61489 -1.14634,-0.88107 -1.54423,-1.46988c-0.28988,-0.429 -0.03846,-1.17553 -0.453,-1.48575c-0.25755,-0.19275 -0.48171,0.4592 -0.78823,0.55685c-0.18669,0.05948 -0.3738,0.11985 -0.56141,0.17976z" fill="#ff0000" stroke-width="0.5"/></g></g></svg>