<svg version="1.1" xmlns="http://www.w3.org/2000/svg" xmlns:xlink="http://www.w3.org/1999/xlink" width="401.98208" height="92.66415" viewBox="0,0,401.98208,92.66415"><g transform="translate(-2.86569,-3.60194)"><g data-paper-data="{&quot;isPaintingLayer&quot;:true}" fill="#ff0000" fill-rule="nonzero" stroke="none" stroke-linecap="butt" stroke-linejoin="miter" stroke-miterlimit="10" stroke-dasharray="" stroke-dashoffset="0" style="mix-blend-mode: normal"><path d="M34.32556,17.09073c-4.5013,0.3659 -8.66934,1.96128 -12.85533,3.98424c-2.29231,1.1078 -3.58238,3.68598 -5.73711,5.0421c-1.57769,0.99295 -5.01282,0.90496 -5.64037,3.45571c-0.68675,2.79135 0.1807,7.40743 0.1807,10.33056c0,4.5125 0.4282,8.4229 0.86318,12.85773c0.27141,2.76721 -0.67134,5.62486 -0.07706,8.3411c0.51379,2.34834 2.23298,4.25812 3.30643,6.40903c3.37159,8.47272 7.54112,12.24027 15.37856,16.48925c0.49726,0.26958 5.08884,3.36219 6.10419,3.56392c6.42167,1.27589 13.85372,0.88568 20.39323,1.33789c5.98671,0.41398 11.94399,1.39895 17.00768,-2.47681c8.94087,-6.84336 10.20038,-17.63037 12.75717,-27.58543c0.07659,-5.39886 1.96622,-7.9976 3.66568,-12.97754c1.38821,-4.06788 1.62096,-10.85945 0.77305,-14.97668c-0.29003,-1.40829 -1.23736,-2.60773 -1.65336,-3.98408c-0.23311,-0.77126 0.3123,-1.85139 -0.27659,-2.40129c-2.17784,-2.03365 -5.68231,-2.02811 -8.11533,-3.74832c-3.28423,-2.32204 -5.75534,-5.11647 -9.72654,-6.59657c-3.39783,-1.2664 -6.81122,-0.81323 -10.1511,-1.6361c-1.27419,-0.31393 -2.26146,-1.39315 -3.52126,-1.76063c-3.19894,-0.93313 -6.98604,1.96652 -9.28753,3.34741c-2.34898,0.59874 -4.65357,1.44034 -6.81528,2.53723l-3.10218,1.07136c0,0 -2.04744,0.68248 -3.47082,-0.62407zM37.99591,10.22335c2.24761,-1.09498 4.59592,-2.02957 7.02286,-2.62354c4.22604,-2.53563 8.40225,-4.84279 13.60062,-3.6951c1.28144,0.28291 2.24936,1.43752 3.52126,1.76063c3.51407,0.89269 7.35258,0.51968 10.97643,1.88515c4.54089,1.71102 7.64862,4.77517 11.40099,7.48845c2.90458,2.10026 7.00235,2.47517 9.49095,5.05481c1.12769,1.16895 0.94159,3.11024 1.48404,4.64122c0.57537,1.62388 1.53757,3.12822 1.8679,4.81905c1.03184,5.28175 0.69878,13.32136 -0.98758,18.47524c-1.58798,4.85321 -3.4625,6.5894 -3.37683,11.67125c-2.86066,11.72105 -4.80527,24.43166 -15.41287,32.2759c-6.783,5.01598 -13.81478,4.50276 -21.82626,3.95168c-6.92598,-0.47641 -14.99703,-0.05708 -21.7617,-1.56935c-2.53321,-0.56631 -5.45976,-2.98925 -7.7072,-4.22209c-2.17235,-1.19165 -4.55859,-2.00132 -6.62991,-3.36101c-5.75976,-3.78091 -9.24244,-10.22289 -11.71708,-16.37942c-0.43586,-0.86997 -3.62337,-7.17399 -3.73608,-7.67599c-0.44035,-1.9613 0.14877,-7.05285 -0.07706,-9.26518c-0.47249,-4.62878 -0.89745,-8.84433 -0.89745,-13.55168c0,-3.32682 -0.93153,-9.59248 0.1807,-12.5576c0.75698,-2.01804 2.19061,-3.81465 3.83956,-5.20262c1.27094,-1.06978 3.19346,-1.02963 4.60508,-1.90544c2.43463,-1.5105 4.03725,-4.21539 6.58728,-5.52167c5.74795,-2.94446 11.82609,-4.65669 18.2393,-4.74335c0,0 0.60478,0 1.31307,0.25064z" stroke-width="0.5"/><path d="M76.86967,70.77493c0,-1.38071 1.11929,-2.5 2.5,-2.5c1.38071,0 2.5,1.11929 2.5,2.5c0,1.38071 -1.11929,2.5 -2.5,2.5c-1.38071,0 -2.5,-1.11929 -2.5,-2.5z" stroke-width="0.5"/><text transform="translate(152.34808,50.58584) scale(0.57919,0.5704)" font-size="40" xml:space="preserve" fill="#ff0000" fill-rule="nonzero" stroke="none" stroke-width="1" stroke-linecap="butt" stroke-linejoin="miter" stroke-miterlimit="10" stroke-dasharray="" stroke-dashoffset="0" font-family="Sans Serif" font-weight="normal" text-anchor="start" style="mix-blend-mode: normal"><tspan x="0" dy="0">Pick the wrong answer</tspan></text><path d="M46.03884,67.36903c0,2.14607 -2.14606,2.14606 -2.14606,2.14606l-2.03278,-0.22656c-5.09645,-2.62171 -10.34947,-0.19322 -15.6288,-1.4404c-0.77837,-0.18389 -1.37341,-0.86648 -2.14606,-1.07303c-1.22353,-0.32709 -2.53256,0.05741 -3.79906,0.05741c0,0 -2.14606,0 -2.14606,-2.14606c0,-2.14607 2.14607,-2.14607 2.14607,-2.14607c0.55009,0 4.47632,-0.01555 4.78519,0.05741c0.77837,0.18389 1.37341,0.86648 2.14607,1.07304c0.71047,0.18994 1.44976,0.13993 2.19282,0.06461c0.08503,-7.41164 1.54912,-14.83835 2.14659,-22.24725c0.27584,-3.42067 0.16403,-6.93846 0.07184,-10.4247c-1.85258,0.89357 -3.71625,1.79702 -5.46245,2.76635c-1.39656,0.77524 -2.73014,1.78194 -4.28618,2.14271l-1.14941,1.25954c0,0 -1.5175,1.5175 -3.03499,0c-1.5175,-1.5175 0,-3.03499 0,-3.03499l2.06968,-1.95955c4.07185,-1.08311 7.97061,-3.81033 11.80674,-5.88166c0.07296,-0.55879 0.42531,-1.90813 2.12701,-1.90813c2.14607,0 2.14607,2.14606 2.14607,2.14606c0,0.25388 0.00101,0.50819 0.00286,0.76289c0.053,0.26502 0.0493,0.50641 0.00742,0.72418c0.05912,4.53357 0.34072,9.17421 -0.01411,13.66346c-0.57406,7.26283 -2.10564,14.59468 -2.14231,21.86324c3.48414,0.01122 6.73124,0.20387 10.0806,1.84197l0.11328,-0.22656c0,0 2.14607,0 2.14607,2.14606z" stroke-width="0.5"/><path d="M75.90236,62.94752c0.92929,2.40939 -0.92929,3.61409 -0.92929,3.61409l-1.4643,0.87741c-4.97066,1.6091 -9.26749,1.472 -14.26466,0.73369c-2.86333,-0.42305 -6.30767,0.95692 -9.09696,0.02018h-2.07797c-1.14763,0 -2.07797,-1.20605 -2.07797,-2.69379c0,-1.07537 0.48607,-2.00356 1.18894,-2.43549l1.91171,-1.23913c5.31805,-5.19135 10.6823,-11.65517 12.00496,-20.42431c0.19538,-1.29536 1.23173,-5.00647 0.04878,-6.32171c-1.00975,-1.12268 -2.46318,-1.32844 -3.61588,-2.18918c-0.40759,-0.30435 -0.68415,-1.15833 -1.14868,-1.0625c-0.85697,0.17678 -1.45779,1.22547 -2.22221,1.75784c-1.8545,1.29154 -3.8328,2.25899 -5.74928,3.38828c0,0 -1.89171,1.11469 -2.75158,-1.33764c-0.85987,-2.45233 1.03184,-3.56703 1.03184,-3.56703c1.89326,-1.11561 7.66221,-5.44067 9.69122,-5.62903c1.08387,-0.10062 2.01699,1.05133 3.00726,1.63129c0.55661,0.32597 4.49241,2.91643 4.69598,3.19839c2.41523,3.34526 1.70374,7.26627 1.08776,11.1879c-1.31766,8.38893 -5.50565,14.91454 -10.40579,20.34623c0.71143,-0.00053 1.42285,-0.0003 2.13428,0.00234c5.45604,0.02021 10.14152,1.17821 15.60026,-0.59302l0.61367,-0.46949c0,0 1.85859,-1.2047 2.78788,1.2047z" stroke-width="0.5"/></g></g></svg>