<svg version="1.1" xmlns="http://www.w3.org/2000/svg" xmlns:xlink="http://www.w3.org/1999/xlink" width="316.03832" height="90.3158" viewBox="0,0,316.03832,90.3158"><g transform="translate(12.46845,-180.56936)"><g data-paper-data="{&quot;isPaintingLayer&quot;:true}" fill-rule="nonzero" stroke-linejoin="miter" stroke-miterlimit="10" stroke-dasharray="" stroke-dashoffset="0" style="mix-blend-mode: normal"><path d="M-9.46845,267.88516v-84.3158h160.26316v84.3158z" fill="#ffffff" stroke="#000000" stroke-width="6" stroke-linecap="butt"/><path d="M300.56987,225.50714h-148.42105" fill="none" stroke="#000000" stroke-width="6" stroke-linecap="round"/><text transform="translate(8.40418,243.49044) scale(1.00777,1.23185)" font-size="40" xml:space="preserve" fill="#000000" fill-rule="nonzero" stroke="none" stroke-width="1" stroke-linecap="butt" stroke-linejoin="miter" stroke-miterlimit="10" stroke-dasharray="" stroke-dashoffset="0" font-family="Sans Serif" font-weight="normal" text-anchor="start" style="mix-blend-mode: normal"><tspan x="0" dy="0">Stefan</tspan></text><path d="M77.84731,238.09664h-10.14124" fill="none" stroke="#000000" stroke-width="0.5" stroke-linecap="round"/><path d="M73.84957,232.42948c0,0.11584 -0.04101,0.19067 -0.094,0.23901c0.18879,1.19885 -2.98044,0.79323 -0.96138,-0.37939l-0.0119,-0.00595l0.14597,-0.29193c0.05247,-0.11068 0.16521,-0.18722 0.29583,-0.18722c0.13062,0 0.24337,0.07654 0.29583,0.18722l0.05851,0.11702c0.09351,0.0167 0.27113,0.08016 0.27113,0.32124z" fill="#000000" stroke="none" stroke-width="0.5" stroke-linecap="butt"/><path d="M72.09791,241.59366c1.09238,-1.11316 1.45339,0.63772 1.45339,1.42446v0.44741c0,0.18071 -0.1465,0.32721 -0.32721,0.32721c-0.08902,0 -0.16973,-0.03555 -0.22872,-0.09322c-0.57971,0.48881 -1.86153,-1.12345 -0.89746,-2.10585z" fill="#000000" stroke="none" stroke-width="0.5" stroke-linecap="butt"/></g></g></svg>