<svg version="1.1" xmlns="http://www.w3.org/2000/svg" xmlns:xlink="http://www.w3.org/1999/xlink" width="487.50845" height="364" viewBox="0,0,487.50845,364"><g transform="translate(2.61538,2)"><g data-paper-data="{&quot;isPaintingLayer&quot;:true}" fill-rule="nonzero" stroke-linecap="butt" stroke-linejoin="miter" stroke-miterlimit="10" stroke-dasharray="" stroke-dashoffset="0" style="mix-blend-mode: normal"><path d="M34.32556,17.09073c-4.5013,0.3659 -8.66934,1.96128 -12.85533,3.98424c-2.29231,1.1078 -3.58238,3.68598 -5.73711,5.0421c-1.57769,0.99295 -5.01282,0.90496 -5.64037,3.45571c-0.68675,2.79135 0.1807,7.40743 0.1807,10.33056c0,4.5125 0.4282,8.4229 0.86318,12.85773c0.27141,2.76721 -0.67134,5.62486 -0.07706,8.3411c0.51379,2.34834 2.23298,4.25812 3.30643,6.40903c3.37159,8.47272 7.54112,12.24027 15.37856,16.48925c0.49726,0.26958 5.08884,3.36219 6.10419,3.56392c6.42167,1.27589 13.85372,0.88568 20.39323,1.33789c5.98671,0.41398 11.94399,1.39895 17.00768,-2.47681c8.94087,-6.84336 10.20038,-17.63037 12.75717,-27.58543c0.07659,-5.39886 1.96622,-7.9976 3.66568,-12.97754c1.38821,-4.06788 1.62096,-10.85945 0.77305,-14.97668c-0.29003,-1.40829 -1.23736,-2.60773 -1.65336,-3.98408c-0.23311,-0.77126 0.3123,-1.85139 -0.27659,-2.40129c-2.17784,-2.03365 -5.68231,-2.02811 -8.11533,-3.74832c-3.28423,-2.32204 -5.75534,-5.11647 -9.72654,-6.59657c-3.39783,-1.2664 -6.81122,-0.81323 -10.1511,-1.6361c-1.27419,-0.31393 -2.26146,-1.39315 -3.52126,-1.76063c-3.19894,-0.93313 -6.98604,1.96652 -9.28753,3.34741c-2.34898,0.59874 -4.65357,1.44034 -6.81528,2.53723l-3.10218,1.07136c0,0 -2.04744,0.68248 -3.47082,-0.62407zM37.99591,10.22335c2.24761,-1.09498 4.59592,-2.02957 7.02286,-2.62354c4.22604,-2.53563 8.40225,-4.84279 13.60062,-3.6951c1.28144,0.28291 2.24936,1.43752 3.52126,1.76063c3.51407,0.89269 7.35258,0.51968 10.97643,1.88515c4.54089,1.71102 7.64862,4.77517 11.40099,7.48845c2.90458,2.10026 7.00235,2.47517 9.49095,5.05481c1.12769,1.16895 0.94159,3.11024 1.48404,4.64122c0.57537,1.62388 1.53757,3.12822 1.8679,4.81905c1.03184,5.28175 0.69878,13.32136 -0.98758,18.47524c-1.58798,4.85321 -3.4625,6.5894 -3.37683,11.67125c-2.86066,11.72105 -4.80527,24.43166 -15.41287,32.2759c-6.783,5.01598 -13.81478,4.50276 -21.82626,3.95168c-6.92598,-0.47641 -14.99703,-0.05708 -21.7617,-1.56935c-2.53321,-0.56631 -5.45976,-2.98925 -7.7072,-4.22209c-2.17235,-1.19165 -4.55859,-2.00132 -6.62991,-3.36101c-5.75976,-3.78091 -9.24244,-10.22289 -11.71708,-16.37942c-0.43586,-0.86997 -3.62337,-7.17399 -3.73608,-7.67599c-0.44035,-1.9613 0.14877,-7.05285 -0.07706,-9.26518c-0.47249,-4.62878 -0.89745,-8.84433 -0.89745,-13.55168c0,-3.32682 -0.93153,-9.59248 0.1807,-12.5576c0.75698,-2.01804 2.19061,-3.81465 3.83956,-5.20262c1.27094,-1.06978 3.19346,-1.02963 4.60508,-1.90544c2.43463,-1.5105 4.03725,-4.21539 6.58728,-5.52167c5.74795,-2.94446 11.82609,-4.65669 18.2393,-4.74335c0,0 0.60478,0 1.31307,0.25064z" fill="#ff0000" stroke="none" stroke-width="0.5"/><path d="M76.86969,70.77493c0,-1.38071 1.11929,-2.5 2.5,-2.5c1.38071,0 2.5,1.11929 2.5,2.5c0,1.38071 -1.11929,2.5 -2.5,2.5c-1.38071,0 -2.5,-1.11929 -2.5,-2.5z" fill="#ff0000" stroke="none" stroke-width="0.5"/><path d="M46.63464,65.94737c0.86549,2.11862 -0.86549,3.17793 -0.86549,3.17793l-1.36377,0.77152c-4.6294,1.41491 -8.63123,1.29436 -13.28532,0.64515c-2.66675,-0.37199 -5.87462,0.84143 -8.47241,0.01775h-1.93531c-1.06884,0 -1.93531,-1.0605 -1.93531,-2.36869c0,-0.94559 0.4527,-1.76177 1.10731,-2.14157l1.78046,-1.08959c4.95294,-4.56484 9.94891,-10.24858 11.18077,-17.95943c0.18197,-1.13903 1.14717,-4.40227 0.04543,-5.55879c-0.94043,-0.98719 -2.29407,-1.16812 -3.36763,-1.92498c-0.37961,-0.26762 -0.63718,-1.01854 -1.06981,-0.93428c-0.79813,0.15544 -1.35771,1.07757 -2.06965,1.5457c-1.72718,1.13567 -3.56966,1.98637 -5.35456,2.97937c0,0 -1.76183,0.98017 -2.56267,-1.1762c-0.80083,-2.15637 0.961,-3.13654 0.961,-3.13654c1.76328,-0.98098 7.13617,-4.78407 9.02587,-4.9497c1.00945,-0.08847 1.87851,0.92445 2.8008,1.43442c0.51839,0.28663 4.18398,2.56446 4.37358,2.8124c2.24942,2.94154 1.58677,6.38935 1.01308,9.8377c-1.2272,7.37652 -5.12766,13.1146 -9.69138,17.89076c0.66259,-0.00046 1.32517,-0.00027 1.98775,0.00206c5.08146,0.01777 9.44526,1.03602 14.52923,-0.52145l0.57153,-0.41283c0,0 1.73099,-1.05931 2.59648,1.05931z" fill="#ff0000" stroke="none" stroke-width="0.5"/><path d="M76.59085,62.62863c0.86549,2.11862 -0.86549,3.17793 -0.86549,3.17793l-1.36377,0.77152c-4.6294,1.41491 -8.63123,1.29436 -13.28532,0.64515c-2.66675,-0.37199 -5.87462,0.84143 -8.47241,0.01775h-1.93531c-1.06884,0 -1.93531,-1.0605 -1.93531,-2.36869c0,-0.94559 0.4527,-1.76177 1.10731,-2.14157l1.78046,-1.08959c4.95294,-4.56484 9.94891,-10.24858 11.18077,-17.95943c0.18197,-1.13903 1.14717,-4.40227 0.04543,-5.55879c-0.94043,-0.98719 -2.29407,-1.16812 -3.36763,-1.92498c-0.37961,-0.26762 -0.63718,-1.01854 -1.06981,-0.93428c-0.79813,0.15544 -1.35771,1.07757 -2.06965,1.5457c-1.72718,1.13567 -3.56966,1.98637 -5.35456,2.97937c0,0 -1.76183,0.98017 -2.56267,-1.1762c-0.80083,-2.15637 0.961,-3.13654 0.961,-3.13654c1.76328,-0.98098 7.13617,-4.78407 9.02587,-4.9497c1.00945,-0.08847 1.87851,0.92445 2.8008,1.43442c0.51839,0.28663 4.18398,2.56446 4.37358,2.8124c2.24942,2.94154 1.58677,6.38935 1.01308,9.8377c-1.2272,7.37652 -5.12766,13.1146 -9.69138,17.89076c0.66259,-0.00046 1.32517,-0.00027 1.98775,0.00206c5.08146,0.01777 9.44526,1.03602 14.52923,-0.52145l0.57153,-0.41283c0,0 1.73099,-1.05931 2.59648,1.05931z" fill="#ff0000" stroke="none" stroke-width="0.5"/><path d="M1.5,358.5v-357h479v357z" fill="none" stroke="#ff0000" stroke-width="7"/><path d="M2.01493,179.47792c-1.3178,-5.93012 -0.91371,-12.01495 -1.17737,-17.9815c-0.16643,-3.76626 -1.68663,-7.22256 -1.90965,-10.9821c-0.1938,-3.2671 0.58218,-6.40054 0.38289,-9.64619c-0.57499,-9.36445 0.10508,-19.00214 0.77248,-28.37958c0,0 0.17812,-2.49365 2.67177,-2.31553c1.19937,0.08567 1.78068,0.707 2.061,1.3289c0.49276,0.00425 0.85914,0.12638 0.85914,0.12638c2.4228,0.83919 3.80968,1.63053 6.63505,0.93859c1.44792,-0.35461 2.56373,-1.6008 4,-2c3.38213,-0.94003 7.54156,-0.23614 11.07446,-1.01638c2.75338,-0.60809 5.16801,-2.3511 7.91638,-2.98144c1.35913,-0.31172 2.81097,0.21157 4.1831,-0.03678c5.40248,-0.97783 10.42263,-3.40145 15.65176,-4.91754c3.30044,-0.95691 6.86036,-0.52935 10.25245,-1.07918c1.622,-0.26292 3.06534,-1.24366 4.67997,-1.54851c0.96904,-0.18296 7.0914,-0.416 8.76344,-0.4865c4.66442,-0.00051 8.2279,-0.3516 12.74737,-0.98183c3.50581,-0.48888 7.81443,-0.01873 11.30546,-0.01873c9.33334,0 18.66666,0 28,0c6.26254,0 13.19956,-0.83267 19.40045,0.03228c1.04398,0.14562 1.96045,0.82547 3,1c5.67103,0.95213 11.7921,1.73515 17.5805,1.96524c4.10903,0.3139 8.79222,1.31133 12.90805,1.00495c3.02882,-0.22547 6.02018,-0.92247 9.05634,-1.00186c1.88412,-0.04927 3.79528,0.34274 5.6542,0.03168c2.01193,-0.33666 3.80945,-1.50298 5.79782,-1.95856c5.5112,-1.26273 11.82541,-1.78928 17.46438,-2.06989c11.9736,-0.59585 24.14517,-0.00383 36.13825,-0.00383c5.71789,0.02608 10.85548,2.10722 16.42868,3.03703c6.32761,1.05567 13.19089,1.63339 19.59863,1.95625c8.31437,0.41893 16.5891,1.56396 24.90297,1.99031c12.28283,0.62989 24.7717,0.01641 37.06972,0.01641c6.40517,0.03629 12.77252,2.27356 19.15515,2.99334c8.04181,0.9069 16.73659,0.00666 24.84485,0.00666c2.85821,0 5.81699,-0.68555 8.57439,0.06688c1.43813,0.39244 2.54704,1.66664 4,2c3.1026,0.71184 8.78842,-0.16573 11.80345,-0.82669c1.54368,-0.33841 2.9962,-1.20057 4.57605,-1.23976c1.48925,-0.03694 2.8707,0.85618 4.35156,1.0183c3.27814,0.35889 6.59843,0.13267 9.88488,0.40514c5.92908,0.49473 12.63187,1.73479 18.54546,1.41716c1.01304,-0.05442 1.92581,-0.68376 2.93129,-0.81876c1.777,-0.23858 3.73317,0.88572 5.37621,0.16803c0.97483,-0.4258 1.3315,-1.95802 2.38233,-2.12342c1.47917,-0.23282 2.90996,0.70761 4.36495,1.06141l1.54005,0.51335c0.09109,0.01766 0.18191,0.04417 0.27242,0.08073c0.03758,0.01517 0.07486,0.03097 0.11185,0.04736l1.07567,0.35856c0,0 2.08575,0.69525 1.69331,2.73774c0.12757,0.27814 0.24021,0.55886 0.33798,0.83593c0.59657,1.69061 -0.09759,3.59405 0.0831,5.37771c0.11117,1.09734 0.9121,2.11796 0.78728,3.21383c-0.15554,1.36561 -1.27796,2.46646 -1.58681,3.80575c-0.22924,0.99411 0.20346,2.06021 0.00341,3.06061c-0.19146,0.95743 -0.93871,1.73992 -1.15385,2.69231c-0.82004,3.63027 0.68788,6.7179 1.52384,10.08194c1.69063,6.80334 1.61258,13.82823 1.59931,20.79852c0.71955,5.75642 0.09336,11.50886 0.38315,17.28581c0.10297,2.05261 0.94179,4.01318 1.14521,6.05828c0.50894,5.11653 0.53751,10.38938 0.06887,15.42452c-0.26885,2.88863 0.62518,6.47592 -0.12082,9.26881c-0.48996,1.83428 -1.7695,3.73546 -2.89526,5.40156l-0.44317,1.22901l0.02362,0.48101c-0.05887,-0.01893 -0.11778,-0.03773 -0.17674,-0.05639l-0.06302,0.17479c0,0 -0.86543,0 -1.57792,-0.50919l-1.91602,0.58946c0,0 -1.94081,0 -2.40236,-1.71004c-0.85906,-0.15669 -1.7213,-0.29454 -2.58428,-0.41685c-7.36543,-1.87195 -17.82275,-1.94645 -25.21667,0.10088c-1.61804,0.44803 -3.06339,1.40689 -4.67819,1.86647c-2.72643,0.77596 -5.6244,0.71289 -8.43572,1.0762c-7.97895,1.03114 -16.01359,2.50597 -24.05058,2.99925c-11.28336,0.69252 -22.83105,0.00383 -34.13825,0.00383c-0.32137,0 -8.80885,0.01956 -9.45205,-0.05218c-3.30898,-0.36903 -6.48505,-1.59336 -9.79429,-1.95999c-6.27292,-0.69497 -12.77292,0.61229 -19.05911,-0.00656c-2.73552,-0.26931 -5.27611,-1.63125 -8,-2c-1.35267,-0.18312 -2.75039,0.22155 -4.095,-0.01355c-4.47452,-0.78234 -8.57104,-3.33383 -13.08227,-4.10169c-3.23927,-0.55135 -6.55362,-0.50769 -9.81784,-0.88417c-6.09631,-0.70313 -12.17557,-1.84365 -18.24322,-2.76299c-4.95788,-0.75119 -10.1116,-1.21027 -15.00913,-2.28078c-4.55933,-0.9966 -8.91975,-2.95249 -13.44555,-4.09135c-6.22588,-1.56667 -12.95077,-3.01411 -19.3132,-3.86625c-16.56536,-2.21866 -33.88924,-1.35498 -50.33105,0.99384c-17.31773,2.52743 -34.72375,5.59703 -52.17748,7.01919c-6.03273,0.49156 -12.30524,-0.45088 -18.29789,0.3466c-4.92825,0.65583 -9.6553,2.89205 -14.57646,3.64115c-4.20801,0.64054 -9.03809,0.01872 -13.28562,0.01865c-29.34166,0.46651 -58.67417,1.00008 -88.01984,1.00008c0,0 -2.5,0 -2.5,-2.5c0,-1.59401 1.01633,-2.17167 1.75297,-2.38101c-0.72805,-9.23294 2.82795,-17.86273 2.87734,-27.14106z" fill="#ff0000" stroke="none" stroke-width="0.5"/><text transform="translate(120.42307,141.15384) scale(0.5,0.5)" font-size="40" xml:space="preserve" fill="#ffa719" fill-rule="nonzero" stroke="none" stroke-width="1" stroke-linecap="butt" stroke-linejoin="miter" stroke-miterlimit="10" stroke-dasharray="" stroke-dashoffset="0" font-family="Sans Serif" font-weight="normal" text-anchor="start" style="mix-blend-mode: normal"><tspan x="0" dy="0">Now don't touch red!</tspan></text><text transform="translate(87.96154,168.69231) scale(0.5,0.5)" font-size="40" xml:space="preserve" fill="#ffa200" fill-rule="nonzero" stroke="none" stroke-width="1" stroke-linecap="butt" stroke-linejoin="miter" stroke-miterlimit="10" stroke-dasharray="" stroke-dashoffset="0" font-family="Sans Serif" font-weight="normal" text-anchor="start" style="mix-blend-mode: normal"><tspan x="0" dy="0">If only you could right click...</tspan></text></g></g></svg>