<svg version="1.1" xmlns="http://www.w3.org/2000/svg" xmlns:xlink="http://www.w3.org/1999/xlink" width="439.86048" height="92.66415" viewBox="0,0,439.86048,92.66415"><g transform="translate(-2.86569,-3.60195)"><g data-paper-data="{&quot;isPaintingLayer&quot;:true}" fill="#ff0000" fill-rule="nonzero" stroke="none" stroke-linecap="butt" stroke-linejoin="miter" stroke-miterlimit="10" stroke-dasharray="" stroke-dashoffset="0" style="mix-blend-mode: normal"><path d="M34.32556,17.09073c-4.5013,0.3659 -8.66934,1.96128 -12.85533,3.98424c-2.29231,1.1078 -3.58238,3.68598 -5.73711,5.0421c-1.57769,0.99295 -5.01282,0.90496 -5.64037,3.45571c-0.68675,2.79135 0.1807,7.40743 0.1807,10.33056c0,4.5125 0.4282,8.4229 0.86318,12.85773c0.27141,2.76721 -0.67134,5.62486 -0.07706,8.3411c0.51379,2.34834 2.23298,4.25812 3.30643,6.40903c3.37159,8.47272 7.54112,12.24027 15.37856,16.48925c0.49726,0.26958 5.08884,3.36219 6.10419,3.56392c6.42167,1.27589 13.85372,0.88568 20.39323,1.33789c5.98671,0.41398 11.94399,1.39895 17.00768,-2.47681c8.94087,-6.84336 10.20038,-17.63037 12.75717,-27.58543c0.07659,-5.39886 1.96622,-7.9976 3.66568,-12.97754c1.38821,-4.06788 1.62096,-10.85945 0.77305,-14.97668c-0.29003,-1.40829 -1.23736,-2.60773 -1.65336,-3.98408c-0.23311,-0.77126 0.3123,-1.85139 -0.27659,-2.40129c-2.17784,-2.03365 -5.68231,-2.02811 -8.11533,-3.74832c-3.28423,-2.32204 -5.75534,-5.11647 -9.72654,-6.59657c-3.39783,-1.2664 -6.81122,-0.81323 -10.1511,-1.6361c-1.27419,-0.31393 -2.26146,-1.39315 -3.52126,-1.76063c-3.19894,-0.93313 -6.98604,1.96652 -9.28753,3.34741c-2.34898,0.59874 -4.65357,1.44034 -6.81528,2.53723l-3.10218,1.07136c0,0 -2.04744,0.68248 -3.47082,-0.62407zM37.99591,10.22336c2.24761,-1.09498 4.59592,-2.02957 7.02286,-2.62354c4.22604,-2.53563 8.40225,-4.84279 13.60062,-3.6951c1.28144,0.28291 2.24936,1.43752 3.52126,1.76063c3.51407,0.89269 7.35258,0.51968 10.97643,1.88515c4.54089,1.71102 7.64862,4.77517 11.40099,7.48845c2.90458,2.10026 7.00235,2.47517 9.49095,5.05481c1.12769,1.16895 0.94159,3.11024 1.48404,4.64122c0.57537,1.62388 1.53757,3.12822 1.8679,4.81905c1.03184,5.28175 0.69878,13.32136 -0.98758,18.47524c-1.58798,4.85321 -3.4625,6.5894 -3.37683,11.67125c-2.86066,11.72105 -4.80527,24.43166 -15.41287,32.2759c-6.783,5.01598 -13.81478,4.50276 -21.82626,3.95168c-6.92598,-0.47641 -14.99703,-0.05708 -21.7617,-1.56935c-2.53321,-0.56631 -5.45976,-2.98925 -7.7072,-4.22209c-2.17235,-1.19165 -4.55859,-2.00132 -6.62991,-3.36101c-5.75976,-3.78091 -9.24244,-10.22289 -11.71708,-16.37942c-0.43586,-0.86997 -3.62337,-7.17399 -3.73608,-7.67599c-0.44035,-1.9613 0.14877,-7.05285 -0.07706,-9.26518c-0.47249,-4.62878 -0.89745,-8.84433 -0.89745,-13.55168c0,-3.32682 -0.93153,-9.59248 0.1807,-12.5576c0.75698,-2.01804 2.19061,-3.81465 3.83956,-5.20262c1.27094,-1.06978 3.19346,-1.02963 4.60508,-1.90544c2.43463,-1.5105 4.03725,-4.21539 6.58728,-5.52167c5.74795,-2.94446 11.82609,-4.65669 18.2393,-4.74335c0,0 0.60478,0 1.31307,0.25064z" stroke-width="0.5"/><path d="M76.25429,67.39033c0,-1.38071 1.11929,-2.5 2.5,-2.5c1.38071,0 2.5,1.11929 2.5,2.5c0,1.38071 -1.11929,2.5 -2.5,2.5c-1.38071,0 -2.5,-1.11929 -2.5,-2.5z" stroke-width="0.5"/><path d="M46.63464,65.94737c0.86549,2.11862 -0.86549,3.17793 -0.86549,3.17793l-1.36377,0.77152c-4.6294,1.41491 -8.63123,1.29436 -13.28532,0.64515c-2.66675,-0.37199 -5.87462,0.84143 -8.47241,0.01775h-1.93531c-1.06884,0 -1.93531,-1.0605 -1.93531,-2.36869c0,-0.94559 0.4527,-1.76177 1.10731,-2.14157l1.78046,-1.08959c4.95294,-4.56484 9.94891,-10.24858 11.18077,-17.95943c0.18197,-1.13903 1.14717,-4.40227 0.04543,-5.55879c-0.94043,-0.98719 -2.29407,-1.16812 -3.36763,-1.92498c-0.37961,-0.26762 -0.63718,-1.01854 -1.06981,-0.93428c-0.79813,0.15544 -1.35771,1.07757 -2.06965,1.5457c-1.72718,1.13567 -3.56966,1.98637 -5.35456,2.97937c0,0 -1.76183,0.98017 -2.56267,-1.1762c-0.80083,-2.15637 0.961,-3.13654 0.961,-3.13654c1.76328,-0.98098 7.13617,-4.78407 9.02587,-4.9497c1.00945,-0.08847 1.87851,0.92445 2.8008,1.43442c0.51839,0.28663 4.18398,2.56446 4.37358,2.8124c2.24942,2.94154 1.58677,6.38935 1.01308,9.8377c-1.2272,7.37652 -5.12766,13.1146 -9.69138,17.89076c0.66259,-0.00046 1.32517,-0.00027 1.98775,0.00206c5.08146,0.01777 9.44526,1.03602 14.52923,-0.52145l0.57153,-0.41283c0,0 1.73099,-1.05931 2.59648,1.05931z" stroke-width="0.5"/><text transform="translate(121.8831,52.47073) scale(0.58333,0.58333)" font-size="40" xml:space="preserve" fill="#ff0000" fill-rule="nonzero" stroke="none" stroke-width="1" stroke-linecap="butt" stroke-linejoin="miter" stroke-miterlimit="10" stroke-dasharray="" stroke-dashoffset="0" font-family="Sans Serif" font-weight="normal" text-anchor="start" style="mix-blend-mode: normal"><tspan x="0" dy="0">How do you open a mailbox?</tspan></text><path d="M64.22904,43.61463c0.04804,-3.26858 0.10445,-6.54509 0.12136,-9.83976c-0.53549,0.10835 -1.08549,0.15573 -1.60719,0.31687c-4.00424,1.23688 -9.98738,3.46557 -11.3054,7.57982c1.75646,1.06552 4.97629,3.80171 7.22609,3.48595c1.72734,-0.24245 3.70794,-1.03832 5.56515,-1.54288zM64.16983,48.43943c-1.74149,0.53638 -3.64784,1.21284 -5.08303,1.32431c-4.81955,0.37433 -8.93588,-3.65312 -12.02696,-6.59898c0.38101,-2.03187 0.24891,-4.23168 1.14303,-6.0956c0.56935,-1.18688 1.9203,-1.81744 3.0083,-2.55842c3.22565,-2.1968 8.89921,-5.40754 12.93714,-5.39585c1.818,0.00527 4.05154,-0.62505 5.42454,0.56661c1.59848,1.38736 1.24073,8.21314 1.24181,9.98624c0.00359,5.91067 -0.04195,11.74521 -0.46629,17.61019c-0.21514,2.97362 0.92154,7.22644 0.00206,10.05812c-0.01717,0.05286 -0.03476,0.10555 -0.05277,0.15808l0.03534,0.00506l-0.45359,3.17517c-0.14418,1.13879 -1.11644,2.01938 -2.29436,2.01938c-1.1228,0 -2.05873,-0.8001 -2.26875,-1.86125l-0.48834,-2.22529l0.061,-0.01339l-0.08762,-0.12909c-0.614,-6.72094 -0.68915,-13.36707 -0.63153,-20.02526z" stroke-width="0.5"/></g></g></svg>