<svg version="1.1" xmlns="http://www.w3.org/2000/svg" xmlns:xlink="http://www.w3.org/1999/xlink" width="329.15925" height="275.04104" viewBox="0,0,329.15925,275.04104"><g transform="translate(-2.86569,-3.60193)"><g data-paper-data="{&quot;isPaintingLayer&quot;:true}" fill="#ff0000" fill-rule="nonzero" stroke="none" stroke-linecap="butt" stroke-linejoin="miter" stroke-miterlimit="10" stroke-dasharray="" stroke-dashoffset="0" style="mix-blend-mode: normal"><path d="M34.32556,17.09073c-4.5013,0.3659 -8.66934,1.96128 -12.85533,3.98424c-2.29231,1.1078 -3.58238,3.68598 -5.73711,5.0421c-1.57769,0.99295 -5.01282,0.90496 -5.64037,3.45571c-0.68675,2.79135 0.1807,7.40743 0.1807,10.33056c0,4.5125 0.4282,8.4229 0.86318,12.85773c0.27141,2.76721 -0.67134,5.62486 -0.07706,8.3411c0.51379,2.34834 2.23298,4.25812 3.30643,6.40903c3.37159,8.47272 7.54112,12.24027 15.37856,16.48925c0.49726,0.26958 5.08884,3.36219 6.10419,3.56392c6.42167,1.27589 13.85372,0.88568 20.39323,1.33789c5.98671,0.41398 11.94399,1.39895 17.00768,-2.47681c8.94087,-6.84336 10.20038,-17.63037 12.75717,-27.58543c0.07659,-5.39886 1.96622,-7.9976 3.66568,-12.97754c1.38821,-4.06788 1.62096,-10.85945 0.77305,-14.97668c-0.29003,-1.40829 -1.23736,-2.60773 -1.65336,-3.98408c-0.23311,-0.77126 0.3123,-1.85139 -0.27659,-2.40129c-2.17784,-2.03365 -5.68231,-2.02811 -8.11533,-3.74832c-3.28423,-2.32204 -5.75534,-5.11647 -9.72654,-6.59657c-3.39783,-1.2664 -6.81122,-0.81323 -10.1511,-1.6361c-1.27419,-0.31393 -2.26146,-1.39315 -3.52126,-1.76063c-3.19894,-0.93313 -6.98604,1.96652 -9.28753,3.34741c-2.34898,0.59874 -4.65357,1.44034 -6.81528,2.53723l-3.10218,1.07136c0,0 -2.04744,0.68248 -3.47082,-0.62407zM37.99591,10.22335c2.24761,-1.09498 4.59592,-2.02957 7.02286,-2.62354c4.22604,-2.53563 8.40225,-4.84279 13.60062,-3.6951c1.28144,0.28291 2.24936,1.43752 3.52126,1.76063c3.51407,0.89269 7.35258,0.51968 10.97643,1.88515c4.54089,1.71102 7.64862,4.77517 11.40099,7.48845c2.90458,2.10026 7.00235,2.47517 9.49095,5.05481c1.12769,1.16895 0.94159,3.11024 1.48404,4.64122c0.57537,1.62388 1.53757,3.12822 1.8679,4.81905c1.03184,5.28175 0.69878,13.32136 -0.98758,18.47524c-1.58798,4.85321 -3.4625,6.5894 -3.37683,11.67125c-2.86066,11.72105 -4.80527,24.43166 -15.41287,32.2759c-6.783,5.01598 -13.81478,4.50276 -21.82626,3.95168c-6.92598,-0.47641 -14.99703,-0.05708 -21.7617,-1.56935c-2.53321,-0.56631 -5.45976,-2.98925 -7.7072,-4.22209c-2.17235,-1.19165 -4.55859,-2.00132 -6.62991,-3.36101c-5.75976,-3.78091 -9.24244,-10.22289 -11.71708,-16.37942c-0.43586,-0.86997 -3.62337,-7.17399 -3.73608,-7.67599c-0.44035,-1.9613 0.14877,-7.05285 -0.07706,-9.26518c-0.47249,-4.62878 -0.89745,-8.84433 -0.89745,-13.55168c0,-3.32682 -0.93153,-9.59248 0.1807,-12.5576c0.75698,-2.01804 2.19061,-3.81465 3.83956,-5.20262c1.27094,-1.06978 3.19346,-1.02963 4.60508,-1.90544c2.43463,-1.5105 4.03725,-4.21539 6.58728,-5.52167c5.74795,-2.94446 11.82609,-4.65669 18.2393,-4.74335c0,0 0.60478,0 1.31307,0.25064z" stroke-width="0.5"/><path d="M76.86969,70.77493c0,-1.38071 1.11929,-2.5 2.5,-2.5c1.38071,0 2.5,1.11929 2.5,2.5c0,1.38071 -1.11929,2.5 -2.5,2.5c-1.38071,0 -2.5,-1.11929 -2.5,-2.5z" stroke-width="0.5"/><text transform="translate(154.36481,44.159) scale(0.63344,0.63344)" font-size="40" xml:space="preserve" fill="#ff0000" fill-rule="nonzero" stroke="none" stroke-width="1" stroke-linecap="butt" stroke-linejoin="miter" stroke-miterlimit="10" stroke-dasharray="" stroke-dashoffset="0" font-family="Sans Serif" font-weight="normal" text-anchor="start" style="mix-blend-mode: normal"><tspan x="0" dy="0">Put the mouse</tspan><tspan x="0" dy="48px">     on here!</tspan></text><path d="M209.76173,269.67827c0.34054,-1.94751 2.28805,-1.60697 2.28805,-1.60697l2.08285,0.36507c2.3888,0.56466 4.88553,0.64866 7.24117,1.33873c2.68263,0.78585 5.14957,1.89021 7.68692,2.8127c-0.97601,-1.81678 -1.88713,-3.66915 -2.40271,-5.48326c-0.27855,-0.98012 -0.1334,-2.03495 -0.26655,-3.04515c-0.51158,-3.88083 -1.29413,-7.7528 -1.9377,-11.61419c-0.39356,-2.36126 -0.47536,-4.79428 -1.16678,-7.08608c-1.08806,-3.60648 -3.10096,-7.2197 -4.58235,-10.68581c-3.13199,-7.3281 -6.37489,-14.58425 -9.69776,-21.82751c-1.01334,-4.69078 -2.03719,-9.63358 -1.95439,-14.45151c0.06752,-3.92905 1.40122,-8.00741 1.85162,-11.91417c0.43158,-3.74342 0.6481,-7.60201 0.84057,-11.3663c0.23694,-4.63423 0.00599,-9.29227 0.26303,-13.9204c0.18873,-3.39833 1.22611,-7.03151 1.0671,-10.4305c-0.09861,-2.1078 -1.08406,-4.16462 -0.89703,-6.2664c0.17782,-1.99835 0.90025,-3.9116 1.26219,-5.88494c-0.15571,-1.98277 -0.82379,-3.91146 -0.89554,-5.89905c-0.13471,-3.73208 1.10807,-7.63526 1.3463,-11.35944c0.41217,-6.44318 -0.28496,-13.28104 1.29901,-19.62473c0.60947,-2.44089 1.68982,-4.74648 2.31964,-7.18219l-0.44387,-3.38564c0,0 -0.23811,-1.96266 1.72455,-2.20077c1.96266,-0.23811 2.20077,1.72457 2.20077,1.72457l0.46507,4.10662c-0.64762,2.66931 -1.74804,5.21333 -2.42492,7.87538c-1.54828,6.08918 -0.79814,12.74757 -1.19422,18.9392c-0.225,3.51725 -1.48467,7.3061 -1.34854,10.82183c0.08303,2.14458 0.74042,4.23501 0.90122,6.37516c-0.33227,1.97169 -1.05377,3.87569 -1.26124,5.86438c-0.21012,2.014 0.81183,3.98477 0.89972,6.0078c0.15296,3.52069 -0.87687,7.22111 -1.0722,10.73801c-0.25676,4.6232 -0.02549,9.27736 -0.26231,13.90697c-0.19672,3.84572 -0.42032,7.78905 -0.86122,11.61333c-0.43359,3.76086 -1.77237,7.74318 -1.82609,11.5237c-0.0621,4.36891 0.85866,8.87399 1.75237,13.1399c3.3226,7.12496 6.49261,14.29401 9.58212,21.52275c1.54303,3.61032 3.6123,7.37305 4.74154,11.12987c0.73427,2.44283 0.85259,5.02985 1.27194,7.54594c0.65267,3.91592 1.46385,7.84956 1.96267,11.78765c0.10435,0.82384 -0.06753,1.68693 0.15741,2.48631c0.70703,2.51263 2.31026,5.14363 3.66865,7.60277c2.10401,-3.26894 3.7835,-7.50806 4.59313,-11.07326c0.30356,-1.33675 0.00375,-2.77556 0.37441,-4.09528c0.28402,-1.01117 1.03123,-1.83005 1.54685,-2.74508l0.65758,-1.40427c0,0 0.84685,-1.7865 2.63335,-0.93967c1.7865,0.84685 0.93966,2.63334 0.93966,2.63334l-0.81612,1.70467c-0.3971,0.64783 -1.00108,1.20782 -1.19131,1.94347c-0.31678,1.22506 -0.00566,2.55198 -0.28999,3.78498c-0.98925,4.28987 -3.02409,9.18693 -5.55832,12.95871c-0.12627,0.89554 -0.61962,1.31779 -1.10656,1.51387c-0.28856,0.29979 -1.14033,1.02639 -2.22053,0.50827c-1.04484,0.22465 -1.69228,-0.49704 -1.95549,-0.88167c-2.88918,-0.61862 -5.65531,-1.54409 -8.49946,-2.57675c-1.03441,-0.37557 -1.92029,-1.11817 -2.97569,-1.42995c-2.25384,-0.66583 -4.64858,-0.72535 -6.93628,-1.26345l-1.96932,-0.3435c0,0 -1.94751,-0.34054 -1.60697,-2.28805z" stroke-width="0.5"/><path d="M46.63464,65.94737c0.86549,2.11862 -0.86549,3.17793 -0.86549,3.17793l-1.36377,0.77152c-4.6294,1.41491 -8.63123,1.29436 -13.28532,0.64515c-2.66675,-0.37199 -5.87462,0.84143 -8.47241,0.01775h-1.93531c-1.06884,0 -1.93531,-1.0605 -1.93531,-2.36869c0,-0.94559 0.4527,-1.76177 1.10731,-2.14157l1.78046,-1.08959c4.95294,-4.56484 9.94891,-10.24858 11.18077,-17.95943c0.18197,-1.13903 1.14717,-4.40227 0.04543,-5.55879c-0.94043,-0.98719 -2.29407,-1.16812 -3.36763,-1.92498c-0.37961,-0.26762 -0.63718,-1.01854 -1.06981,-0.93428c-0.79813,0.15544 -1.35771,1.07757 -2.06965,1.5457c-1.72718,1.13567 -3.56966,1.98637 -5.35456,2.97937c0,0 -1.76183,0.98017 -2.56267,-1.1762c-0.80083,-2.15637 0.961,-3.13654 0.961,-3.13654c1.76328,-0.98098 7.13617,-4.78407 9.02587,-4.9497c1.00945,-0.08847 1.87851,0.92445 2.8008,1.43442c0.51839,0.28663 4.18398,2.56446 4.37358,2.8124c2.24942,2.94154 1.58677,6.38935 1.01308,9.8377c-1.2272,7.37652 -5.12766,13.1146 -9.69138,17.89076c0.66259,-0.00046 1.32517,-0.00027 1.98775,0.00206c5.08146,0.01777 9.44526,1.03602 14.52923,-0.52145l0.57153,-0.41283c0,0 1.73099,-1.05931 2.59648,1.05931z" stroke-width="0.5"/><path d="M76.59085,62.62863c0.86549,2.11862 -0.86549,3.17793 -0.86549,3.17793l-1.36377,0.77152c-4.6294,1.41491 -8.63123,1.29436 -13.28532,0.64515c-2.66675,-0.37199 -5.87462,0.84143 -8.47241,0.01775h-1.93531c-1.06884,0 -1.93531,-1.0605 -1.93531,-2.36869c0,-0.94559 0.4527,-1.76177 1.10731,-2.14157l1.78046,-1.08959c4.95294,-4.56484 9.94891,-10.24858 11.18077,-17.95943c0.18197,-1.13903 1.14717,-4.40227 0.04543,-5.55879c-0.94043,-0.98719 -2.29407,-1.16812 -3.36763,-1.92498c-0.37961,-0.26762 -0.63718,-1.01854 -1.06981,-0.93428c-0.79813,0.15544 -1.35771,1.07757 -2.06965,1.5457c-1.72718,1.13567 -3.56966,1.98637 -5.35456,2.97937c0,0 -1.76183,0.98017 -2.56267,-1.1762c-0.80083,-2.15637 0.961,-3.13654 0.961,-3.13654c1.76328,-0.98098 7.13617,-4.78407 9.02587,-4.9497c1.00945,-0.08847 1.87851,0.92445 2.8008,1.43442c0.51839,0.28663 4.18398,2.56446 4.37358,2.8124c2.24942,2.94154 1.58677,6.38935 1.01308,9.8377c-1.2272,7.37652 -5.12766,13.1146 -9.69138,17.89076c0.66259,-0.00046 1.32517,-0.00027 1.98775,0.00206c5.08146,0.01777 9.44526,1.03602 14.52923,-0.52145l0.57153,-0.41283c0,0 1.73099,-1.05931 2.59648,1.05931z" stroke-width="0.5"/></g></g></svg>