<svg version="1.1" xmlns="http://www.w3.org/2000/svg" xmlns:xlink="http://www.w3.org/1999/xlink" width="65.12274" height="79.1877" viewBox="0,0,65.12274,79.1877"><g transform="translate(-380.58252,-23.45894)"><g data-paper-data="{&quot;isPaintingLayer&quot;:true}" fill-rule="nonzero" stroke="none" stroke-linecap="butt" stroke-linejoin="miter" stroke-miterlimit="10" stroke-dasharray="" stroke-dashoffset="0" style="mix-blend-mode: normal"><path d="M433.17767,76.34908c0,14.52375 -11.77382,26.29757 -26.29757,26.29757c-14.52375,0 -26.29757,-11.77382 -26.29757,-26.29757c0,-14.52374 11.77382,-26.29757 26.29757,-26.29757c14.52375,0 26.29757,11.77383 26.29757,26.29757z" fill="#000000" stroke-width="0"/><path d="M417.46501,58.07654c-1.52885,-0.70637 -2.45082,-1.44148 -2.92244,-2.1911c-2.26174,-3.59502 5.83461,-7.52364 7.0257,-10.21431c0.8895,-2.00939 -0.05987,-4.64396 0.59177,-6.71574c1.01624,-3.23104 6.78109,-5.80787 9.93497,-6.08085c2.41744,-0.20923 3.28185,2.4068 2.50561,4.08689c-0.84324,1.82511 -7.01945,1.93504 -7.22289,3.94656c-0.64631,6.39031 -1.02539,8.37948 -6.31127,12.2026c-0.8767,0.63409 -0.77946,3.0125 -1.36578,3.41837z" fill="#cc5725" stroke-width="0.5"/><path d="M427.42585,29.32472c1.57623,-3.74126 7.09597,-3.60681 10.0943,-1.46135c0.2766,0.19792 0.57729,-0.36191 0.88202,-0.51292c1.88148,-0.93237 1.90001,-5.2206 5.66676,-3.48026c2.67058,1.23388 1.36912,4.5926 0.94095,6.70773c-0.1693,0.83632 -2.01185,1.78061 -1.27889,2.21748c0.87524,0.52169 0.77745,2.0179 0.5398,3.00872c-0.14272,0.59499 -1.46401,1.38827 -2.05879,1.74757c-1.68715,1.01917 -5.8865,2.77355 -6.19929,-0.84033c-0.34491,0.51012 -0.8587,0.90113 -1.46916,1.08711c-2.5985,2.76392 -7.98049,-6.42584 -7.1177,-8.47375z" fill="#ff8d23" stroke-width="0.5"/></g></g></svg>