<svg version="1.1" xmlns="http://www.w3.org/2000/svg" xmlns:xlink="http://www.w3.org/1999/xlink" width="398.96936" height="316.92412" viewBox="0,0,398.96936,316.92412"><g transform="translate(-2.86569,-3.60193)"><g data-paper-data="{&quot;isPaintingLayer&quot;:true}" fill="#ff0000" fill-rule="nonzero" stroke="none" stroke-linecap="butt" stroke-linejoin="miter" stroke-miterlimit="10" stroke-dasharray="" stroke-dashoffset="0" style="mix-blend-mode: normal"><path d="M34.32556,17.09073c-4.5013,0.3659 -8.66934,1.96128 -12.85533,3.98424c-2.29231,1.1078 -3.58238,3.68598 -5.73711,5.0421c-1.57769,0.99295 -5.01282,0.90496 -5.64037,3.45571c-0.68675,2.79135 0.1807,7.40743 0.1807,10.33056c0,4.5125 0.4282,8.4229 0.86318,12.85773c0.27141,2.76721 -0.67134,5.62486 -0.07706,8.3411c0.51379,2.34834 2.23298,4.25812 3.30643,6.40903c3.37159,8.47272 7.54112,12.24027 15.37856,16.48925c0.49726,0.26958 5.08884,3.36219 6.10419,3.56392c6.42167,1.27589 13.85372,0.88568 20.39323,1.33789c5.98671,0.41398 11.94399,1.39895 17.00768,-2.47681c8.94087,-6.84336 10.20038,-17.63037 12.75717,-27.58543c0.07659,-5.39886 1.96622,-7.9976 3.66568,-12.97754c1.38821,-4.06788 1.62096,-10.85945 0.77305,-14.97668c-0.29003,-1.40829 -1.23736,-2.60773 -1.65336,-3.98408c-0.23311,-0.77126 0.3123,-1.85139 -0.27659,-2.40129c-2.17784,-2.03365 -5.68231,-2.02811 -8.11533,-3.74832c-3.28423,-2.32204 -5.75534,-5.11647 -9.72654,-6.59657c-3.39783,-1.2664 -6.81122,-0.81323 -10.1511,-1.6361c-1.27419,-0.31393 -2.26146,-1.39315 -3.52126,-1.76063c-3.19894,-0.93313 -6.98604,1.96652 -9.28753,3.34741c-2.34898,0.59874 -4.65357,1.44034 -6.81528,2.53723l-3.10218,1.07136c0,0 -2.04744,0.68248 -3.47082,-0.62407zM37.99591,10.22335c2.24761,-1.09498 4.59592,-2.02957 7.02286,-2.62354c4.22604,-2.53563 8.40225,-4.84279 13.60062,-3.6951c1.28144,0.28291 2.24936,1.43752 3.52126,1.76063c3.51407,0.89269 7.35258,0.51968 10.97643,1.88515c4.54089,1.71102 7.64862,4.77517 11.40099,7.48845c2.90458,2.10026 7.00235,2.47517 9.49095,5.05481c1.12769,1.16895 0.94159,3.11024 1.48404,4.64122c0.57537,1.62388 1.53757,3.12822 1.8679,4.81905c1.03184,5.28175 0.69878,13.32136 -0.98758,18.47524c-1.58798,4.85321 -3.4625,6.5894 -3.37683,11.67125c-2.86066,11.72105 -4.80527,24.43166 -15.41287,32.2759c-6.783,5.01598 -13.81478,4.50276 -21.82626,3.95168c-6.92598,-0.47641 -14.99703,-0.05708 -21.7617,-1.56935c-2.53321,-0.56631 -5.45976,-2.98925 -7.7072,-4.22209c-2.17235,-1.19165 -4.55859,-2.00132 -6.62991,-3.36101c-5.75976,-3.78091 -9.24244,-10.22289 -11.71708,-16.37942c-0.43586,-0.86997 -3.62337,-7.17399 -3.73608,-7.67599c-0.44035,-1.9613 0.14877,-7.05285 -0.07706,-9.26518c-0.47249,-4.62878 -0.89745,-8.84433 -0.89745,-13.55168c0,-3.32682 -0.93153,-9.59248 0.1807,-12.5576c0.75698,-2.01804 2.19061,-3.81465 3.83956,-5.20262c1.27094,-1.06978 3.19346,-1.02963 4.60508,-1.90544c2.43463,-1.5105 4.03725,-4.21539 6.58728,-5.52167c5.74795,-2.94446 11.82609,-4.65669 18.2393,-4.74335c0,0 0.60478,0 1.31307,0.25064z" stroke-width="0.5"/><path d="M76.86969,70.77493c0,-1.38071 1.11929,-2.5 2.5,-2.5c1.38071,0 2.5,1.11929 2.5,2.5c0,1.38071 -1.11929,2.5 -2.5,2.5c-1.38071,0 -2.5,-1.11929 -2.5,-2.5z" stroke-width="0.5"/><path d="M46.03886,67.36902c0,2.14607 -2.14606,2.14606 -2.14606,2.14606l-2.03278,-0.22656c-5.09645,-2.62171 -10.34947,-0.19322 -15.6288,-1.4404c-0.77837,-0.18389 -1.37341,-0.86648 -2.14606,-1.07303c-1.22353,-0.32709 -2.53256,0.05741 -3.79906,0.05741c0,0 -2.14606,0 -2.14606,-2.14606c0,-2.14607 2.14607,-2.14607 2.14607,-2.14607c0.55009,0 4.47632,-0.01555 4.78519,0.05741c0.77837,0.18389 1.37341,0.86648 2.14607,1.07304c0.71047,0.18994 1.44976,0.13993 2.19282,0.06461c0.08503,-7.41164 1.54912,-14.83835 2.14659,-22.24725c0.27584,-3.42067 0.16403,-6.93846 0.07184,-10.4247c-1.85258,0.89357 -3.71625,1.79702 -5.46245,2.76635c-1.39656,0.77524 -2.73014,1.78194 -4.28618,2.14271l-1.14941,1.25954c0,0 -1.5175,1.5175 -3.03499,0c-1.5175,-1.5175 0,-3.03499 0,-3.03499l2.06968,-1.95955c4.07185,-1.08311 7.97061,-3.81033 11.80674,-5.88166c0.07296,-0.55879 0.42531,-1.90813 2.12701,-1.90813c2.14607,0 2.14607,2.14606 2.14607,2.14606c0,0.25388 0.00101,0.50819 0.00286,0.76289c0.053,0.26502 0.0493,0.50641 0.00742,0.72418c0.05912,4.53357 0.34072,9.17421 -0.01411,13.66346c-0.57406,7.26283 -2.10564,14.59468 -2.14231,21.86324c3.48414,0.01122 6.73124,0.20387 10.0806,1.84197l0.11328,-0.22656c0,0 2.14607,0 2.14607,2.14606z" stroke-width="0.5"/><text transform="translate(139.00714,282.20294) scale(0.63344,0.63344)" font-size="40" xml:space="preserve" fill="#ff0000" fill-rule="nonzero" stroke="none" stroke-width="1" stroke-linecap="butt" stroke-linejoin="miter" stroke-miterlimit="10" stroke-dasharray="" stroke-dashoffset="0" font-family="Sans Serif" font-weight="normal" text-anchor="start" style="mix-blend-mode: normal"><tspan x="0" dy="0">Put the mouse</tspan><tspan x="0" dy="48px">     on here!</tspan></text><path d="M401.14202,117.47836c-1.46904,1.32313 -2.79217,-0.14591 -2.79217,-0.14591l-1.41455,-1.57181c-1.53232,-1.9176 -3.44601,-3.52338 -4.87489,-5.51925c-1.62723,-2.27293 -2.88825,-4.66358 -4.31685,-6.95448c-0.352,2.03209 -0.77704,4.05218 -1.48985,5.79823c-0.38512,0.94335 -1.14987,1.68423 -1.668,2.5616c-1.99044,3.37056 -3.76211,6.90125 -5.63665,10.3379c-1.14629,2.10154 -2.58225,4.06732 -3.45122,6.29786c-1.36744,3.51008 -2.01098,7.59579 -2.98222,11.23792c-2.0534,7.70026 -3.97511,15.41227 -5.82592,23.16345c-2.09491,4.31759 -4.33696,8.84007 -7.37319,12.58181c-2.47606,3.05141 -6.04096,5.43956 -8.80469,8.23731c-2.64819,2.68078 -5.19809,5.58484 -7.67091,8.4295c-3.04429,3.50207 -5.73493,7.31142 -8.79128,10.7963c-2.2442,2.55887 -5.30131,4.77929 -7.27217,7.55312c-1.22218,1.72012 -1.71477,3.947 -3.1581,5.48624c-1.3723,1.4635 -3.12084,2.52416 -4.62266,3.85443c-1.10013,1.65691 -1.76355,3.58721 -2.93274,5.19613c-2.19539,3.02106 -5.5807,5.32737 -8.06481,8.11223c-4.29775,4.81807 -7.96562,10.6309 -13.12449,14.64805c-1.985,1.54569 -4.25725,2.6945 -6.25508,4.22357l-1.73838,2.93898c0,0 -1.02286,1.69189 -2.71475,0.66903c-1.69189,-1.02286 -0.66902,-2.71476 -0.66902,-2.71476l2.16629,-3.51963c2.15589,-1.70199 4.59098,-3.02611 6.76543,-4.70434c4.97383,-3.83879 8.48929,-9.54304 12.61925,-14.173c2.34609,-2.63012 5.67419,-4.83601 7.73505,-7.68763c1.25712,-1.73947 2.0287,-3.7905 3.22187,-5.57444c1.47744,-1.34727 3.21955,-2.40122 4.60924,-3.83883c1.40737,-1.4559 1.81817,-3.63754 2.99651,-5.28432c2.05067,-2.8659 5.1433,-5.14391 7.46581,-7.79205c3.05309,-3.48117 5.74109,-7.28766 8.78243,-10.78617c2.52638,-2.90614 5.13412,-5.87255 7.8395,-8.61123c2.66052,-2.69327 6.1702,-5.00268 8.5438,-7.94567c2.74304,-3.40103 4.79632,-7.51534 6.7234,-11.4247c1.77807,-7.65788 3.70346,-15.25638 5.72902,-22.85222c1.01164,-3.79367 1.703,-8.03183 3.13073,-11.68566c0.92837,-2.37586 2.43055,-4.48539 3.65201,-6.72472c1.90101,-3.48519 3.68816,-7.08208 5.72396,-10.48986c0.42589,-0.7129 1.09343,-1.28635 1.4093,-2.05436c0.99286,-2.41401 1.3532,-5.47385 1.8003,-8.24743c-3.67217,1.27593 -7.60842,3.57739 -10.44432,5.88474c-1.0633,0.86513 -1.71454,2.18268 -2.82016,2.99302c-0.84714,0.62088 -1.94034,0.80474 -2.91051,1.20711l-1.38363,0.69997c0,0 -1.76833,0.88416 -2.6525,-0.88416c-0.88416,-1.76833 0.88416,-2.65249 0.88416,-2.65249l1.69368,-0.83869c0.7121,-0.26511 1.5329,-0.3335 2.1363,-0.79531c1.00483,-0.76905 1.57817,-2.00549 2.56235,-2.80081c3.42417,-2.76706 8.0459,-5.36734 12.36683,-6.77381c0.65165,-0.62713 1.30041,-0.6553 1.80466,-0.50938c0.41203,-0.05806 1.53064,-0.1048 2.06149,0.9692c0.96106,0.46746 1.0257,1.43485 0.99572,1.89996c1.89296,2.26865 3.49982,4.70298 5.10201,7.2698c0.58271,0.93354 0.82217,2.06443 1.46074,2.9607c1.36369,1.91402 3.21218,3.43763 4.68129,5.27198l1.33848,1.48482c0,0 1.32313,1.46904 -0.14591,2.79217z" stroke-width="0.5"/><path d="M52.69126,65.62375c0,-1.46852 0.95832,-1.848 1.45361,-1.94607c2.30807,-2.69481 4.32802,-5.56917 6.48362,-8.42044c0.97569,-1.29056 2.29523,-2.2296 3.18889,-3.59473c0.4177,-0.63806 0.52596,-1.49184 0.93889,-2.13389c0.95643,-1.48712 2.28951,-2.45781 3.55801,-3.53896c1.23122,-1.3676 2.22859,-3.12341 2.7796,-5.01489c0.26692,-0.91629 0.18179,-1.95106 0.5269,-2.83298c0.33918,-0.86681 0.95941,-1.55423 1.48003,-2.29579c0.25048,-0.35678 0.9184,-0.54845 0.82918,-0.99346c-0.07614,-0.37977 -0.70153,0.1182 -1.02826,0.0005c-0.54008,-0.19455 -0.94001,-0.80478 -1.49884,-0.91086c-1.01883,-0.1934 -2.07002,0.14517 -3.09866,0.03814c-1.285,-0.13371 -2.47518,-0.88472 -3.75555,-1.06695c-1.38379,-0.19695 -2.7961,0.16279 -4.18379,0.0052c-4.20716,-0.47779 -8.24322,-2.14313 -12.50328,-2.12426c0,0 -1.74257,0 -1.74257,-1.98024c0,-1.98024 1.74257,-1.98024 1.74257,-1.98024c4.38966,0.01679 8.51746,1.65118 12.84669,2.14353c0.90171,0.10254 3.34424,-0.12556 4.2662,0.0052c1.28044,0.1816 2.47039,0.93514 3.75555,1.06695c1.15322,0.11828 2.33677,-0.21206 3.47355,0.03814c0.78639,0.17307 4.83734,2.79167 4.984,3.35742c0.96024,3.70419 -1.46038,3.94711 -2.38523,6.31328c-0.30306,0.77535 -0.1745,1.69743 -0.41199,2.50175c-0.77559,2.62666 -2.11576,4.7869 -3.79262,6.72153c-0.62224,0.53033 -2.45519,1.94793 -3.0142,2.86273c-0.39915,0.65321 -0.51707,1.49934 -0.93889,2.13389c-1.08621,1.63403 -2.2634,2.38547 -3.38332,3.87391c-2.34913,3.12213 -4.55833,6.25406 -7.1259,9.17184l-1.70162,0.58c0,0 -1.74257,0 -1.74257,-1.98024z" stroke-width="0.5"/></g></g></svg>