<svg version="1.1" xmlns="http://www.w3.org/2000/svg" xmlns:xlink="http://www.w3.org/1999/xlink" width="128.14688" height="275.50113" viewBox="0,0,128.14688,275.50113"><g transform="translate(-159.29062,-180)"><g data-paper-data="{&quot;isPaintingLayer&quot;:true}" fill="#000000" fill-rule="nonzero" stroke="none" stroke-linecap="butt" stroke-linejoin="miter" stroke-miterlimit="10" stroke-dasharray="" stroke-dashoffset="0" style="mix-blend-mode: normal"><path d="M287.4375,266.31255l0,0.18745c-0.09308,0 -0.18615,0 -0.27923,0c0.09295,-0.06271 0.18601,-0.12521 0.27923,-0.18745z" stroke-width="0.5"/><path d="M161.3265,455.49753c-1.12517,-0.05001 -1.72091,-0.58439 -2.03588,-1.15657c0.06871,-0.09803 0.13962,-0.19157 0.21795,-0.2699c1.79403,-1.79403 3.74272,-3.44703 5.42988,-5.33853c-0.00063,0.08912 -0.00095,0.17827 -0.00095,0.26746c0,0.66667 0,1.33333 0,2l-1.00247,2.111c0,0 -0.111,2.49753 -2.60854,2.38653z" stroke-width="0.5"/><path d="M167.13169,409.53884c-0.03537,0.19732 -0.07343,0.39177 -0.11395,0.58398c0.07249,-1.92759 0.19171,-3.85055 0.54679,-5.75875c-0.00942,1.75275 -0.13065,3.48908 -0.43284,5.17477z" stroke-width="0.5"/><path d="M185.4375,449v-269h98v269z" stroke-width="0"/></g></g></svg>