<svg version="1.1" xmlns="http://www.w3.org/2000/svg" xmlns:xlink="http://www.w3.org/1999/xlink" width="20.57795" height="36.90289" viewBox="0,0,20.57795,36.90289"><g transform="translate(-238.74929,-179.01418)"><g data-paper-data="{&quot;isPaintingLayer&quot;:true}" fill-rule="nonzero" stroke="none" stroke-linecap="butt" stroke-linejoin="miter" stroke-miterlimit="10" stroke-dasharray="" stroke-dashoffset="0" style="mix-blend-mode: normal"><path d="M240.8171,204.82876c-0.90241,0.29703 -1.19943,-0.60538 -1.19943,-0.60538l-0.40365,-1.23185c-0.3834,-1.93119 -0.404,-3.56362 -0.404,-5.5254c0,-4.70113 -0.23235,-9.47175 0.21189,-14.15429c0.12244,-1.2906 0.03608,-3.52114 1.61062,-4.23788c0.98269,-0.44732 2.82858,1.74965 3.21941,2.13987c1.64381,1.64126 3.99537,3.82407 6.17279,4.74312c0.48913,0.20646 1.07101,0.14988 1.54401,0.39101c0.64013,0.32632 1.15614,0.85344 1.73422,1.28015c0.19373,0.21255 0.32775,0.50169 0.58118,0.63764c0.27994,0.15017 0.67456,-0.00318 0.93653,0.1765c1.46167,1.00256 2.47181,2.75061 3.3055,4.26957c0.41951,0.76434 1.37755,1.49057 1.17272,2.33806c-0.40312,1.66795 -2.1039,1.11473 -3.07883,1.70434c-0.28775,0.17402 -0.42388,0.53653 -0.70399,0.72259c-1.19738,0.79531 -2.78957,1.60967 -4.16784,2.25904c0.46785,0.78613 0.91416,1.57873 1.2783,2.39467c0.25303,0.56698 0.28287,1.21734 0.53894,1.78294c0.49605,1.09565 1.43254,1.95736 1.90946,3.06148c0.79915,1.85011 1.3907,4.42126 1.50295,6.42231l0.95454,0.8777c0,0 0.67178,0.67178 0,1.34355c-0.67178,0.67178 -1.34355,0 -1.34355,0l-1.32554,-1.40237c-0.2916,-2.07641 -0.70397,-4.56682 -1.53715,-6.49813c-0.47032,-1.09019 -1.39627,-1.93925 -1.89067,-3.01873c-0.26091,-0.56968 -0.29245,-1.22571 -0.54601,-1.7987c-0.36364,-0.82175 -0.81582,-1.62023 -1.29004,-2.41243c-0.82993,0.29926 -1.5518,0.45777 -2.62534,0.69966c-0.5347,0.12048 -1.13422,0.05733 -1.6115,0.32681c-0.56447,0.31872 -0.82018,1.04707 -1.38503,1.36512c-0.78536,0.44221 -1.74112,0.38736 -2.66409,0.4201l0.109,0.32951c0,0 0.29703,0.90241 -0.60538,1.19943zM240.86972,201.40352c0.47225,-0.06182 0.94431,-0.12534 1.41791,-0.17558c0.28405,-0.03014 0.61438,0.09862 0.85515,-0.05507c0.52135,-0.3328 0.75787,-1.02803 1.30207,-1.32198c0.09494,-0.05128 3.60084,-0.85943 3.87657,-0.94452c0.08994,-0.02776 0.17913,-0.05672 0.26762,-0.08681c-0.33288,-0.55807 -0.65346,-1.11894 -0.93842,-1.68858c0,0 -0.42487,-0.84974 0.42487,-1.2746c0.84974,-0.42487 1.2746,0.42487 1.2746,0.42487c0.30102,0.60238 0.63975,1.19453 0.99059,1.78357c0.89414,-0.4539 1.7545,-0.97141 2.65959,-1.44054c0.46303,-0.24 0.97139,-0.39879 1.40481,-0.68887c0.31608,-0.21154 0.48936,-0.60272 0.81606,-0.79746c0.38734,-0.2309 0.83917,-0.33739 1.27594,-0.44958c0.31434,-0.08074 0.95509,0.19822 0.96541,-0.12615c0.0132,-0.41523 -0.67735,-0.49811 -0.93521,-0.82384c-0.87118,-1.10047 -1.33879,-2.8107 -2.59384,-3.61591c-0.26737,-0.17154 -0.65991,-0.02031 -0.93653,-0.1765c-0.37399,-0.21117 -0.62592,-0.58828 -0.93887,-0.88242c-0.43529,-0.33331 -0.81328,-0.75926 -1.30588,-0.99992c-0.46151,-0.22548 -1.025,-0.16432 -1.49609,-0.36902c-1.94206,-0.84383 -3.92749,-2.58857 -5.53815,-3.93425c-0.43637,-0.36458 -0.80774,-0.80057 -1.2095,-1.20297c-0.41969,-0.42035 -0.88165,-0.80313 -1.25484,-1.26526c-0.08466,-0.10483 -0.03353,-0.51915 -0.08591,-0.395c-0.33674,0.79826 -0.17883,1.72359 -0.25348,2.58675c-0.10686,1.23565 -0.18102,2.47555 -0.19371,3.71575c-0.03501,3.42177 -0.01038,6.84459 -0.01038,10.26652c0,1.40634 -0.00808,2.62781 0.15964,3.93738z" fill="#000000" stroke-width="0.5"/><path d="M240.8385,201.44257c-0.16772,-1.30957 -0.16829,-2.53994 -0.16829,-3.94628c0,-3.42193 -0.02997,-6.89621 0.00504,-10.31798c0.01269,-1.2402 0.0956,-2.49298 0.20246,-3.72863c0.07465,-0.86316 -0.07735,-1.79386 0.25939,-2.59212c0.05238,-0.12415 0.06294,0.36887 0.1476,0.4737c0.37319,0.46213 0.77363,0.76608 1.19332,1.18643c0.40176,0.4024 0.77413,0.83764 1.2105,1.20222c1.61066,1.34568 3.62801,3.08093 5.57007,3.92476c0.47109,0.2047 1.05592,0.14954 1.51743,0.37502c0.4926,0.24066 0.88774,0.68195 1.32303,1.01526c0.31295,0.29414 0.5717,0.68528 0.94569,0.89645c0.27662,0.15619 0.67027,0.00928 0.93764,0.18082c1.25505,0.80521 1.72093,2.54217 2.59211,3.64264c0.25786,0.32573 0.94749,0.41104 0.93429,0.82627c-0.01032,0.32437 -0.65226,0.04809 -0.9666,0.12883c-0.43677,0.11219 -0.8918,0.22438 -1.27914,0.45528c-0.3267,0.19474 -0.50473,0.5921 -0.82081,0.80364c-0.43342,0.29008 -0.94986,0.45609 -1.41289,0.69609c-0.90509,0.46913 -1.78557,0.99515 -2.67971,1.44905c-0.35084,-0.58904 -0.69591,-1.18045 -0.99693,-1.78283c0,0 -0.4379,-0.85077 -1.28764,-0.4259c-0.84974,0.42486 -0.40282,1.17707 -0.40282,1.17707c0.28496,0.56964 0.59713,1.12924 0.93001,1.68731c-0.08849,0.03009 -0.18576,0.15871 -0.2757,0.18647c-0.27573,0.08509 -3.80025,0.88761 -3.89519,0.93889c-0.5442,0.29395 -0.7827,0.98807 -1.30405,1.32087c-0.24077,0.15369 -0.57356,0.02337 -0.85761,0.05351c-0.4736,0.05024 -0.94897,0.11133 -1.42122,0.17315z" data-paper-data="{&quot;noHover&quot;:false,&quot;origItem&quot;:[&quot;Path&quot;,{&quot;applyMatrix&quot;:true,&quot;segments&quot;:[[[240.86972,201.40352],[0,0],[0.47225,-0.06182]],[[242.28763,201.22794],[-0.4736,0.05024],[0.28405,-0.03014]],[[243.14278,201.17287],[-0.24077,0.15369],[0.52135,-0.3328]],[[244.44485,199.85089],[-0.5442,0.29395],[0.09494,-0.05128]],[[248.32142,198.90637],[-0.27573,0.08509],[0.08994,-0.02776]],[[248.58904,198.81956],[-0.08849,0.03009],[-0.33288,-0.55807]],[[247.65062,197.13098],[0.28496,0.56964],[0,0]],[[248.07549,195.85638],[-0.84974,0.42486],[0.84974,-0.42487]],[[249.35009,196.28125],[0,0],[0.30102,0.60238]],[[250.34068,198.06482],[-0.35084,-0.58904],[0.89414,-0.4539]],[[253.00027,196.62428],[-0.90509,0.46913],[0.46303,-0.24]],[[254.40508,195.93541],[-0.43342,0.29008],[0.31608,-0.21154]],[[255.22114,195.13795],[-0.3267,0.19474],[0.38734,-0.2309]],[[256.49708,194.68837],[-0.43677,0.11219],[0.31434,-0.08074]],[[257.46249,194.56222],[-0.01032,0.32437],[0.0132,-0.41523]],[[256.52728,193.73838],[0.25786,0.32573],[-0.87118,-1.10047]],[[253.93344,190.12247],[1.25505,0.80521],[-0.26737,-0.17154]],[[252.99691,189.94597],[0.27662,0.15619],[-0.37399,-0.21117]],[[252.05804,189.06355],[0.31295,0.29414],[-0.43529,-0.33331]],[[250.75216,188.06363],[0.4926,0.24066],[-0.46151,-0.22548]],[[249.25607,187.69461],[0.47109,0.2047],[-1.94206,-0.84383]],[[243.71792,183.76036],[1.61066,1.34568],[-0.43637,-0.36458]],[[242.50842,182.55739],[0.40176,0.4024],[-0.41969,-0.42035]],[[241.25358,181.29213],[0.37319,0.46213],[-0.08466,-0.10483]],[[241.16767,180.89713],[0.05238,-0.12415],[-0.33674,0.79826]],[[240.91419,183.48388],[0.07465,-0.86316],[-0.10686,1.23565]],[[240.72048,187.19963],[0.01269,-1.2402],[-0.03501,3.42177]],[[240.7101,197.46615],[0,-3.42193],[0,1.40634]],[[240.86974,201.40353],[-0.16772,-1.30957],[0,0]]],&quot;closed&quot;:true,&quot;fillColor&quot;:[0.6,0.4,1],&quot;strokeWidth&quot;:0.5}]}" fill="#ffffff" stroke-width="0.25"/></g></g></svg>