<svg version="1.1" xmlns="http://www.w3.org/2000/svg" xmlns:xlink="http://www.w3.org/1999/xlink" width="361.21097" height="92.66415" viewBox="0,0,361.21097,92.66415"><g transform="translate(-2.86569,-3.60195)"><g data-paper-data="{&quot;isPaintingLayer&quot;:true}" fill="#ff0000" fill-rule="nonzero" stroke="none" stroke-linecap="butt" stroke-linejoin="miter" stroke-miterlimit="10" stroke-dasharray="" stroke-dashoffset="0" style="mix-blend-mode: normal"><path d="M34.32556,17.09073c-4.5013,0.3659 -8.66934,1.96128 -12.85533,3.98424c-2.29231,1.1078 -3.58238,3.68598 -5.73711,5.0421c-1.57769,0.99295 -5.01282,0.90496 -5.64037,3.45571c-0.68675,2.79135 0.1807,7.40743 0.1807,10.33056c0,4.5125 0.4282,8.4229 0.86318,12.85773c0.27141,2.76721 -0.67134,5.62486 -0.07706,8.3411c0.51379,2.34834 2.23298,4.25812 3.30643,6.40903c3.37159,8.47272 7.54112,12.24027 15.37856,16.48925c0.49726,0.26958 5.08884,3.36219 6.10419,3.56392c6.42167,1.27589 13.85372,0.88568 20.39323,1.33789c5.98671,0.41398 11.94399,1.39895 17.00768,-2.47681c8.94087,-6.84336 10.20038,-17.63037 12.75717,-27.58543c0.07659,-5.39886 1.96622,-7.9976 3.66568,-12.97754c1.38821,-4.06788 1.62096,-10.85945 0.77305,-14.97668c-0.29003,-1.40829 -1.23736,-2.60773 -1.65336,-3.98408c-0.23311,-0.77126 0.3123,-1.85139 -0.27659,-2.40129c-2.17784,-2.03365 -5.68231,-2.02811 -8.11533,-3.74832c-3.28423,-2.32204 -5.75534,-5.11647 -9.72654,-6.59657c-3.39783,-1.2664 -6.81122,-0.81323 -10.1511,-1.6361c-1.27419,-0.31393 -2.26146,-1.39315 -3.52126,-1.76063c-3.19894,-0.93313 -6.98604,1.96652 -9.28753,3.34741c-2.34898,0.59874 -4.65357,1.44034 -6.81528,2.53723l-3.10218,1.07136c0,0 -2.04744,0.68248 -3.47082,-0.62407zM37.99591,10.22336c2.24761,-1.09498 4.59592,-2.02957 7.02286,-2.62354c4.22604,-2.53563 8.40225,-4.84279 13.60062,-3.6951c1.28144,0.28291 2.24936,1.43752 3.52126,1.76063c3.51407,0.89269 7.35258,0.51968 10.97643,1.88515c4.54089,1.71102 7.64862,4.77517 11.40099,7.48845c2.90458,2.10026 7.00235,2.47517 9.49095,5.05481c1.12769,1.16895 0.94159,3.11024 1.48404,4.64122c0.57537,1.62388 1.53757,3.12822 1.8679,4.81905c1.03184,5.28175 0.69878,13.32136 -0.98758,18.47524c-1.58798,4.85321 -3.4625,6.5894 -3.37683,11.67125c-2.86066,11.72105 -4.80527,24.43166 -15.41287,32.2759c-6.783,5.01598 -13.81478,4.50276 -21.82626,3.95168c-6.92598,-0.47641 -14.99703,-0.05708 -21.7617,-1.56935c-2.53321,-0.56631 -5.45976,-2.98925 -7.7072,-4.22209c-2.17235,-1.19165 -4.55859,-2.00132 -6.62991,-3.36101c-5.75976,-3.78091 -9.24244,-10.22289 -11.71708,-16.37942c-0.43586,-0.86997 -3.62337,-7.17399 -3.73608,-7.67599c-0.44035,-1.9613 0.14877,-7.05285 -0.07706,-9.26518c-0.47249,-4.62878 -0.89745,-8.84433 -0.89745,-13.55168c0,-3.32682 -0.93153,-9.59248 0.1807,-12.5576c0.75698,-2.01804 2.19061,-3.81465 3.83956,-5.20262c1.27094,-1.06978 3.19346,-1.02963 4.60508,-1.90544c2.43463,-1.5105 4.03725,-4.21539 6.58728,-5.52167c5.74795,-2.94446 11.82609,-4.65669 18.2393,-4.74335c0,0 0.60478,0 1.31307,0.25064z" stroke-width="0.5"/><path d="M75.86967,67.77494c0,-1.38071 1.11929,-2.5 2.5,-2.5c1.38071,0 2.5,1.11929 2.5,2.5c0,1.38071 -1.11929,2.5 -2.5,2.5c-1.38071,0 -2.5,-1.11929 -2.5,-2.5z" stroke-width="0.5"/><path d="M46.63463,65.94736c0.86549,2.11862 -0.86549,3.17793 -0.86549,3.17793l-1.36377,0.77152c-4.6294,1.41491 -8.63123,1.29436 -13.28532,0.64515c-2.66675,-0.37199 -5.87462,0.84143 -8.47241,0.01775h-1.93531c-1.06884,0 -1.93531,-1.0605 -1.93531,-2.36869c0,-0.94559 0.4527,-1.76177 1.10731,-2.14157l1.78046,-1.08959c4.95294,-4.56484 9.94891,-10.24858 11.18077,-17.95943c0.18197,-1.13903 1.14717,-4.40227 0.04543,-5.55879c-0.94043,-0.98719 -2.29407,-1.16812 -3.36763,-1.92498c-0.37961,-0.26762 -0.63718,-1.01854 -1.06981,-0.93428c-0.79813,0.15544 -1.35771,1.07757 -2.06965,1.5457c-1.72718,1.13567 -3.56966,1.98637 -5.35456,2.97937c0,0 -1.76183,0.98017 -2.56267,-1.1762c-0.80083,-2.15637 0.961,-3.13654 0.961,-3.13654c1.76328,-0.98098 7.13617,-4.78407 9.02587,-4.9497c1.00945,-0.08847 1.87851,0.92445 2.8008,1.43442c0.51839,0.28663 4.18398,2.56446 4.37358,2.8124c2.24942,2.94154 1.58677,6.38935 1.01308,9.8377c-1.2272,7.37652 -5.12766,13.1146 -9.69138,17.89076c0.66259,-0.00046 1.32517,-0.00027 1.98775,0.00206c5.08146,0.01777 9.44526,1.03602 14.52923,-0.52145l0.57153,-0.41283c0,0 1.73099,-1.05931 2.59648,1.05931z" stroke-width="0.5"/><text transform="translate(126.88309,50.47072) scale(0.58333,0.58333)" font-size="40" xml:space="preserve" fill="#ff0000" fill-rule="nonzero" stroke="none" stroke-width="1" stroke-linecap="butt" stroke-linejoin="miter" stroke-miterlimit="10" stroke-dasharray="" stroke-dashoffset="0" font-family="Sans Serif" font-weight="normal" text-anchor="start" style="mix-blend-mode: normal"><tspan x="0" dy="0">What is the capital of</tspan><tspan x="0" dy="48px">       Washington?</tspan></text><path d="M55.06113,65.81362c0,-1.32772 0.86644,-1.67082 1.31424,-1.75948c2.08678,-2.43644 3.91306,-5.03521 5.86198,-7.61311c0.88214,-1.16682 2.07517,-2.01583 2.88315,-3.25007c0.37765,-0.57688 0.47553,-1.34881 0.84887,-1.9293c0.86473,-1.34454 2.07,-2.22216 3.21688,-3.19965c1.11317,-1.23648 2.01492,-2.82394 2.5131,-4.53407c0.24133,-0.82844 0.16436,-1.764 0.47638,-2.56136c0.30666,-0.7837 0.86742,-1.40521 1.33813,-2.07567c0.22646,-0.32257 0.83035,-0.49587 0.74968,-0.89821c-0.06884,-0.34336 -0.63427,0.10687 -0.92967,0.00045c-0.4883,-0.1759 -0.84988,-0.72762 -1.35513,-0.82353c-0.92115,-0.17486 -1.87155,0.13125 -2.80157,0.03448c-1.1618,-0.12089 -2.23786,-0.79989 -3.39548,-0.96465c-1.25112,-0.17807 -2.52802,0.14718 -3.78266,0.0047c-3.80379,-0.43198 -7.45288,-1.93765 -11.30449,-1.92059c0,0 -1.5755,0 -1.5755,-1.79038c0,-1.79038 1.5755,-1.79038 1.5755,-1.79038c3.96879,0.01518 7.70082,1.49287 11.61498,1.93801c0.81526,0.09271 3.0236,-0.11352 3.85717,0.0047c1.15767,0.16419 2.23353,0.84548 3.39548,0.96465c1.04265,0.10694 2.11273,-0.19173 3.14051,0.03448c0.71099,0.15648 4.37355,2.52401 4.50614,3.03552c0.86817,3.34904 -1.32036,3.56867 -2.15654,5.70798c-0.274,0.70101 -0.15777,1.53468 -0.37249,2.26189c-0.70123,2.37482 -1.91291,4.32794 -3.42899,6.07708c-0.56258,0.47948 -2.21979,1.76117 -2.7252,2.58826c-0.36088,0.59058 -0.46749,1.35559 -0.84887,1.9293c-0.98207,1.47736 -2.04639,2.15676 -3.05893,3.50249c-2.1239,2.82279 -4.12129,5.65443 -6.44268,8.29246l-1.53847,0.52439c0,0 -1.5755,0 -1.5755,-1.79038z" stroke-width="0.5"/></g></g></svg>