<svg version="1.1" xmlns="http://www.w3.org/2000/svg" xmlns:xlink="http://www.w3.org/1999/xlink" width="68.89132" height="80.6164" viewBox="0,0,68.89132,80.6164"><g transform="translate(-380,-21.45256)"><g data-paper-data="{&quot;isPaintingLayer&quot;:true}" fill-rule="nonzero" stroke="none" stroke-linecap="butt" stroke-linejoin="miter" stroke-miterlimit="10" stroke-dasharray="" stroke-dashoffset="0" style="mix-blend-mode: normal"><path d="M432.61349,75.76222c0,14.52882 -11.77792,26.30674 -26.30674,26.30674c-14.52882,0 -26.30674,-11.77792 -26.30674,-26.30674c0,-14.52881 11.77792,-26.30674 26.30674,-26.30674c14.52882,0 26.30674,11.77794 26.30674,26.30674z" fill="#000000" stroke-width="0"/><path d="M419.14909,56.97107c-1.46275,-0.83586 -2.31821,-1.64802 -2.72356,-2.4358c-1.944,-3.77798 6.4639,-6.99493 7.88306,-9.57377c1.05983,-1.92587 0.34092,-4.63344 1.16907,-6.64201c1.29152,-3.13246 7.25918,-5.20332 10.42595,-5.20332c2.42732,0 3.06316,2.68176 2.14461,4.28923c-0.99783,1.74621 -7.16266,1.32301 -7.53893,3.31019c-1.19536,6.31298 -1.74474,8.26273 -7.34255,11.61698c-0.92843,0.55632 -1.03668,2.93509 -1.65603,3.28901z" fill="#cc5725" stroke-width="0.5"/><path d="M437.23556,23.42362c0.61777,0.10643 0.70098,-1.04685 1.13334,-1.50076c0.78093,-0.81981 2.64147,-0.37556 3.54053,-0.09995c1.10607,0.33907 0.79677,1.3606 1.31762,1.83867c0.85363,0.78352 5.54464,3.33926 5.6566,5.35438c0.29699,5.3458 -8.10647,7.50235 -11.3815,6.68359c-0.15418,0.02692 -0.31279,0.04096 -0.47466,0.04096c-1.51342,0 -2.74029,-1.22687 -2.74029,-2.74029c0,-0.19187 0.01972,-0.37915 0.05725,-0.5599c-1.90084,-4.04014 -1.89326,-9.84098 2.89114,-9.01671z" fill="#ff8d23" stroke-width="0.5"/></g></g></svg>