<svg version="1.1" xmlns="http://www.w3.org/2000/svg" xmlns:xlink="http://www.w3.org/1999/xlink" width="487.21975" height="149.28283" viewBox="0,0,487.21975,149.28283"><g transform="translate(-3.10673,-221.23933)"><g data-paper-data="{&quot;isPaintingLayer&quot;:true}" fill="#ff0000" fill-rule="nonzero" stroke="none" stroke-width="0.5" stroke-linecap="butt" stroke-linejoin="miter" stroke-miterlimit="10" stroke-dasharray="" stroke-dashoffset="0" style="mix-blend-mode: normal"><path d="M10.39822,223.23745c1.17925,0.39308 1.57671,1.17706 1.67828,1.86604c1.04292,1.04292 2.08584,2.08584 3.12876,3.12876c0.66667,0.66667 1.07869,1.7998 2,2c0.25022,0.05437 -0.01107,-0.65242 0.23223,-0.73223c0.63346,-0.20779 1.35702,0.17613 2,0c2.42087,-0.66313 5.20348,-3.22728 7.43728,-4.47505c5.1925,-2.90045 9.1844,-3.52495 15.06272,-3.52495c0.94172,0 5.69644,-0.58654 6.5,0c3.46038,2.52582 4.5983,7.03592 6.15385,10.76923c0.38462,0.92308 0.99708,1.7816 1.15385,2.76923c0.40895,2.57641 0.19231,5.35547 0.19231,7.96154c0,1.16667 0,2.33333 0,3.5c0,0.5 -0.23366,1.94204 0,1.5c0.33438,-0.63259 -0.27681,-1.73965 0.32843,-2.12132c0.70488,-0.4445 1.65444,0.20747 2.47487,0.35355c3.52703,0.62802 6.60517,1.27971 10.1967,1.26777c2.20712,0 6.39837,0.75575 8.5,0c0.70832,-0.25471 0.92142,-1.28353 1.61325,-1.58013c3.24648,-1.39179 7.24135,-1.39992 10.3766,-2.96296c1.20769,-0.60208 1.91913,-1.94005 3.08152,-2.62551c1.25205,-0.73832 2.7392,-0.997 4.03041,-1.66447c4.60566,-2.38084 7.23215,-7.31756 12.24761,-8.92502c1.77538,-0.29775 2.80074,-1.58835 4.53258,-1.97798c1.44264,-0.32456 4.48077,-0.26393 6.11803,-0.26393c1.33333,0 2.87998,-0.72342 4,0c3.35546,2.16729 3.61082,5.47166 6.08013,8.11325c0.98429,1.05297 2.24876,1.80453 3.34314,2.74257c1.06791,0.91535 1.79814,2.69469 3.20372,2.74604c0.44325,0.01619 -0.47606,-1.00532 -0.16396,-1.32049c2.36701,-2.39032 6.87032,-1.30621 9.53699,-2.28137c0.25455,-0.09309 -0.51184,-0.17851 -0.76777,-0.26777c1.66193,-1.66193 3.77869,-2.58005 5.54127,-4.08586c2.2735,-1.9423 3.83231,-5.32498 6.45873,-6.91414c4.00845,-2.42539 11.17701,-2.49316 15.76777,-1.73223c3.38394,0.56089 6.08738,2.63292 9.29057,3.62829c1.6271,0.54237 5.05991,0.96488 6.70943,0.37171c0.70832,-0.25471 0.9395,-1.24447 1.61325,-1.58013c0.69574,-0.34661 2.72379,-1.00078 3.59618,-1.29158l1.84375,-0.12773c0,0 2.12249,0.04516 2.41404,2.00816c0.5008,0.3374 0.78304,0.76075 0.78304,0.76075c4.31932,6.55852 4.41987,12.72812 4.41987,20.38675c0,5.00423 1.08928,11.62952 -0.04511,16.47277c-0.38315,1.63584 -1.50037,3.04253 -1.86504,4.6826c-0.79504,3.57561 -0.6566,7.52806 -1.10858,11.15009c-0.4613,3.6967 -1.52869,7.30424 -2,11c-0.32446,2.54425 0.01873,5.12969 0.01873,7.69454c0,7 0,14 0,21c0,3.95838 0.54028,8.39182 -0.01873,12.30546c-0.20767,1.45387 -0.74111,2.83739 -1.22342,4.2327c0.21897,-0.05455 0.46523,-0.08523 0.74215,-0.08523c2.5,0 2.5,2.5 2.5,2.5c0,3.99693 -0.02868,7.38125 0.87171,11.20943c0.38038,1.61724 1.76696,3.5138 0.86436,4.9086c-0.57845,0.89388 -1.15798,1.52836 -1.73607,1.95752v2.92445c0,1.38071 -1.11929,2.5 -2.5,2.5c-0.69036,0 -1.31536,-0.27982 -1.76777,-0.73223l-0.62106,-0.62106c-4.32977,2.38329 -4.38175,-0.54696 -4.8911,-3.89079c-0.78458,-0.42389 -1.06463,-1.21603 -1.16459,-1.7275c-4.41807,0.08031 -8.72614,0.39631 -12.95594,-1.01362c-3.26973,0.0406 -7.50165,-0.78484 -10.50117,0.77807c-1.40819,0.73374 -5.09558,3.7781 -6.37392,4.14694c-2.84117,0.81978 -7.66538,0.10727 -10.72446,0.10727c-4.49919,0 -9.93091,0.68858 -14.40046,-0.03228c-1.04064,-0.16784 -1.96025,-0.82671 -3,-1c-0.98639,-0.1644 -2.01439,0.16905 -3,0c-2.07784,-0.35638 -3.91229,-1.70692 -6,-2c-4.27587,-0.60027 -9.27765,0.03228 -13.59954,0.03228c-8.57377,0 -17.89741,1.01261 -26.40046,-0.03228c-1.04622,-0.12856 -1.9613,-0.82049 -3,-1c-5.12151,-0.8851 -11.37634,0.03228 -16.59954,0.03228c-11,0 -22,0 -33,0c-4.64293,0 -9.36235,0.2313 -14,0c-1.82511,-0.09102 -3.95269,0.55862 -5.46178,-0.47189c-4.56161,-3.11502 -0.88494,-4.18449 -1.93095,-7.30365c-0.74527,-2.22235 -2.71625,-4.00763 -3.07499,-6.324c-0.75373,-4.86682 -0.03228,-10.48744 -0.03228,-15.40046c0,-10 0,-20 0,-30c0,-12 0,-24 0,-36c0,-6.04229 0.75614,-12.61294 0.03228,-18.59954c-0.25306,-2.09294 -1.65445,-3.92033 -2,-6c-0.04177,-0.25142 -0.03228,-5.92714 -0.03228,-6.40046c0,0 0,-2.5 2.5,-2.5c0.38088,0 0.70373,0.05803 0.9774,0.1564c0.03413,-0.17218 0.07067,-0.34536 0.10978,-0.51976c-0.3417,-0.3417 -0.6834,-0.6834 -1.02511,-1.02511c0,0 -1.76777,-1.76777 0,-3.53553c1.76777,-1.76777 3.53553,0 3.53553,0c0.30939,0.30939 0.61878,0.61878 0.92817,0.92817c0.08599,0.02127 0.17424,0.04685 0.26479,0.07703z"/><path d="M485.48962,262.42017c2.23607,-1.11803 3.3541,1.11803 3.3541,1.11803l1.26393,3.11803c0,9.66667 0,19.33333 0,29c0,4.31032 0.50462,9.03871 -0.01873,13.30546c-0.16732,1.36415 -0.84587,2.6343 -1,4c-0.68758,6.09232 0.46394,11.42717 -1.2707,17.4129c-1.69631,8.74459 -1.69058,17.4153 -1.71057,26.28164c-0.00588,2.60882 0.27009,6.76545 -1.73223,8.76777c-2.63707,2.63707 -9.4241,1.73223 -12.76777,1.73223c-7.36051,0 -14.7782,0.26613 -22.13243,-0.00449c-4.2342,-0.15581 -8.34239,-0.99339 -12.56211,-1.01424c-1.09802,0.26834 -2.26038,0.3477 -3.29407,0.80502c-1.19006,0.52649 -2.04598,1.71464 -3.28692,2.10644c-1.72213,0.54373 -4.57986,-0.18104 -6.419,0.08854c-1.35984,0.19932 -2.6388,0.81018 -4,1c-4.55721,0.63549 -9.69599,0.01873 -14.30546,0.01873c-16,0 -32,0 -48,0c-16.66667,0 -33.33333,0 -50,0c-8.0275,0 -17.13352,1.3472 -24.79057,-1.12829c0,0 -0.82825,-0.27608 -1.34269,-0.9914c-0.24902,0.07593 -0.536,0.11969 -0.86674,0.11969c-2.5,0 -2.5,-2.5 -2.5,-2.5v-1c0,-0.47601 -0.00949,-6.14598 0.03228,-6.40046c0.59551,-3.62762 2.19627,-7.5803 3.03282,-11.16633c2.62197,-11.23957 4.91918,-22.57552 6.98437,-33.92808c0.65013,-2.9271 1.55064,-5.80833 1.96546,-8.77793c1.01409,-7.25962 -0.01493,-15.3787 -0.01493,-22.72721c0,-9.77858 0,-19.55715 0,-29.33573c-0.16325,-1.74985 -0.17015,-3.45462 -0.17015,-5.32052c0,0 0,-2.5 2.5,-2.5c2.5,0 2.5,2.5 2.5,2.5c0,0.44104 -0.02383,0.99294 -0.05074,1.6102c0.22089,0.55011 0.22089,1.04605 0.22089,1.04605c0,1.66108 0,3.32217 0,4.98325c0.1617,0.71196 0.40438,1.32769 0.76188,1.77311c0.24104,0.30032 0.46086,-0.81494 0.84499,-0.78779c1.27554,0.09016 2.33981,1.03237 3.50971,1.54855c2.81941,1.24397 5.64131,3.21938 8.81961,3.40127c4.55662,0.26076 11.45946,-0.71879 15.58101,-2.65595c7.21759,-3.10504 14.15778,-6.57896 21.7655,-8.87154c2.69113,-0.81097 7.15953,-2.49413 9.98177,-1.5463c5.72062,1.92124 9.85032,7.90676 13.59051,12.27031c1.39606,1.62873 2.252,1.85679 3.86163,3.14871c1.64644,1.32146 2.96159,3.18261 5,4c4.72338,1.89405 10.92573,2.59879 15.93525,3.36948c4.24461,0.65302 9.18048,2.15374 13.33223,0.58598c3.39453,-1.04447 7.41496,-1.70684 10.61055,-3.26479c5.75843,-2.80741 10.2317,-7.00445 16.68806,-8.5634c3.18438,-0.7689 9.79213,-2.63162 13.04715,-1.54715c0.53088,0.17687 5.1279,3.03749 6.03295,2.81672c5.44434,0.85808 8.5625,5.03594 12.73482,7.91551c0.59901,0.41341 2.40961,0.30065 3.23223,0.26777c1.57796,-0.06308 3.43608,0.26311 5,0c2.86531,-0.48205 6.01726,-2.32771 8.67673,-3.63592c-0.09372,-0.74819 0.06415,-1.78827 1.37539,-2.44388z"/></g></g></svg>