<svg version="1.1" xmlns="http://www.w3.org/2000/svg" xmlns:xlink="http://www.w3.org/1999/xlink" width="475.72028" height="93.56364" viewBox="0,0,475.72028,93.56364"><g transform="translate(-2.86569,-3.60194)"><g data-paper-data="{&quot;isPaintingLayer&quot;:true}" fill="#ff0000" fill-rule="nonzero" stroke="none" stroke-linecap="butt" stroke-linejoin="miter" stroke-miterlimit="10" stroke-dasharray="" stroke-dashoffset="0" style="mix-blend-mode: normal"><path d="M34.32556,17.09073c-4.5013,0.3659 -8.66934,1.96128 -12.85533,3.98424c-2.29231,1.1078 -3.58238,3.68598 -5.73711,5.0421c-1.57769,0.99295 -5.01282,0.90496 -5.64037,3.45571c-0.68675,2.79135 0.1807,7.40743 0.1807,10.33056c0,4.5125 0.4282,8.4229 0.86318,12.85773c0.27141,2.76721 -0.67134,5.62486 -0.07706,8.3411c0.51379,2.34834 2.23298,4.25812 3.30643,6.40903c3.37159,8.47272 7.54112,12.24027 15.37856,16.48925c0.49726,0.26958 5.08884,3.36219 6.10419,3.56392c6.42167,1.27589 13.85372,0.88568 20.39323,1.33789c5.98671,0.41398 11.94399,1.39895 17.00768,-2.47681c8.94087,-6.84336 10.20038,-17.63037 12.75717,-27.58543c0.07659,-5.39886 1.96622,-7.9976 3.66568,-12.97754c1.38821,-4.06788 1.62096,-10.85945 0.77305,-14.97668c-0.29003,-1.40829 -1.23736,-2.60773 -1.65336,-3.98408c-0.23311,-0.77126 0.3123,-1.85139 -0.27659,-2.40129c-2.17784,-2.03365 -5.68231,-2.02811 -8.11533,-3.74832c-3.28423,-2.32204 -5.75534,-5.11647 -9.72654,-6.59657c-3.39783,-1.2664 -6.81122,-0.81323 -10.1511,-1.6361c-1.27419,-0.31393 -2.26146,-1.39315 -3.52126,-1.76063c-3.19894,-0.93313 -6.98604,1.96652 -9.28753,3.34741c-2.34898,0.59874 -4.65357,1.44034 -6.81528,2.53723l-3.10218,1.07136c0,0 -2.04744,0.68248 -3.47082,-0.62407zM37.99591,10.22335c2.24761,-1.09498 4.59592,-2.02957 7.02286,-2.62354c4.22604,-2.53563 8.40225,-4.84279 13.60062,-3.6951c1.28144,0.28291 2.24936,1.43752 3.52126,1.76063c3.51407,0.89269 7.35258,0.51968 10.97643,1.88515c4.54089,1.71102 7.64862,4.77517 11.40099,7.48845c2.90458,2.10026 7.00235,2.47517 9.49095,5.05481c1.12769,1.16895 0.94159,3.11024 1.48404,4.64122c0.57537,1.62388 1.53757,3.12822 1.8679,4.81905c1.03184,5.28175 0.69878,13.32136 -0.98758,18.47524c-1.58798,4.85321 -3.4625,6.5894 -3.37683,11.67125c-2.86066,11.72105 -4.80527,24.43166 -15.41287,32.2759c-6.783,5.01598 -13.81478,4.50276 -21.82626,3.95168c-6.92598,-0.47641 -14.99703,-0.05708 -21.7617,-1.56935c-2.53321,-0.56631 -5.45976,-2.98925 -7.7072,-4.22209c-2.17235,-1.19165 -4.55859,-2.00132 -6.62991,-3.36101c-5.75976,-3.78091 -9.24244,-10.22289 -11.71708,-16.37942c-0.43586,-0.86997 -3.62337,-7.17399 -3.73608,-7.67599c-0.44035,-1.9613 0.14877,-7.05285 -0.07706,-9.26518c-0.47249,-4.62878 -0.89745,-8.84433 -0.89745,-13.55168c0,-3.32682 -0.93153,-9.59248 0.1807,-12.5576c0.75698,-2.01804 2.19061,-3.81465 3.83956,-5.20262c1.27094,-1.06978 3.19346,-1.02963 4.60508,-1.90544c2.43463,-1.5105 4.03725,-4.21539 6.58728,-5.52167c5.74795,-2.94446 11.82609,-4.65669 18.2393,-4.74335c0,0 0.60478,0 1.31307,0.25064z" stroke-width="0.5"/><path d="M76.86967,70.77493c0,-1.38071 1.11929,-2.5 2.5,-2.5c1.38071,0 2.5,1.11929 2.5,2.5c0,1.38071 -1.11929,2.5 -2.5,2.5c-1.38071,0 -2.5,-1.11929 -2.5,-2.5z" stroke-width="0.5"/><path d="M46.03884,67.36903c0,2.14607 -2.14606,2.14606 -2.14606,2.14606l-2.03278,-0.22656c-5.09645,-2.62171 -10.34947,-0.19322 -15.6288,-1.4404c-0.77837,-0.18389 -1.37341,-0.86648 -2.14606,-1.07303c-1.22353,-0.32709 -2.53256,0.05741 -3.79906,0.05741c0,0 -2.14606,0 -2.14606,-2.14606c0,-2.14607 2.14607,-2.14607 2.14607,-2.14607c0.55009,0 4.47632,-0.01555 4.78519,0.05741c0.77837,0.18389 1.37341,0.86648 2.14607,1.07304c0.71047,0.18994 1.44976,0.13993 2.19282,0.06461c0.08503,-7.41164 1.54912,-14.83835 2.14659,-22.24725c0.27584,-3.42067 0.16403,-6.93846 0.07184,-10.4247c-1.85258,0.89357 -3.71625,1.79702 -5.46245,2.76635c-1.39656,0.77524 -2.73014,1.78194 -4.28618,2.14271l-1.14941,1.25954c0,0 -1.5175,1.5175 -3.03499,0c-1.5175,-1.5175 0,-3.03499 0,-3.03499l2.06968,-1.95955c4.07185,-1.08311 7.97061,-3.81033 11.80674,-5.88166c0.07296,-0.55879 0.42531,-1.90813 2.12701,-1.90813c2.14607,0 2.14607,2.14606 2.14607,2.14606c0,0.25388 0.00101,0.50819 0.00286,0.76289c0.053,0.26502 0.0493,0.50641 0.00742,0.72418c0.05912,4.53357 0.34072,9.17421 -0.01411,13.66346c-0.57406,7.26283 -2.10564,14.59468 -2.14231,21.86324c3.48414,0.01122 6.73124,0.20387 10.0806,1.84197l0.11328,-0.22656c0,0 2.14607,0 2.14607,2.14606z" stroke-width="0.5"/><text transform="translate(107.48972,42.72963) scale(0.5,0.5)" font-size="40" xml:space="preserve" fill="#ff0000" fill-rule="nonzero" stroke="none" stroke-width="1" stroke-linecap="butt" stroke-linejoin="miter" stroke-miterlimit="10" stroke-dasharray="" stroke-dashoffset="0" font-family="Sans Serif" font-weight="normal" text-anchor="start" style="mix-blend-mode: normal"><tspan x="0" dy="0">      If you're flying through a desert,</tspan><tspan x="0" dy="48px">        and your boat gets a flat tire,</tspan><tspan x="0" dy="48px">what should you have in your pockets?</tspan></text><path d="M49.42743,59.88041c1.73806,0 1.86932,1.73518 1.87924,1.99729c0.89677,0.96062 1.84179,1.97721 2.59341,3.02357c0.41894,0.58323 0.59298,1.38913 1.12684,1.85008c0.3807,0.3287 0.96431,0.18206 1.42519,0.3534c1.30007,0.48331 2.55342,1.11275 3.86894,1.54457c2.7199,0.28216 4.83279,-0.13397 7.46796,-0.7947c0.60037,-0.15054 2.23536,-0.1086 2.74763,-0.94052c1.12623,-1.82894 1.90191,-4.29339 2.46643,-6.38316c0.53835,-1.99293 1.79932,-6.99112 -0.03349,-8.70034c-0.65126,-0.60735 -2.17834,-0.97106 -2.88795,-1.1335c-3.72806,-0.85342 -7.58008,-0.56046 -11.36381,-0.56379c-2.14336,0.13399 -4.41948,0.82739 -5.89582,-1.93267c-0.54217,-1.01361 0.09023,-2.34083 0.20785,-3.50447c0.40237,-3.98056 -0.06511,-8.725 0.74858,-12.56668c0.34864,-1.64601 0.53894,-3.56556 1.66686,-4.73496c0.74836,-0.77588 4.15241,-0.34121 5.30098,-0.18687c3.11523,0.41863 6.27532,0.89278 9.41697,1.00123c2.49495,0.08612 4.45948,-0.06413 6.87719,0.69384c0,0 1.80076,0.5834 1.26053,2.52806c-0.54023,1.94466 -2.34099,1.36126 -2.34099,1.36126c-3.95322,-1.3358 -8.7967,-0.76357 -12.94142,-1.13765c-1.49732,-0.13514 -3.0025,-0.27065 -4.4725,-0.60649c-0.30206,-0.06901 -0.67999,-0.68184 -0.84807,-0.40217c-0.36637,0.6096 -0.16581,1.44307 -0.21319,2.168c-0.2234,3.41802 0.07659,6.90063 -0.36746,10.29515c-0.14796,1.1311 -0.94479,2.13357 -0.93218,3.27582c0.00222,0.20079 0.36939,-0.04657 0.55401,-0.07053c0.60752,-0.07886 1.21493,-0.15861 1.8224,-0.23791c4.10131,-0.00335 8.28877,-0.31205 12.32486,0.65438c1.49749,0.35856 3.47397,0.90802 4.63226,2.11494c4.33434,4.51629 1.35694,13.21517 -0.92365,17.86155c-0.44154,0.89958 -0.54733,2.00993 -1.15553,2.78788c-1.65812,2.12087 -2.6242,1.7437 -4.77258,2.30793c-3.17557,0.834 -5.80667,1.19303 -9.07652,0.82952c-1.84605,-0.59213 -5.22225,-1.31691 -6.73821,-2.56863c-1.63674,-1.35145 -3.21922,-4.24913 -4.75416,-5.90542l-0.55065,-2.24773c0,0 0,-2.03028 1.88005,-2.03028z" stroke-width="0.5"/><path d="" stroke-width="0.5"/></g></g></svg>